NotoSansSymbols-Light.ufo
<glyph name="zero" format="2">
  <advance width="570"/>
  <unicode hex="0030"/>
  <outline>
    <contour>
      <point x="285" y="-10" type="curve" smooth="yes"/>
      <point x="433" y="-10"/>
      <point x="507" y="115"/>
      <point x="507" y="360" type="curve" smooth="yes"/>
      <point x="507" y="574"/>
      <point x="456" y="725"/>
      <point x="286" y="725" type="curve" smooth="yes"/>
      <point x="121" y="725"/>
      <point x="62" y="568"/>
      <point x="62" y="360" type="curve" smooth="yes"/>
      <point x="62" y="109"/>
      <point x="144" y="-10"/>
    </contour>
    <contour>
      <point x="285" y="15" type="curve" smooth="yes"/>
      <point x="155" y="15"/>
      <point x="89" y="125"/>
      <point x="89" y="360" type="curve" smooth="yes"/>
      <point x="89" y="557"/>
      <point x="136" y="700"/>
      <point x="286" y="700" type="curve" smooth="yes"/>
      <point x="440" y="700"/>
      <point x="480" y="564"/>
      <point x="480" y="360" type="curve" smooth="yes"/>
      <point x="480" y="127"/>
      <point x="422" y="15"/>
    </contour>
  </outline>
</glyph>
<glyph name="one" format="2">
  <advance width="570"/>
  <unicode hex="0031"/>
  <outline>
    <contour>
      <point x="294" y="0" type="line"/>
      <point x="320" y="0" type="line"/>
      <point x="320" y="714" type="line"/>
      <point x="297" y="714" type="line"/>
      <point x="102" y="572" type="line"/>
      <point x="118" y="551" type="line"/>
      <point x="241" y="642" type="line" smooth="yes"/>
      <point x="266" y="661"/>
      <point x="279" y="671"/>
      <point x="295" y="685" type="curve"/>
      <point x="294" y="658"/>
      <point x="294" y="620"/>
      <point x="294" y="563" type="curve" smooth="yes"/>
    </contour>
  </outline>
</glyph>
<glyph name="two" format="2">
  <advance width="570"/>
  <unicode hex="0032"/>
  <outline>
    <contour>
      <point x="59" y="0" type="line"/>
      <point x="491" y="0" type="line"/>
      <point x="491" y="25" type="line"/>
      <point x="95" y="25" type="line"/>
      <point x="95" y="26" type="line"/>
      <point x="303" y="246" type="line" smooth="yes"/>
      <point x="400" y="348"/>
      <point x="458" y="419"/>
      <point x="458" y="539" type="curve" smooth="yes"/>
      <point x="458" y="649"/>
      <point x="382" y="724"/>
      <point x="268" y="724" type="curve" smooth="yes"/>
      <point x="211" y="724"/>
      <point x="141" y="705"/>
      <point x="80" y="655" type="curve"/>
      <point x="95" y="635" type="line"/>
      <point x="148" y="678"/>
      <point x="211" y="699"/>
      <point x="268" y="699" type="curve" smooth="yes"/>
      <point x="370" y="699"/>
      <point x="431" y="639"/>
      <point x="431" y="539" type="curve" smooth="yes"/>
      <point x="431" y="428"/>
      <point x="380" y="362"/>
      <point x="283" y="260" type="curve" smooth="yes"/>
      <point x="59" y="23" type="line"/>
    </contour>
  </outline>
</glyph>
<glyph name="three" format="2">
  <advance width="570"/>
  <unicode hex="0033"/>
  <outline>
    <contour>
      <point x="247" y="-10" type="curve" smooth="yes"/>
      <point x="407" y="-10"/>
      <point x="492" y="75"/>
      <point x="492" y="194" type="curve" smooth="yes"/>
      <point x="492" y="300"/>
      <point x="429" y="358"/>
      <point x="318" y="373" type="curve"/>
      <point x="318" y="375" type="line"/>
      <point x="405" y="390"/>
      <point x="470" y="457"/>
      <point x="470" y="551" type="curve" smooth="yes"/>
      <point x="470" y="662"/>
      <point x="390" y="724"/>
      <point x="273" y="724" type="curve" smooth="yes"/>
      <point x="185" y="724"/>
      <point x="114" y="695"/>
      <point x="55" y="650" type="curve"/>
      <point x="69" y="629" type="line"/>
      <point x="134" y="676"/>
      <point x="198" y="699"/>
      <point x="273" y="699" type="curve" smooth="yes"/>
      <point x="375" y="699"/>
      <point x="443" y="651"/>
      <point x="443" y="551" type="curve" smooth="yes"/>
      <point x="443" y="435"/>
      <point x="345" y="384"/>
      <point x="239" y="384" type="curve" smooth="yes"/>
      <point x="156" y="384" type="line"/>
      <point x="156" y="359" type="line"/>
      <point x="239" y="359" type="line" smooth="yes"/>
      <point x="372" y="359"/>
      <point x="465" y="314"/>
      <point x="465" y="194" type="curve" smooth="yes"/>
      <point x="465" y="85"/>
      <point x="391" y="15"/>
      <point x="247" y="15" type="curve" smooth="yes"/>
      <point x="173" y="15"/>
      <point x="97" y="35"/>
      <point x="47" y="60" type="curve"/>
      <point x="47" y="32" type="line"/>
      <point x="98" y="8"/>
      <point x="168" y="-10"/>
    </contour>
  </outline>
</glyph>
<glyph name="four" format="2">
  <advance width="570"/>
  <unicode hex="0034"/>
  <outline>
    <contour>
      <point x="400" y="0" type="line"/>
      <point x="426" y="0" type="line"/>
      <point x="426" y="194" type="line"/>
      <point x="560" y="194" type="line"/>
      <point x="560" y="219" type="line"/>
      <point x="426" y="219" type="line"/>
      <point x="426" y="718" type="line"/>
      <point x="398" y="718" type="line"/>
      <point x="25" y="212" type="line"/>
      <point x="25" y="194" type="line"/>
      <point x="400" y="194" type="line"/>
    </contour>
    <contour>
      <point x="60" y="219" type="line"/>
      <point x="335" y="592" type="line" smooth="yes"/>
      <point x="365" y="633"/>
      <point x="376" y="650"/>
      <point x="399" y="686" type="curve"/>
      <point x="401" y="686" type="line"/>
      <point x="400" y="635"/>
      <point x="400" y="610"/>
      <point x="400" y="524" type="curve" smooth="yes"/>
      <point x="400" y="219" type="line"/>
    </contour>
  </outline>
</glyph>
<glyph name="five" format="2">
  <advance width="570"/>
  <unicode hex="0035"/>
  <outline>
    <contour>
      <point x="253" y="-10" type="curve" smooth="yes"/>
      <point x="403" y="-10"/>
      <point x="505" y="76"/>
      <point x="505" y="217" type="curve" smooth="yes"/>
      <point x="505" y="351"/>
      <point x="417" y="426"/>
      <point x="274" y="426" type="curve" smooth="yes"/>
      <point x="206" y="426"/>
      <point x="159" y="414"/>
      <point x="126" y="406" type="curve"/>
      <point x="151" y="689" type="line"/>
      <point x="462" y="689" type="line"/>
      <point x="462" y="714" type="line"/>
      <point x="128" y="714" type="line"/>
      <point x="98" y="393" type="line"/>
      <point x="117" y="378" type="line"/>
      <point x="166" y="392"/>
      <point x="212" y="401"/>
      <point x="274" y="401" type="curve" smooth="yes"/>
      <point x="408" y="401"/>
      <point x="478" y="331"/>
      <point x="478" y="217" type="curve" smooth="yes"/>
      <point x="478" y="90"/>
      <point x="389" y="15"/>
      <point x="253" y="15" type="curve" smooth="yes"/>
      <point x="180" y="15"/>
      <point x="119" y="35"/>
      <point x="74" y="62" type="curve"/>
      <point x="74" y="32" type="line"/>
      <point x="116" y="8"/>
      <point x="177" y="-10"/>
    </contour>
  </outline>
</glyph>
<glyph name="six" format="2">
  <advance width="570"/>
  <unicode hex="0036"/>
  <outline>
    <contour>
      <point x="299" y="-10" type="curve" smooth="yes"/>
      <point x="435" y="-10"/>
      <point x="513" y="86"/>
      <point x="513" y="225" type="curve" smooth="yes"/>
      <point x="513" y="355"/>
      <point x="436" y="439"/>
      <point x="304" y="439" type="curve" smooth="yes"/>
      <point x="189" y="439"/>
      <point x="121" y="378"/>
      <point x="95" y="322" type="curve"/>
      <point x="93" y="322" type="line"/>
      <point x="99" y="593"/>
      <point x="209" y="701"/>
      <point x="367" y="701" type="curve" smooth="yes"/>
      <point x="407" y="701"/>
      <point x="441" y="695"/>
      <point x="465" y="686" type="curve"/>
      <point x="465" y="713" type="line"/>
      <point x="438" y="721"/>
      <point x="407" y="726"/>
      <point x="367" y="726" type="curve" smooth="yes"/>
      <point x="196" y="726"/>
      <point x="68" y="608"/>
      <point x="68" y="303" type="curve" smooth="yes"/>
      <point x="68" y="150"/>
      <point x="130" y="-10"/>
    </contour>
    <contour>
      <point x="299" y="15" type="curve" smooth="yes"/>
      <point x="137" y="15"/>
      <point x="100" y="179"/>
      <point x="100" y="258" type="curve" smooth="yes"/>
      <point x="100" y="325"/>
      <point x="177" y="414"/>
      <point x="304" y="414" type="curve" smooth="yes"/>
      <point x="426" y="414"/>
      <point x="486" y="342"/>
      <point x="486" y="225" type="curve" smooth="yes"/>
      <point x="486" y="95"/>
      <point x="420" y="15"/>
    </contour>
  </outline>
</glyph>
<glyph name="seven" format="2">
  <advance width="570"/>
  <unicode hex="0037"/>
  <outline>
    <contour>
      <point x="183" y="0" type="line"/>
      <point x="212" y="0" type="line"/>
      <point x="510" y="697" type="line"/>
      <point x="510" y="714" type="line"/>
      <point x="58" y="714" type="line"/>
      <point x="58" y="689" type="line"/>
      <point x="480" y="689" type="line"/>
    </contour>
  </outline>
</glyph>
<glyph name="eight" format="2">
  <advance width="570"/>
  <unicode hex="0038"/>
  <outline>
    <contour>
      <point x="279" y="-10" type="curve" smooth="yes"/>
      <point x="404" y="-10"/>
      <point x="503" y="59"/>
      <point x="503" y="181" type="curve" smooth="yes"/>
      <point x="503" y="284"/>
      <point x="432" y="342"/>
      <point x="314" y="382" type="curve"/>
      <point x="415" y="422"/>
      <point x="479" y="473"/>
      <point x="479" y="561" type="curve" smooth="yes"/>
      <point x="479" y="663"/>
      <point x="403" y="724"/>
      <point x="283" y="724" type="curve" smooth="yes"/>
      <point x="168" y="724"/>
      <point x="87" y="659"/>
      <point x="87" y="559" type="curve" smooth="yes"/>
      <point x="87" y="460"/>
      <point x="161" y="415"/>
      <point x="251" y="381" type="curve"/>
      <point x="138" y="343"/>
      <point x="64" y="284"/>
      <point x="64" y="175" type="curve" smooth="yes"/>
      <point x="64" y="65"/>
      <point x="153" y="-10"/>
    </contour>
    <contour>
      <point x="279" y="15" type="curve" smooth="yes"/>
      <point x="167" y="15"/>
      <point x="91" y="76"/>
      <point x="91" y="175" type="curve" smooth="yes"/>
      <point x="91" y="282"/>
      <point x="175" y="333"/>
      <point x="281" y="368" type="curve"/>
      <point x="309" y="358" type="line" smooth="yes"/>
      <point x="418" y="319"/>
      <point x="476" y="268"/>
      <point x="476" y="181" type="curve" smooth="yes"/>
      <point x="476" y="72"/>
      <point x="393" y="15"/>
    </contour>
    <contour>
      <point x="286" y="394" type="curve"/>
      <point x="182" y="430"/>
      <point x="114" y="474"/>
      <point x="114" y="559" type="curve" smooth="yes"/>
      <point x="114" y="649"/>
      <point x="185" y="699"/>
      <point x="283" y="699" type="curve" smooth="yes"/>
      <point x="389" y="699"/>
      <point x="452" y="653"/>
      <point x="452" y="561" type="curve" smooth="yes"/>
      <point x="452" y="482"/>
      <point x="396" y="439"/>
    </contour>
  </outline>
</glyph>
<glyph name="nine" format="2">
  <advance width="570"/>
  <unicode hex="0039"/>
  <outline>
    <contour>
      <point x="201" y="-12" type="curve" smooth="yes"/>
      <point x="372" y="-12"/>
      <point x="500" y="107"/>
      <point x="500" y="413" type="curve" smooth="yes"/>
      <point x="500" y="568"/>
      <point x="441" y="724"/>
      <point x="269" y="724" type="curve" smooth="yes"/>
      <point x="133" y="724"/>
      <point x="55" y="629"/>
      <point x="55" y="491" type="curve" smooth="yes"/>
      <point x="55" y="360"/>
      <point x="130" y="275"/>
      <point x="262" y="275" type="curve" smooth="yes"/>
      <point x="377" y="275"/>
      <point x="447" y="337"/>
      <point x="473" y="394" type="curve"/>
      <point x="475" y="394" type="line"/>
      <point x="469" y="124"/>
      <point x="357" y="13"/>
      <point x="201" y="13" type="curve" smooth="yes"/>
      <point x="159" y="13"/>
      <point x="117" y="20"/>
      <point x="93" y="29" type="curve"/>
      <point x="93" y="1" type="line"/>
      <point x="120" y="-7"/>
      <point x="162" y="-12"/>
    </contour>
    <contour>
      <point x="264" y="300" type="curve" smooth="yes"/>
      <point x="142" y="300"/>
      <point x="82" y="373"/>
      <point x="82" y="491" type="curve" smooth="yes"/>
      <point x="82" y="620"/>
      <point x="148" y="699"/>
      <point x="269" y="699" type="curve" smooth="yes"/>
      <point x="431" y="699"/>
      <point x="468" y="536"/>
      <point x="468" y="458" type="curve" smooth="yes"/>
      <point x="468" y="390"/>
      <point x="390" y="300"/>
    </contour>
  </outline>
</glyph>
<glyph name="A" format="2">
  <advance width="577"/>
  <unicode hex="0041"/>
  <outline>
    <contour>
      <point x="0" y="0" type="line"/>
      <point x="28" y="0" type="line"/>
      <point x="135" y="271" type="line"/>
      <point x="445" y="271" type="line"/>
      <point x="549" y="0" type="line"/>
      <point x="577" y="0" type="line"/>
      <point x="307" y="716" type="line"/>
      <point x="282" y="716" type="line"/>
    </contour>
    <contour>
      <point x="144" y="296" type="line"/>
      <point x="260" y="593" type="line" smooth="yes"/>
      <point x="270" y="620"/>
      <point x="283" y="652"/>
      <point x="293" y="682" type="curve"/>
      <point x="306" y="645"/>
      <point x="317" y="617"/>
      <point x="325" y="594" type="curve" smooth="yes"/>
      <point x="435" y="296" type="line"/>
    </contour>
  </outline>
</glyph>
<glyph name="B" format="2">
  <advance width="613"/>
  <unicode hex="0042"/>
  <outline>
    <contour>
      <point x="103" y="0" type="line"/>
      <point x="303" y="0" type="line" smooth="yes"/>
      <point x="449" y="0"/>
      <point x="557" y="56"/>
      <point x="557" y="203" type="curve" smooth="yes"/>
      <point x="557" y="293"/>
      <point x="516" y="357"/>
      <point x="398" y="375" type="curve"/>
      <point x="398" y="377" type="line"/>
      <point x="490" y="393"/>
      <point x="539" y="461"/>
      <point x="539" y="542" type="curve" smooth="yes"/>
      <point x="539" y="657"/>
      <point x="469" y="714"/>
      <point x="294" y="714" type="curve" smooth="yes"/>
      <point x="103" y="714" type="line"/>
    </contour>
    <contour>
      <point x="129" y="25" type="line"/>
      <point x="129" y="363" type="line"/>
      <point x="300" y="363" type="line"/>
      <point x="443" y="363"/>
      <point x="530" y="325"/>
      <point x="530" y="202" type="curve" smooth="yes"/>
      <point x="530" y="79"/>
      <point x="447" y="25"/>
      <point x="311" y="25" type="curve" smooth="yes"/>
    </contour>
    <contour>
      <point x="129" y="388" type="line"/>
      <point x="129" y="689" type="line"/>
      <point x="291" y="689" type="line" smooth="yes"/>
      <point x="446" y="689"/>
      <point x="512" y="646"/>
      <point x="512" y="541" type="curve" smooth="yes"/>
      <point x="512" y="440"/>
      <point x="444" y="388"/>
      <point x="303" y="388" type="curve" smooth="yes"/>
    </contour>
  </outline>
</glyph>
<glyph name="C" format="2">
  <advance width="614"/>
  <unicode hex="0043"/>
  <outline>
    <contour>
      <point x="386" y="-10" type="curve" smooth="yes"/>
      <point x="465" y="-10"/>
      <point x="526" y="4"/>
      <point x="570" y="21" type="curve"/>
      <point x="570" y="44" type="line"/>
      <point x="522" y="27"/>
      <point x="463" y="15"/>
      <point x="386" y="15" type="curve" smooth="yes"/>
      <point x="189" y="15"/>
      <point x="90" y="153"/>
      <point x="90" y="360" type="curve" smooth="yes"/>
      <point x="90" y="555"/>
      <point x="204" y="699"/>
      <point x="405" y="699" type="curve" smooth="yes"/>
      <point x="460" y="699"/>
      <point x="516" y="692"/>
      <point x="573" y="662" type="curve"/>
      <point x="583" y="687" type="line"/>
      <point x="528" y="712"/>
      <point x="470" y="724"/>
      <point x="405" y="724" type="curve" smooth="yes"/>
      <point x="191" y="724"/>
      <point x="63" y="568"/>
      <point x="63" y="360" type="curve" smooth="yes"/>
      <point x="63" y="139"/>
      <point x="174" y="-10"/>
    </contour>
  </outline>
</glyph>
<glyph name="D" format="2">
  <advance width="692"/>
  <unicode hex="0044"/>
  <outline>
    <contour>
      <point x="103" y="0" type="line"/>
      <point x="257" y="0" type="line" smooth="yes"/>
      <point x="507" y="0"/>
      <point x="628" y="125"/>
      <point x="628" y="364" type="curve" smooth="yes"/>
      <point x="628" y="591"/>
      <point x="516" y="714"/>
      <point x="280" y="714" type="curve" smooth="yes"/>
      <point x="103" y="714" type="line"/>
    </contour>
    <contour>
      <point x="129" y="25" type="line"/>
      <point x="129" y="689" type="line"/>
      <point x="270" y="689" type="line" smooth="yes"/>
      <point x="502" y="689"/>
      <point x="601" y="575"/>
      <point x="601" y="363" type="curve" smooth="yes"/>
      <point x="601" y="136"/>
      <point x="489" y="25"/>
      <point x="260" y="25" type="curve" smooth="yes"/>
    </contour>
  </outline>
</glyph>
<glyph name="F" format="2">
  <advance width="492"/>
  <unicode hex="0046"/>
  <outline>
    <contour>
      <point x="103" y="0" type="line"/>
      <point x="129" y="0" type="line"/>
      <point x="129" y="329" type="line"/>
      <point x="470" y="329" type="line"/>
      <point x="470" y="354" type="line"/>
      <point x="129" y="354" type="line"/>
      <point x="129" y="689" type="line"/>
      <point x="489" y="689" type="line"/>
      <point x="489" y="714" type="line"/>
      <point x="103" y="714" type="line"/>
    </contour>
  </outline>
</glyph>
<glyph name="G" format="2">
  <advance width="720"/>
  <unicode hex="0047"/>
  <outline>
    <contour>
      <point x="417" y="-10" type="curve" smooth="yes"/>
      <point x="496" y="-10"/>
      <point x="575" y="5"/>
      <point x="639" y="36" type="curve"/>
      <point x="639" y="350" type="line"/>
      <point x="367" y="350" type="line"/>
      <point x="367" y="325" type="line"/>
      <point x="613" y="325" type="line"/>
      <point x="613" y="50" type="line"/>
      <point x="561" y="28"/>
      <point x="496" y="15"/>
      <point x="419" y="15" type="curve" smooth="yes"/>
      <point x="219" y="15"/>
      <point x="90" y="114"/>
      <point x="90" y="356" type="curve" smooth="yes"/>
      <point x="90" y="554"/>
      <point x="216" y="701"/>
      <point x="423" y="701" type="curve" smooth="yes"/>
      <point x="487" y="701"/>
      <point x="551" y="690"/>
      <point x="619" y="657" type="curve"/>
      <point x="631" y="682" type="line"/>
      <point x="568" y="713"/>
      <point x="500" y="726"/>
      <point x="424" y="726" type="curve" smooth="yes"/>
      <point x="199" y="726"/>
      <point x="63" y="566"/>
      <point x="63" y="355" type="curve" smooth="yes"/>
      <point x="63" y="121"/>
      <point x="186" y="-10"/>
    </contour>
  </outline>
</glyph>
<glyph name="J" format="2">
  <advance width="231"/>
  <unicode hex="004A"/>
  <outline>
    <contour>
      <point x="-19" y="-174" type="curve" smooth="yes"/>
      <point x="93" y="-174"/>
      <point x="132" y="-97"/>
      <point x="132" y="2" type="curve" smooth="yes"/>
      <point x="132" y="714" type="line"/>
      <point x="106" y="714" type="line"/>
      <point x="106" y="5" type="line" smooth="yes"/>
      <point x="106" y="-86"/>
      <point x="77" y="-148"/>
      <point x="-19" y="-148" type="curve" smooth="yes"/>
      <point x="-50" y="-148"/>
      <point x="-80" y="-142"/>
      <point x="-98" y="-134" type="curve"/>
      <point x="-98" y="-162" type="line"/>
      <point x="-81" y="-168"/>
      <point x="-56" y="-174"/>
    </contour>
  </outline>
</glyph>
<glyph name="K" format="2">
  <advance width="558"/>
  <unicode hex="004B"/>
  <outline>
    <contour>
      <point x="103" y="0" type="line"/>
      <point x="129" y="0" type="line"/>
      <point x="129" y="293" type="line"/>
      <point x="234" y="398" type="line"/>
      <point x="524" y="0" type="line"/>
      <point x="558" y="0" type="line"/>
      <point x="254" y="417" type="line"/>
      <point x="552" y="714" type="line"/>
      <point x="514" y="714" type="line"/>
      <point x="179" y="376" type="line" smooth="yes"/>
      <point x="161" y="358"/>
      <point x="144" y="341"/>
      <point x="129" y="324" type="curve"/>
      <point x="129" y="714" type="line"/>
      <point x="103" y="714" type="line"/>
    </contour>
  </outline>
</glyph>
<glyph name="L" format="2">
  <advance width="506"/>
  <unicode hex="004C"/>
  <outline>
    <contour>
      <point x="103" y="0" type="line"/>
      <point x="486" y="0" type="line"/>
      <point x="486" y="25" type="line"/>
      <point x="129" y="25" type="line"/>
      <point x="129" y="714" type="line"/>
      <point x="103" y="714" type="line"/>
    </contour>
  </outline>
</glyph>
<glyph name="M" format="2">
  <advance width="837"/>
  <unicode hex="004D"/>
  <outline>
    <contour>
      <point x="103" y="0" type="line"/>
      <point x="129" y="0" type="line"/>
      <point x="129" y="596" type="line" smooth="yes"/>
      <point x="129" y="626"/>
      <point x="129" y="646"/>
      <point x="128" y="679" type="curve"/>
      <point x="130" y="679" type="line"/>
      <point x="408" y="0" type="line"/>
      <point x="428" y="0" type="line"/>
      <point x="706" y="678" type="line"/>
      <point x="708" y="678" type="line"/>
      <point x="707" y="645"/>
      <point x="707" y="622"/>
      <point x="707" y="602" type="curve" smooth="yes"/>
      <point x="707" y="0" type="line"/>
      <point x="733" y="0" type="line"/>
      <point x="733" y="714" type="line"/>
      <point x="693" y="714" type="line"/>
      <point x="420" y="48" type="line"/>
      <point x="417" y="48" type="line"/>
      <point x="145" y="714" type="line"/>
      <point x="103" y="714" type="line"/>
    </contour>
  </outline>
</glyph>
<glyph name="N" format="2">
  <advance width="698"/>
  <unicode hex="004E"/>
  <outline>
    <contour>
      <point x="103" y="0" type="line"/>
      <point x="129" y="0" type="line"/>
      <point x="129" y="502" type="line" smooth="yes"/>
      <point x="129" y="555"/>
      <point x="129" y="597"/>
      <point x="128" y="655" type="curve"/>
      <point x="130" y="655" type="line"/>
      <point x="575" y="0" type="line"/>
      <point x="594" y="0" type="line"/>
      <point x="594" y="714" type="line"/>
      <point x="568" y="714" type="line"/>
      <point x="568" y="211" type="line" smooth="yes"/>
      <point x="568" y="165"/>
      <point x="568" y="111"/>
      <point x="569" y="61" type="curve"/>
      <point x="567" y="61" type="line"/>
      <point x="123" y="714" type="line"/>
      <point x="103" y="714" type="line"/>
    </contour>
  </outline>
</glyph>
<glyph name="O" format="2">
  <advance width="754"/>
  <unicode hex="004F"/>
  <outline>
    <contour>
      <point x="376" y="-10" type="curve" smooth="yes"/>
      <point x="587" y="-10"/>
      <point x="690" y="143"/>
      <point x="690" y="358" type="curve" smooth="yes"/>
      <point x="690" y="590"/>
      <point x="579" y="725"/>
      <point x="382" y="725" type="curve" smooth="yes"/>
      <point x="177" y="725"/>
      <point x="63" y="574"/>
      <point x="63" y="359" type="curve" smooth="yes"/>
      <point x="63" y="143"/>
      <point x="168" y="-10"/>
    </contour>
    <contour>
      <point x="377" y="15" type="curve" smooth="yes"/>
      <point x="182" y="15"/>
      <point x="90" y="159"/>
      <point x="90" y="359" type="curve" smooth="yes"/>
      <point x="90" y="556"/>
      <point x="186" y="700"/>
      <point x="382" y="700" type="curve" smooth="yes"/>
      <point x="562" y="700"/>
      <point x="663" y="575"/>
      <point x="663" y="358" type="curve" smooth="yes"/>
      <point x="663" y="156"/>
      <point x="573" y="15"/>
    </contour>
  </outline>
</glyph>
<glyph name="P" format="2">
  <advance width="573"/>
  <unicode hex="0050"/>
  <outline>
    <contour>
      <point x="103" y="0" type="line"/>
      <point x="129" y="0" type="line"/>
      <point x="129" y="305" type="line"/>
      <point x="256" y="305" type="line" smooth="yes"/>
      <point x="414" y="305"/>
      <point x="516" y="364"/>
      <point x="516" y="519" type="curve" smooth="yes"/>
      <point x="516" y="658"/>
      <point x="429" y="714"/>
      <point x="270" y="714" type="curve" smooth="yes"/>
      <point x="103" y="714" type="line"/>
    </contour>
    <contour>
      <point x="129" y="330" type="line"/>
      <point x="129" y="689" type="line"/>
      <point x="266" y="689" type="line" smooth="yes"/>
      <point x="418" y="689"/>
      <point x="489" y="639"/>
      <point x="489" y="518" type="curve" smooth="yes"/>
      <point x="489" y="372"/>
      <point x="394" y="330"/>
      <point x="254" y="330" type="curve" smooth="yes"/>
    </contour>
  </outline>
</glyph>
<glyph name="R" format="2">
  <advance width="577"/>
  <unicode hex="0052"/>
  <outline>
    <contour>
      <point x="103" y="0" type="line"/>
      <point x="129" y="0" type="line"/>
      <point x="129" y="320" type="line"/>
      <point x="327" y="320" type="line"/>
      <point x="518" y="0" type="line"/>
      <point x="551" y="0" type="line"/>
      <point x="355" y="327" type="line"/>
      <point x="456" y="354"/>
      <point x="516" y="419"/>
      <point x="516" y="525" type="curve" smooth="yes"/>
      <point x="516" y="673"/>
      <point x="427" y="714"/>
      <point x="262" y="714" type="curve" smooth="yes"/>
      <point x="103" y="714" type="line"/>
    </contour>
    <contour>
      <point x="129" y="345" type="line"/>
      <point x="129" y="689" type="line"/>
      <point x="257" y="689" type="line" smooth="yes"/>
      <point x="413" y="689"/>
      <point x="489" y="652"/>
      <point x="489" y="524" type="curve" smooth="yes"/>
      <point x="489" y="410"/>
      <point x="408" y="345"/>
      <point x="292" y="345" type="curve" smooth="yes"/>
    </contour>
  </outline>
</glyph>
<glyph name="S" format="2">
  <advance width="543"/>
  <unicode hex="0053"/>
  <outline>
    <contour>
      <point x="250" y="-10" type="curve" smooth="yes"/>
      <point x="380" y="-10"/>
      <point x="489" y="51"/>
      <point x="489" y="180" type="curve" smooth="yes"/>
      <point x="489" y="298"/>
      <point x="404" y="335"/>
      <point x="277" y="375" type="curve" smooth="yes"/>
      <point x="174" y="407"/>
      <point x="91" y="437"/>
      <point x="91" y="546" type="curve" smooth="yes"/>
      <point x="91" y="653"/>
      <point x="183" y="699"/>
      <point x="289" y="699" type="curve" smooth="yes"/>
      <point x="342" y="699"/>
      <point x="398" y="691"/>
      <point x="460" y="664" type="curve"/>
      <point x="471" y="687" type="line"/>
      <point x="412" y="713"/>
      <point x="354" y="724"/>
      <point x="291" y="724" type="curve" smooth="yes"/>
      <point x="165" y="724"/>
      <point x="64" y="664"/>
      <point x="64" y="544" type="curve" smooth="yes"/>
      <point x="64" y="425"/>
      <point x="147" y="389"/>
      <point x="263" y="352" type="curve" smooth="yes"/>
      <point x="386" y="313"/>
      <point x="462" y="280"/>
      <point x="462" y="181" type="curve" smooth="yes"/>
      <point x="462" y="65"/>
      <point x="365" y="15"/>
      <point x="252" y="15" type="curve" smooth="yes"/>
      <point x="171" y="15"/>
      <point x="109" y="29"/>
      <point x="56" y="48" type="curve"/>
      <point x="56" y="19" type="line"/>
      <point x="104" y="5"/>
      <point x="158" y="-10"/>
    </contour>
  </outline>
</glyph>
<glyph name="T" format="2">
  <advance width="505"/>
  <unicode hex="0054"/>
  <outline>
    <contour>
      <point x="239" y="0" type="line"/>
      <point x="265" y="0" type="line"/>
      <point x="265" y="689" type="line"/>
      <point x="503" y="689" type="line"/>
      <point x="503" y="714" type="line"/>
      <point x="2" y="714" type="line"/>
      <point x="2" y="689" type="line"/>
      <point x="239" y="689" type="line"/>
    </contour>
  </outline>
</glyph>
<glyph name="U" format="2">
  <advance width="712"/>
  <unicode hex="0055"/>
  <outline>
    <contour>
      <point x="355" y="-10" type="curve" smooth="yes"/>
      <point x="510" y="-10"/>
      <point x="618" y="74"/>
      <point x="618" y="252" type="curve" smooth="yes"/>
      <point x="618" y="714" type="line"/>
      <point x="592" y="714" type="line"/>
      <point x="592" y="244" type="line" smooth="yes"/>
      <point x="592" y="92"/>
      <point x="498" y="15"/>
      <point x="356" y="15" type="curve" smooth="yes"/>
      <point x="207" y="15"/>
      <point x="121" y="96"/>
      <point x="121" y="256" type="curve" smooth="yes"/>
      <point x="121" y="714" type="line"/>
      <point x="95" y="714" type="line"/>
      <point x="95" y="254" type="line" smooth="yes"/>
      <point x="95" y="81"/>
      <point x="190" y="-10"/>
    </contour>
  </outline>
</glyph>
<glyph name="V" format="2">
  <advance width="563"/>
  <unicode hex="0056"/>
  <outline>
    <contour>
      <point x="269" y="0" type="line"/>
      <point x="294" y="0" type="line"/>
      <point x="563" y="714" type="line"/>
      <point x="535" y="714" type="line"/>
      <point x="320" y="143" type="line" smooth="yes"/>
      <point x="303" y="98"/>
      <point x="292" y="67"/>
      <point x="282" y="37" type="curve"/>
      <point x="272" y="67"/>
      <point x="258" y="105"/>
      <point x="244" y="143" type="curve" smooth="yes"/>
      <point x="28" y="714" type="line"/>
      <point x="0" y="714" type="line"/>
    </contour>
  </outline>
</glyph>
<glyph name="W" format="2">
  <advance width="869"/>
  <unicode hex="0057"/>
  <outline>
    <contour>
      <point x="228" y="0" type="line"/>
      <point x="252" y="0" type="line"/>
      <point x="415" y="604" type="line" smooth="yes"/>
      <point x="421" y="627"/>
      <point x="425" y="641"/>
      <point x="431" y="675" type="curve"/>
      <point x="439" y="639"/>
      <point x="446" y="620"/>
      <point x="456" y="582" type="curve" smooth="yes"/>
      <point x="617" y="0" type="line"/>
      <point x="641" y="0" type="line"/>
      <point x="839" y="714" type="line"/>
      <point x="812" y="714" type="line"/>
      <point x="658" y="168" type="line" smooth="yes"/>
      <point x="643" y="116"/>
      <point x="637" y="88"/>
      <point x="629" y="48" type="curve"/>
      <point x="620" y="88"/>
      <point x="613" y="116"/>
      <point x="598" y="168" type="curve" smooth="yes"/>
      <point x="445" y="714" type="line"/>
      <point x="420" y="714" type="line"/>
      <point x="271" y="171" type="line" smooth="yes"/>
      <point x="257" y="121"/>
      <point x="249" y="90"/>
      <point x="240" y="52" type="curve"/>
      <point x="231" y="90"/>
      <point x="221" y="121"/>
      <point x="208" y="170" type="curve" smooth="yes"/>
      <point x="60" y="714" type="line"/>
      <point x="33" y="714" type="line"/>
    </contour>
  </outline>
</glyph>
<glyph name="X" format="2">
  <advance width="509"/>
  <unicode hex="0058"/>
  <outline>
    <contour>
      <point x="-3" y="0" type="line"/>
      <point x="28" y="0" type="line"/>
      <point x="256" y="350" type="line"/>
      <point x="481" y="0" type="line"/>
      <point x="512" y="0" type="line"/>
      <point x="274" y="370" type="line"/>
      <point x="494" y="714" type="line"/>
      <point x="463" y="714" type="line"/>
      <point x="257" y="390" type="line"/>
      <point x="53" y="714" type="line"/>
      <point x="22" y="714" type="line"/>
      <point x="239" y="370" type="line"/>
    </contour>
  </outline>
</glyph>
<glyph name="Y" format="2">
  <advance width="505"/>
  <unicode hex="0059"/>
  <outline>
    <contour>
      <point x="241" y="0" type="line"/>
      <point x="267" y="0" type="line"/>
      <point x="267" y="275" type="line"/>
      <point x="505" y="714" type="line"/>
      <point x="475" y="714" type="line"/>
      <point x="253" y="301" type="line"/>
      <point x="30" y="714" type="line"/>
      <point x="0" y="714" type="line"/>
      <point x="241" y="271" type="line"/>
    </contour>
  </outline>
</glyph>
<glyph name="Z" format="2">
  <advance width="578"/>
  <unicode hex="005A"/>
  <outline>
    <contour>
      <point x="36" y="0" type="line"/>
      <point x="538" y="0" type="line"/>
      <point x="538" y="25" type="line"/>
      <point x="73" y="25" type="line"/>
      <point x="526" y="696" type="line"/>
      <point x="526" y="714" type="line"/>
      <point x="64" y="714" type="line"/>
      <point x="64" y="689" type="line"/>
      <point x="489" y="689" type="line"/>
      <point x="36" y="18" type="line"/>
    </contour>
  </outline>
</glyph>
<glyph name="a" format="2">
  <advance width="511"/>
  <unicode hex="0061"/>
  <outline>
    <contour>
      <point x="208" y="-10" type="curve" smooth="yes"/>
      <point x="316" y="-10"/>
      <point x="372" y="42"/>
      <point x="400" y="103" type="curve"/>
      <point x="402" y="103" type="line"/>
      <point x="406" y="0" type="line"/>
      <point x="428" y="0" type="line"/>
      <point x="428" y="350" type="line" smooth="yes"/>
      <point x="428" y="480"/>
      <point x="373" y="537"/>
      <point x="264" y="537" type="curve" smooth="yes"/>
      <point x="205" y="537"/>
      <point x="150" y="522"/>
      <point x="97" y="498" type="curve"/>
      <point x="106" y="472" type="line"/>
      <point x="163" y="501"/>
      <point x="211" y="512"/>
      <point x="264" y="512" type="curve" smooth="yes"/>
      <point x="357" y="512"/>
      <point x="402" y="463"/>
      <point x="402" y="343" type="curve" smooth="yes"/>
      <point x="402" y="300" type="line"/>
      <point x="299" y="294" type="line" smooth="yes"/>
      <point x="142" y="285"/>
      <point x="48" y="234"/>
      <point x="48" y="129" type="curve" smooth="yes"/>
      <point x="48" y="45"/>
      <point x="102" y="-10"/>
    </contour>
    <contour>
      <point x="208" y="15" type="curve" smooth="yes"/>
      <point x="123" y="15"/>
      <point x="76" y="58"/>
      <point x="76" y="129" type="curve" smooth="yes"/>
      <point x="76" y="222"/>
      <point x="165" y="263"/>
      <point x="301" y="270" type="curve" smooth="yes"/>
      <point x="402" y="275" type="line"/>
      <point x="402" y="220" type="line" smooth="yes"/>
      <point x="402" y="99"/>
      <point x="341" y="15"/>
    </contour>
  </outline>
</glyph>
<glyph name="b" format="2">
  <advance width="583"/>
  <unicode hex="0062"/>
  <outline>
    <contour>
      <point x="295" y="-10" type="curve" smooth="yes"/>
      <point x="456" y="-10"/>
      <point x="524" y="114"/>
      <point x="524" y="266" type="curve" smooth="yes"/>
      <point x="524" y="444"/>
      <point x="451" y="539"/>
      <point x="311" y="539" type="curve" smooth="yes"/>
      <point x="210" y="539"/>
      <point x="137" y="483"/>
      <point x="115" y="406" type="curve"/>
      <point x="113" y="406" type="line"/>
      <point x="114" y="439"/>
      <point x="115" y="493"/>
      <point x="115" y="525" type="curve" smooth="yes"/>
      <point x="115" y="760" type="line"/>
      <point x="89" y="760" type="line"/>
      <point x="89" y="0" type="line"/>
      <point x="111" y="0" type="line"/>
      <point x="115" y="104" type="line"/>
      <point x="117" y="104" type="line"/>
      <point x="141" y="38"/>
      <point x="200" y="-10"/>
    </contour>
    <contour>
      <point x="295" y="15" type="curve" smooth="yes"/>
      <point x="174" y="15"/>
      <point x="115" y="98"/>
      <point x="115" y="253" type="curve" smooth="yes"/>
      <point x="115" y="263" type="line" smooth="yes"/>
      <point x="115" y="419"/>
      <point x="178" y="514"/>
      <point x="311" y="514" type="curve" smooth="yes"/>
      <point x="435" y="514"/>
      <point x="497" y="430"/>
      <point x="497" y="266" type="curve" smooth="yes"/>
      <point x="497" y="106"/>
      <point x="427" y="15"/>
    </contour>
  </outline>
</glyph>
<glyph name="c" format="2">
  <advance width="472"/>
  <unicode hex="0063"/>
  <outline>
    <contour>
      <point x="302" y="-10" type="curve" smooth="yes"/>
      <point x="357" y="-10"/>
      <point x="405" y="2"/>
      <point x="438" y="16" type="curve"/>
      <point x="438" y="41" type="line"/>
      <point x="399" y="25"/>
      <point x="350" y="15"/>
      <point x="302" y="15" type="curve" smooth="yes"/>
      <point x="150" y="15"/>
      <point x="86" y="125"/>
      <point x="86" y="261" type="curve" smooth="yes"/>
      <point x="86" y="409"/>
      <point x="175" y="513"/>
      <point x="319" y="513" type="curve" smooth="yes"/>
      <point x="357" y="513"/>
      <point x="397" y="507"/>
      <point x="437" y="489" type="curve"/>
      <point x="442" y="514" type="line"/>
      <point x="405" y="530"/>
      <point x="367" y="538"/>
      <point x="319" y="538" type="curve" smooth="yes"/>
      <point x="157" y="538"/>
      <point x="59" y="422"/>
      <point x="59" y="261" type="curve" smooth="yes"/>
      <point x="59" y="106"/>
      <point x="133" y="-10"/>
    </contour>
  </outline>
</glyph>
<glyph name="d" format="2">
  <advance width="583"/>
  <unicode hex="0064"/>
  <outline>
    <contour>
      <point x="283" y="-10" type="curve" smooth="yes"/>
      <point x="388" y="-10"/>
      <point x="444" y="46"/>
      <point x="468" y="113" type="curve"/>
      <point x="470" y="113" type="line"/>
      <point x="472" y="0" type="line"/>
      <point x="494" y="0" type="line"/>
      <point x="494" y="760" type="line"/>
      <point x="468" y="760" type="line"/>
      <point x="468" y="543" type="line" smooth="yes"/>
      <point x="468" y="501"/>
      <point x="468" y="459"/>
      <point x="470" y="414" type="curve"/>
      <point x="468" y="414" type="line"/>
      <point x="446" y="484"/>
      <point x="387" y="538"/>
      <point x="291" y="538" type="curve" smooth="yes"/>
      <point x="141" y="538"/>
      <point x="59" y="437"/>
      <point x="59" y="254" type="curve" smooth="yes"/>
      <point x="59" y="83"/>
      <point x="131" y="-10"/>
    </contour>
    <contour>
      <point x="283" y="15" type="curve" smooth="yes"/>
      <point x="149" y="15"/>
      <point x="86" y="94"/>
      <point x="86" y="254" type="curve" smooth="yes"/>
      <point x="86" y="427"/>
      <point x="159" y="513"/>
      <point x="291" y="513" type="curve" smooth="yes"/>
      <point x="410" y="513"/>
      <point x="468" y="426"/>
      <point x="468" y="266" type="curve" smooth="yes"/>
      <point x="468" y="263" type="line" smooth="yes"/>
      <point x="468" y="107"/>
      <point x="416" y="15"/>
    </contour>
  </outline>
</glyph>
<glyph name="e" format="2">
  <advance width="540"/>
  <unicode hex="0065"/>
  <outline>
    <contour>
      <point x="296" y="-10" type="curve" smooth="yes"/>
      <point x="360" y="-10"/>
      <point x="408" y="0"/>
      <point x="459" y="23" type="curve"/>
      <point x="459" y="50" type="line"/>
      <point x="397" y="22"/>
      <point x="360" y="15"/>
      <point x="296" y="15" type="curve" smooth="yes"/>
      <point x="159" y="15"/>
      <point x="86" y="105"/>
      <point x="86" y="266" type="curve"/>
      <point x="479" y="266" type="line"/>
      <point x="479" y="291" type="line" smooth="yes"/>
      <point x="479" y="430"/>
      <point x="422" y="538"/>
      <point x="287" y="538" type="curve" smooth="yes"/>
      <point x="133" y="538"/>
      <point x="59" y="408"/>
      <point x="59" y="259" type="curve" smooth="yes"/>
      <point x="59" y="104"/>
      <point x="130" y="-10"/>
    </contour>
    <contour>
      <point x="87" y="291" type="line"/>
      <point x="99" y="436"/>
      <point x="175" y="513"/>
      <point x="287" y="513" type="curve" smooth="yes"/>
      <point x="399" y="513"/>
      <point x="452" y="424"/>
      <point x="452" y="291" type="curve"/>
    </contour>
  </outline>
</glyph>
<glyph name="f" format="2">
  <advance width="274"/>
  <unicode hex="0066"/>
  <outline>
    <contour>
      <point x="113" y="0" type="line"/>
      <point x="139" y="0" type="line"/>
      <point x="139" y="503" type="line"/>
      <point x="258" y="503" type="line"/>
      <point x="258" y="528" type="line"/>
      <point x="139" y="528" type="line"/>
      <point x="139" y="603" type="line" smooth="yes"/>
      <point x="139" y="701"/>
      <point x="172" y="740"/>
      <point x="257" y="740" type="curve" smooth="yes"/>
      <point x="282" y="740"/>
      <point x="311" y="736"/>
      <point x="335" y="727" type="curve"/>
      <point x="339" y="753" type="line"/>
      <point x="314" y="760"/>
      <point x="290" y="765"/>
      <point x="257" y="765" type="curve" smooth="yes"/>
      <point x="154" y="765"/>
      <point x="113" y="707"/>
      <point x="113" y="603" type="curve" smooth="yes"/>
      <point x="113" y="528" type="line"/>
      <point x="11" y="525" type="line"/>
      <point x="11" y="503" type="line"/>
      <point x="113" y="503" type="line"/>
    </contour>
  </outline>
</glyph>
<glyph name="g" format="2">
  <advance width="583"/>
  <unicode hex="0067"/>
  <outline>
    <contour>
      <point x="273" y="-240" type="curve" smooth="yes"/>
      <point x="433" y="-240"/>
      <point x="492" y="-152"/>
      <point x="492" y="-25" type="curve" smooth="yes"/>
      <point x="492" y="528" type="line"/>
      <point x="470" y="528" type="line"/>
      <point x="465" y="437" type="line"/>
      <point x="463" y="437" type="line"/>
      <point x="435" y="495"/>
      <point x="387" y="538"/>
      <point x="290" y="538" type="curve" smooth="yes"/>
      <point x="136" y="538"/>
      <point x="59" y="430"/>
      <point x="59" y="256" type="curve" smooth="yes"/>
      <point x="59" y="81"/>
      <point x="140" y="-10"/>
      <point x="276" y="-10" type="curve" smooth="yes"/>
      <point x="375" y="-10"/>
      <point x="442" y="34"/>
      <point x="466" y="117" type="curve"/>
      <point x="468" y="117" type="line"/>
      <point x="466" y="78"/>
      <point x="466" y="56"/>
      <point x="466" y="17" type="curve" smooth="yes"/>
      <point x="466" y="-25" type="line" smooth="yes"/>
      <point x="466" y="-140"/>
      <point x="414" y="-215"/>
      <point x="273" y="-215" type="curve" smooth="yes"/>
      <point x="198" y="-215"/>
      <point x="135" y="-196"/>
      <point x="87" y="-173" type="curve"/>
      <point x="87" y="-203" type="line"/>
      <point x="135" y="-223"/>
      <point x="192" y="-240"/>
    </contour>
    <contour>
      <point x="276" y="15" type="curve" smooth="yes"/>
      <point x="154" y="15"/>
      <point x="86" y="99"/>
      <point x="86" y="256" type="curve" smooth="yes"/>
      <point x="86" y="417"/>
      <point x="150" y="513"/>
      <point x="290" y="513" type="curve" smooth="yes"/>
      <point x="425" y="513"/>
      <point x="466" y="419"/>
      <point x="466" y="294" type="curve" smooth="yes"/>
      <point x="466" y="246" type="line" smooth="yes"/>
      <point x="466" y="136"/>
      <point x="432" y="15"/>
    </contour>
  </outline>
</glyph>
<glyph name="i" format="2">
  <advance width="207"/>
  <unicode hex="0069"/>
  <outline>
    <contour>
      <point x="90" y="0" type="line"/>
      <point x="116" y="0" type="line"/>
      <point x="116" y="528" type="line"/>
      <point x="90" y="528" type="line"/>
    </contour>
    <contour>
      <point x="103" y="659" type="curve" smooth="yes"/>
      <point x="127" y="659"/>
      <point x="130" y="673"/>
      <point x="130" y="690" type="curve" smooth="yes"/>
      <point x="130" y="706"/>
      <point x="127" y="721"/>
      <point x="103" y="721" type="curve" smooth="yes"/>
      <point x="83" y="721"/>
      <point x="78" y="706"/>
      <point x="78" y="690" type="curve" smooth="yes"/>
      <point x="78" y="673"/>
      <point x="83" y="659"/>
    </contour>
  </outline>
</glyph>
<glyph name="j" format="2">
  <advance width="207"/>
  <unicode hex="006A"/>
  <outline>
    <contour>
      <point x="11" y="-240" type="curve" smooth="yes"/>
      <point x="68" y="-240"/>
      <point x="116" y="-201"/>
      <point x="116" y="-120" type="curve" smooth="yes"/>
      <point x="116" y="528" type="line"/>
      <point x="90" y="528" type="line"/>
      <point x="90" y="-116" type="line" smooth="yes"/>
      <point x="90" y="-178"/>
      <point x="64" y="-215"/>
      <point x="11" y="-215" type="curve" smooth="yes"/>
      <point x="-9" y="-215"/>
      <point x="-30" y="-213"/>
      <point x="-50" y="-204" type="curve"/>
      <point x="-50" y="-230" type="line"/>
      <point x="-34" y="-236"/>
      <point x="-14" y="-240"/>
    </contour>
    <contour>
      <point x="103" y="659" type="curve" smooth="yes"/>
      <point x="127" y="659"/>
      <point x="130" y="673"/>
      <point x="130" y="690" type="curve" smooth="yes"/>
      <point x="130" y="706"/>
      <point x="127" y="721"/>
      <point x="103" y="721" type="curve" smooth="yes"/>
      <point x="83" y="721"/>
      <point x="78" y="706"/>
      <point x="78" y="690" type="curve" smooth="yes"/>
      <point x="78" y="673"/>
      <point x="83" y="659"/>
    </contour>
  </outline>
</glyph>
<glyph name="k" format="2">
  <advance width="454"/>
  <unicode hex="006B"/>
  <outline>
    <contour>
      <point x="90" y="0" type="line"/>
      <point x="116" y="0" type="line"/>
      <point x="116" y="172" type="line"/>
      <point x="216" y="283" type="line"/>
      <point x="428" y="0" type="line"/>
      <point x="459" y="0" type="line"/>
      <point x="234" y="301" type="line"/>
      <point x="439" y="528" type="line"/>
      <point x="405" y="528" type="line"/>
      <point x="172" y="268" type="line" smooth="yes"/>
      <point x="150" y="244"/>
      <point x="137" y="229"/>
      <point x="114" y="203" type="curve"/>
      <point x="115" y="203" type="line"/>
      <point x="116" y="267"/>
      <point x="116" y="321"/>
      <point x="116" y="385" type="curve" smooth="yes"/>
      <point x="116" y="760" type="line"/>
      <point x="90" y="760" type="line"/>
    </contour>
  </outline>
</glyph>
<glyph name="l" format="2">
  <advance width="207"/>
  <unicode hex="006C"/>
  <outline>
    <contour>
      <point x="91" y="0" type="line"/>
      <point x="117" y="0" type="line"/>
      <point x="117" y="760" type="line"/>
      <point x="91" y="760" type="line"/>
    </contour>
  </outline>
</glyph>
<glyph name="m" format="2">
  <advance width="852"/>
  <unicode hex="006D"/>
  <outline>
    <contour>
      <point x="90" y="0" type="line"/>
      <point x="116" y="0" type="line"/>
      <point x="116" y="325" type="line" smooth="yes"/>
      <point x="116" y="459"/>
      <point x="194" y="513"/>
      <point x="287" y="513" type="curve" smooth="yes"/>
      <point x="360" y="513"/>
      <point x="417" y="467"/>
      <point x="417" y="360" type="curve" smooth="yes"/>
      <point x="417" y="0" type="line"/>
      <point x="443" y="0" type="line"/>
      <point x="443" y="325" type="line" smooth="yes"/>
      <point x="443" y="459"/>
      <point x="514" y="513"/>
      <point x="614" y="513" type="curve" smooth="yes"/>
      <point x="687" y="513"/>
      <point x="744" y="467"/>
      <point x="744" y="360" type="curve" smooth="yes"/>
      <point x="744" y="0" type="line"/>
      <point x="770" y="0" type="line"/>
      <point x="770" y="361" type="line" smooth="yes"/>
      <point x="770" y="482"/>
      <point x="704" y="538"/>
      <point x="614" y="538" type="curve" smooth="yes"/>
      <point x="519" y="538"/>
      <point x="460" y="494"/>
      <point x="435" y="429" type="curve"/>
      <point x="433" y="429" type="line"/>
      <point x="415" y="500"/>
      <point x="360" y="538"/>
      <point x="287" y="538" type="curve" smooth="yes"/>
      <point x="185" y="538"/>
      <point x="138" y="481"/>
      <point x="117" y="432" type="curve"/>
      <point x="115" y="432" type="line"/>
      <point x="111" y="528" type="line"/>
      <point x="90" y="528" type="line"/>
    </contour>
  </outline>
</glyph>
<glyph name="o" format="2">
  <advance width="575"/>
  <unicode hex="006F"/>
  <outline>
    <contour>
      <point x="286" y="-10" type="curve" smooth="yes"/>
      <point x="443" y="-10"/>
      <point x="515" y="109"/>
      <point x="515" y="264" type="curve" smooth="yes"/>
      <point x="515" y="417"/>
      <point x="451" y="538"/>
      <point x="292" y="538" type="curve" smooth="yes"/>
      <point x="145" y="538"/>
      <point x="59" y="432"/>
      <point x="59" y="264" type="curve" smooth="yes"/>
      <point x="59" y="107"/>
      <point x="134" y="-10"/>
    </contour>
    <contour>
      <point x="286" y="15" type="curve" smooth="yes"/>
      <point x="151" y="15"/>
      <point x="86" y="117"/>
      <point x="86" y="264" type="curve" smooth="yes"/>
      <point x="86" y="420"/>
      <point x="160" y="513"/>
      <point x="292" y="513" type="curve" smooth="yes"/>
      <point x="433" y="513"/>
      <point x="488" y="402"/>
      <point x="488" y="264" type="curve" smooth="yes"/>
      <point x="488" y="119"/>
      <point x="426" y="15"/>
    </contour>
  </outline>
</glyph>
<glyph name="p" format="2">
  <advance width="583"/>
  <unicode hex="0070"/>
  <outline>
    <contour>
      <point x="91" y="-232" type="line"/>
      <point x="117" y="-232" type="line"/>
      <point x="117" y="-15" type="line" smooth="yes"/>
      <point x="117" y="27"/>
      <point x="117" y="71"/>
      <point x="115" y="116" type="curve"/>
      <point x="117" y="116" type="line"/>
      <point x="139" y="46"/>
      <point x="198" y="-10"/>
      <point x="303" y="-10" type="curve" smooth="yes"/>
      <point x="444" y="-10"/>
      <point x="526" y="91"/>
      <point x="526" y="269" type="curve" smooth="yes"/>
      <point x="526" y="445"/>
      <point x="453" y="538"/>
      <point x="313" y="538" type="curve" smooth="yes"/>
      <point x="203" y="538"/>
      <point x="139" y="472"/>
      <point x="117" y="402" type="curve"/>
      <point x="115" y="402" type="line"/>
      <point x="113" y="528" type="line"/>
      <point x="91" y="528" type="line"/>
    </contour>
    <contour>
      <point x="303" y="15" type="curve" smooth="yes"/>
      <point x="189" y="15"/>
      <point x="117" y="92"/>
      <point x="117" y="262" type="curve" smooth="yes"/>
      <point x="117" y="265" type="line" smooth="yes"/>
      <point x="117" y="421"/>
      <point x="185" y="513"/>
      <point x="313" y="513" type="curve" smooth="yes"/>
      <point x="435" y="513"/>
      <point x="499" y="434"/>
      <point x="499" y="269" type="curve" smooth="yes"/>
      <point x="499" y="101"/>
      <point x="426" y="15"/>
    </contour>
  </outline>
</glyph>
<glyph name="q" format="2">
  <advance width="583"/>
  <unicode hex="0071"/>
  <outline>
    <contour>
      <point x="465" y="-232" type="line"/>
      <point x="491" y="-232" type="line"/>
      <point x="491" y="528" type="line"/>
      <point x="469" y="528" type="line"/>
      <point x="465" y="424" type="line"/>
      <point x="463" y="424" type="line"/>
      <point x="440" y="487"/>
      <point x="380" y="538"/>
      <point x="285" y="538" type="curve" smooth="yes"/>
      <point x="124" y="538"/>
      <point x="56" y="414"/>
      <point x="56" y="262" type="curve" smooth="yes"/>
      <point x="56" y="84"/>
      <point x="129" y="-11"/>
      <point x="269" y="-11" type="curve" smooth="yes"/>
      <point x="370" y="-11"/>
      <point x="443" y="45"/>
      <point x="465" y="122" type="curve"/>
      <point x="467" y="122" type="line"/>
      <point x="466" y="89"/>
      <point x="465" y="35"/>
      <point x="465" y="3" type="curve" smooth="yes"/>
    </contour>
    <contour>
      <point x="269" y="14" type="curve" smooth="yes"/>
      <point x="145" y="14"/>
      <point x="83" y="98"/>
      <point x="83" y="262" type="curve" smooth="yes"/>
      <point x="83" y="422"/>
      <point x="153" y="513"/>
      <point x="285" y="513" type="curve" smooth="yes"/>
      <point x="406" y="513"/>
      <point x="465" y="430"/>
      <point x="465" y="275" type="curve" smooth="yes"/>
      <point x="465" y="265" type="line" smooth="yes"/>
      <point x="465" y="109"/>
      <point x="404" y="14"/>
    </contour>
  </outline>
</glyph>
<glyph name="r" format="2">
  <advance width="375"/>
  <unicode hex="0072"/>
  <outline>
    <contour>
      <point x="91" y="0" type="line"/>
      <point x="117" y="0" type="line"/>
      <point x="117" y="297" type="line" smooth="yes"/>
      <point x="117" y="428"/>
      <point x="167" y="511"/>
      <point x="278" y="511" type="curve" smooth="yes"/>
      <point x="308" y="511"/>
      <point x="328" y="508"/>
      <point x="353" y="501" type="curve"/>
      <point x="359" y="525" type="line"/>
      <point x="335" y="532"/>
      <point x="310" y="536"/>
      <point x="278" y="536" type="curve" smooth="yes"/>
      <point x="193" y="536"/>
      <point x="138" y="488"/>
      <point x="119" y="427" type="curve"/>
      <point x="117" y="427" type="line"/>
      <point x="115" y="528" type="line"/>
      <point x="91" y="528" type="line"/>
    </contour>
  </outline>
</glyph>
<glyph name="s" format="2">
  <advance width="458"/>
  <unicode hex="0073"/>
  <outline>
    <contour>
      <point x="213" y="-10" type="curve" smooth="yes"/>
      <point x="345" y="-10"/>
      <point x="411" y="45"/>
      <point x="411" y="134" type="curve" smooth="yes"/>
      <point x="411" y="235"/>
      <point x="321" y="258"/>
      <point x="233" y="286" type="curve" smooth="yes"/>
      <point x="152" y="312"/>
      <point x="83" y="325"/>
      <point x="83" y="407" type="curve" smooth="yes"/>
      <point x="83" y="478"/>
      <point x="142" y="513"/>
      <point x="238" y="513" type="curve" smooth="yes"/>
      <point x="291" y="513"/>
      <point x="350" y="501"/>
      <point x="387" y="483" type="curve"/>
      <point x="398" y="508" type="line"/>
      <point x="356" y="525"/>
      <point x="301" y="538"/>
      <point x="238" y="538" type="curve" smooth="yes"/>
      <point x="126" y="538"/>
      <point x="56" y="489"/>
      <point x="56" y="407" type="curve" smooth="yes"/>
      <point x="56" y="309"/>
      <point x="131" y="290"/>
      <point x="224" y="262" type="curve" smooth="yes"/>
      <point x="312" y="236"/>
      <point x="384" y="212"/>
      <point x="384" y="134" type="curve" smooth="yes"/>
      <point x="384" y="60"/>
      <point x="334" y="15"/>
      <point x="213" y="15" type="curve" smooth="yes"/>
      <point x="151" y="15"/>
      <point x="92" y="28"/>
      <point x="39" y="54" type="curve"/>
      <point x="39" y="24" type="line"/>
      <point x="77" y="7"/>
      <point x="140" y="-10"/>
    </contour>
  </outline>
</glyph>
<glyph name="u" format="2">
  <advance width="573"/>
  <unicode hex="0075"/>
  <outline>
    <contour>
      <point x="262" y="-10" type="curve" smooth="yes"/>
      <point x="374" y="-10"/>
      <point x="431" y="50"/>
      <point x="454" y="111" type="curve"/>
      <point x="456" y="111" type="line"/>
      <point x="460" y="0" type="line"/>
      <point x="481" y="0" type="line"/>
      <point x="481" y="528" type="line"/>
      <point x="455" y="528" type="line"/>
      <point x="455" y="226" type="line" smooth="yes"/>
      <point x="455" y="82"/>
      <point x="377" y="15"/>
      <point x="262" y="15" type="curve" smooth="yes"/>
      <point x="163" y="15"/>
      <point x="108" y="68"/>
      <point x="108" y="186" type="curve" smooth="yes"/>
      <point x="108" y="528" type="line"/>
      <point x="82" y="528" type="line"/>
      <point x="82" y="182" type="line" smooth="yes"/>
      <point x="82" y="57"/>
      <point x="144" y="-10"/>
    </contour>
  </outline>
</glyph>
<glyph name="v" format="2">
  <advance width="430"/>
  <unicode hex="0076"/>
  <outline>
    <contour>
      <point x="204" y="0" type="line"/>
      <point x="226" y="0" type="line"/>
      <point x="430" y="528" type="line"/>
      <point x="403" y="528" type="line"/>
      <point x="253" y="138" type="line" smooth="yes"/>
      <point x="236" y="95"/>
      <point x="228" y="69"/>
      <point x="216" y="36" type="curve"/>
      <point x="214" y="36" type="line"/>
      <point x="203" y="69"/>
      <point x="194" y="95"/>
      <point x="177" y="138" type="curve" smooth="yes"/>
      <point x="27" y="528" type="line"/>
      <point x="0" y="528" type="line"/>
    </contour>
  </outline>
</glyph>
<glyph name="w" format="2">
  <advance width="685"/>
  <unicode hex="0077"/>
  <outline>
    <contour>
      <point x="169" y="-1" type="line"/>
      <point x="191" y="-1" type="line"/>
      <point x="320" y="388" type="line" smooth="yes"/>
      <point x="331" y="420"/>
      <point x="339" y="446"/>
      <point x="349" y="482" type="curve"/>
      <point x="351" y="482" type="line"/>
      <point x="361" y="446"/>
      <point x="369" y="423"/>
      <point x="380" y="388" type="curve" smooth="yes"/>
      <point x="506" y="-1" type="line"/>
      <point x="528" y="-1" type="line"/>
      <point x="669" y="527" type="line"/>
      <point x="643" y="527" type="line"/>
      <point x="544" y="156" type="line" smooth="yes"/>
      <point x="529" y="99"/>
      <point x="521" y="72"/>
      <point x="517" y="41" type="curve"/>
      <point x="515" y="41" type="line"/>
      <point x="507" y="72"/>
      <point x="497" y="106"/>
      <point x="481" y="157" type="curve" smooth="yes"/>
      <point x="362" y="527" type="line"/>
      <point x="341" y="527" type="line"/>
      <point x="216" y="156" type="line" smooth="yes"/>
      <point x="196" y="95"/>
      <point x="190" y="72"/>
      <point x="182" y="41" type="curve"/>
      <point x="180" y="41" type="line"/>
      <point x="173" y="72"/>
      <point x="167" y="95"/>
      <point x="150" y="156" type="curve" smooth="yes"/>
      <point x="45" y="527" type="line"/>
      <point x="16" y="527" type="line"/>
    </contour>
  </outline>
</glyph>
<glyph name="x" format="2">
  <advance width="479"/>
  <unicode hex="0078"/>
  <outline>
    <contour>
      <point x="26" y="0" type="line"/>
      <point x="57" y="0" type="line"/>
      <point x="236" y="253" type="line"/>
      <point x="417" y="0" type="line"/>
      <point x="449" y="0" type="line"/>
      <point x="254" y="272" type="line"/>
      <point x="437" y="528" type="line"/>
      <point x="405" y="528" type="line"/>
      <point x="236" y="290" type="line"/>
      <point x="67" y="528" type="line"/>
      <point x="34" y="528" type="line"/>
      <point x="219" y="272" type="line"/>
    </contour>
  </outline>
</glyph>
<glyph name="y" format="2">
  <advance width="428"/>
  <unicode hex="0079"/>
  <outline>
    <contour>
      <point x="48" y="-243" type="curve" smooth="yes"/>
      <point x="113" y="-243"/>
      <point x="147" y="-202"/>
      <point x="181" y="-115" type="curve" smooth="yes"/>
      <point x="430" y="528" type="line"/>
      <point x="403" y="528" type="line"/>
      <point x="264" y="168" type="line" smooth="yes"/>
      <point x="241" y="108"/>
      <point x="226" y="66"/>
      <point x="216" y="37" type="curve"/>
      <point x="214" y="37" type="line"/>
      <point x="204" y="65"/>
      <point x="189" y="108"/>
      <point x="164" y="172" type="curve" smooth="yes"/>
      <point x="27" y="528" type="line"/>
      <point x="0" y="528" type="line"/>
      <point x="201" y="6" type="line"/>
      <point x="160" y="-102" type="line" smooth="yes"/>
      <point x="128" y="-187"/>
      <point x="99" y="-218"/>
      <point x="48" y="-218" type="curve" smooth="yes"/>
      <point x="27" y="-218"/>
      <point x="13" y="-214"/>
      <point x="-6" y="-207" type="curve"/>
      <point x="-6" y="-233" type="line"/>
      <point x="13" y="-240"/>
      <point x="29" y="-243"/>
    </contour>
  </outline>
</glyph>
<glyph name="z" format="2">
  <advance width="456"/>
  <unicode hex="007A"/>
  <outline>
    <contour>
      <point x="41" y="0" type="line"/>
      <point x="412" y="0" type="line"/>
      <point x="412" y="25" type="line"/>
      <point x="77" y="25" type="line"/>
      <point x="415" y="513" type="line"/>
      <point x="415" y="528" type="line"/>
      <point x="68" y="528" type="line"/>
      <point x="68" y="503" type="line"/>
      <point x="377" y="503" type="line"/>
      <point x="41" y="17" type="line"/>
    </contour>
  </outline>
</glyph>
<glyph name="enclosingcirclecomb" format="2">
  <unicode hex="20DD"/>
  <note>
uni20DD
</note>
  <outline>
    <contour>
      <point x="0" y="-292" type="curve" smooth="yes"/>
      <point x="359" y="-292"/>
      <point x="650" y="-1"/>
      <point x="650" y="358" type="curve" smooth="yes"/>
      <point x="650" y="717"/>
      <point x="359" y="1008"/>
      <point x="0" y="1008" type="curve" smooth="yes"/>
      <point x="-359" y="1008"/>
      <point x="-650" y="717"/>
      <point x="-650" y="358" type="curve" smooth="yes"/>
      <point x="-650" y="-1"/>
      <point x="-359" y="-292"/>
    </contour>
    <contour>
      <point x="0" y="-266" type="curve" smooth="yes"/>
      <point x="-345" y="-266"/>
      <point x="-624" y="13"/>
      <point x="-624" y="358" type="curve" smooth="yes"/>
      <point x="-624" y="703"/>
      <point x="-345" y="982"/>
      <point x="0" y="982" type="curve" smooth="yes"/>
      <point x="345" y="982"/>
      <point x="624" y="703"/>
      <point x="624" y="358" type="curve" smooth="yes"/>
      <point x="624" y="13"/>
      <point x="345" y="-266"/>
    </contour>
  </outline>
</glyph>
<glyph name="enclosingcirclebackslashcomb" format="2">
  <unicode hex="20E0"/>
  <note>
uni20E0
</note>
  <outline>
    <contour>
      <point x="441" y="-101" type="line"/>
      <point x="459" y="-83" type="line"/>
      <point x="-441" y="817" type="line"/>
      <point x="-459" y="799" type="line"/>
    </contour>
    <contour>
      <point x="0" y="-292" type="curve" smooth="yes"/>
      <point x="359" y="-292"/>
      <point x="650" y="-1"/>
      <point x="650" y="358" type="curve" smooth="yes"/>
      <point x="650" y="717"/>
      <point x="359" y="1008"/>
      <point x="0" y="1008" type="curve" smooth="yes"/>
      <point x="-359" y="1008"/>
      <point x="-650" y="717"/>
      <point x="-650" y="358" type="curve" smooth="yes"/>
      <point x="-650" y="-1"/>
      <point x="-359" y="-292"/>
    </contour>
    <contour>
      <point x="0" y="-266" type="curve" smooth="yes"/>
      <point x="-345" y="-266"/>
      <point x="-624" y="13"/>
      <point x="-624" y="358" type="curve" smooth="yes"/>
      <point x="-624" y="703"/>
      <point x="-345" y="982"/>
      <point x="0" y="982" type="curve" smooth="yes"/>
      <point x="345" y="982"/>
      <point x="624" y="703"/>
      <point x="624" y="358" type="curve" smooth="yes"/>
      <point x="624" y="13"/>
      <point x="345" y="-266"/>
    </contour>
  </outline>
</glyph>
<glyph name="enclosingscreencomb" format="2">
  <unicode hex="20E2"/>
  <note>
uni20E2
</note>
  <outline>
    <contour>
      <point x="-1" y="-293" type="curve" smooth="yes"/>
      <point x="387" y="-293"/>
      <point x="782" y="-257"/>
      <point x="975" y="-208" type="curve"/>
      <point x="1043" y="2"/>
      <point x="1067" y="154"/>
      <point x="1067" y="387" type="curve" smooth="yes"/>
      <point x="1067" y="620"/>
      <point x="1043" y="773"/>
      <point x="975" y="984" type="curve"/>
      <point x="782" y="1033"/>
      <point x="385" y="1069"/>
      <point x="-2" y="1069" type="curve" smooth="yes"/>
      <point x="-389" y="1069"/>
      <point x="-784" y="1033"/>
      <point x="-977" y="984" type="curve"/>
      <point x="-1042" y="777"/>
      <point x="-1067" y="615"/>
      <point x="-1067" y="387" type="curve" smooth="yes"/>
      <point x="-1067" y="169"/>
      <point x="-1043" y="16"/>
      <point x="-977" y="-208" type="curve"/>
      <point x="-789" y="-257"/>
      <point x="-390" y="-293"/>
    </contour>
    <contour>
      <point x="-1" y="-267" type="curve" smooth="yes"/>
      <point x="-356" y="-267"/>
      <point x="-794" y="-228"/>
      <point x="-954" y="-187" type="curve"/>
      <point x="-1004" y="-59"/>
      <point x="-1041" y="149"/>
      <point x="-1041" y="387" type="curve" smooth="yes"/>
      <point x="-1041" y="631"/>
      <point x="-1006" y="822"/>
      <point x="-954" y="962" type="curve"/>
      <point x="-760" y="1005"/>
      <point x="-354" y="1043"/>
      <point x="-1" y="1043" type="curve" smooth="yes"/>
      <point x="360" y="1043"/>
      <point x="763" y="1005"/>
      <point x="955" y="962" type="curve"/>
      <point x="1010" y="795"/>
      <point x="1041" y="608"/>
      <point x="1041" y="387" type="curve" smooth="yes"/>
      <point x="1041" y="153"/>
      <point x="1006" y="-38"/>
      <point x="955" y="-187" type="curve"/>
      <point x="792" y="-227"/>
      <point x="360" y="-267"/>
    </contour>
  </outline>
</glyph>
<glyph name="enclosingkeycapcomb" format="2">
  <unicode hex="20E3"/>
  <note>
uni20E3
</note>
  <outline>
    <contour>
      <point x="-335" y="-10" type="curve" smooth="yes"/>
      <point x="336" y="-10" type="line" smooth="yes"/>
      <point x="388" y="-10"/>
      <point x="422" y="24"/>
      <point x="422" y="76" type="curve" smooth="yes"/>
      <point x="422" y="746" type="line" smooth="yes"/>
      <point x="422" y="798"/>
      <point x="388" y="832"/>
      <point x="336" y="832" type="curve" smooth="yes"/>
      <point x="-335" y="832" type="line" smooth="yes"/>
      <point x="-387" y="832"/>
      <point x="-422" y="798"/>
      <point x="-422" y="746" type="curve" smooth="yes"/>
      <point x="-422" y="76" type="line" smooth="yes"/>
      <point x="-422" y="24"/>
      <point x="-387" y="-10"/>
    </contour>
    <contour>
      <point x="-228" y="76" type="line" smooth="yes"/>
      <point x="-285" y="76"/>
      <point x="-308" y="98"/>
      <point x="-308" y="155" type="curve" smooth="yes"/>
      <point x="-308" y="666" type="line" smooth="yes"/>
      <point x="-308" y="723"/>
      <point x="-286" y="746"/>
      <point x="-228" y="746" type="curve" smooth="yes"/>
      <point x="230" y="746" type="line" smooth="yes"/>
      <point x="288" y="746"/>
      <point x="309" y="725"/>
      <point x="309" y="666" type="curve" smooth="yes"/>
      <point x="309" y="155" type="line" smooth="yes"/>
      <point x="309" y="96"/>
      <point x="289" y="76"/>
      <point x="230" y="76" type="curve" smooth="yes"/>
    </contour>
    <contour>
      <point x="401" y="51" type="line"/>
      <point x="346" y="78" type="line"/>
      <point x="346" y="680" type="line" smooth="yes"/>
      <point x="346" y="759"/>
      <point x="328" y="779"/>
      <point x="249" y="779" type="curve" smooth="yes"/>
      <point x="-319" y="779" type="line"/>
      <point x="-358" y="812" type="line"/>
      <point x="327" y="812" type="line" smooth="yes"/>
      <point x="374" y="812"/>
      <point x="401" y="779"/>
      <point x="401" y="733" type="curve" smooth="yes"/>
    </contour>
  </outline>
</glyph>
<glyph name="One-roman" format="2">
  <advance width="206"/>
  <unicode hex="2160"/>
  <outline>
    <contour>
      <point x="21" y="0" type="line"/>
      <point x="185" y="0" type="line"/>
      <point x="185" y="20" type="line"/>
      <point x="116" y="23" type="line"/>
      <point x="116" y="695" type="line"/>
      <point x="185" y="699" type="line"/>
      <point x="185" y="719" type="line"/>
      <point x="21" y="719" type="line"/>
      <point x="21" y="699" type="line"/>
      <point x="90" y="695" type="line"/>
      <point x="90" y="23" type="line"/>
      <point x="21" y="20" type="line"/>
    </contour>
  </outline>
</glyph>
<glyph name="Two-roman" format="2">
  <advance width="395"/>
  <unicode hex="2161"/>
  <outline>
    <contour>
      <point x="21" y="0" type="line"/>
      <point x="185" y="0" type="line"/>
      <point x="185" y="20" type="line"/>
      <point x="116" y="23" type="line"/>
      <point x="116" y="695" type="line"/>
      <point x="185" y="699" type="line"/>
      <point x="185" y="719" type="line"/>
      <point x="21" y="719" type="line"/>
      <point x="21" y="699" type="line"/>
      <point x="90" y="695" type="line"/>
      <point x="90" y="23" type="line"/>
      <point x="21" y="20" type="line"/>
    </contour>
    <contour>
      <point x="211" y="0" type="line"/>
      <point x="374" y="0" type="line"/>
      <point x="374" y="20" type="line"/>
      <point x="306" y="23" type="line"/>
      <point x="306" y="695" type="line"/>
      <point x="374" y="699" type="line"/>
      <point x="374" y="719" type="line"/>
      <point x="211" y="719" type="line"/>
      <point x="211" y="699" type="line"/>
      <point x="279" y="695" type="line"/>
      <point x="279" y="23" type="line"/>
      <point x="211" y="20" type="line"/>
    </contour>
  </outline>
</glyph>
<glyph name="Three-roman" format="2">
  <advance width="584"/>
  <unicode hex="2162"/>
  <outline>
    <contour>
      <point x="400" y="0" type="line"/>
      <point x="563" y="0" type="line"/>
      <point x="563" y="20" type="line"/>
      <point x="495" y="23" type="line"/>
      <point x="495" y="695" type="line"/>
      <point x="563" y="699" type="line"/>
      <point x="563" y="719" type="line"/>
      <point x="400" y="719" type="line"/>
      <point x="400" y="699" type="line"/>
      <point x="469" y="695" type="line"/>
      <point x="469" y="23" type="line"/>
      <point x="400" y="20" type="line"/>
    </contour>
    <contour>
      <point x="21" y="0" type="line"/>
      <point x="185" y="0" type="line"/>
      <point x="185" y="20" type="line"/>
      <point x="116" y="23" type="line"/>
      <point x="116" y="695" type="line"/>
      <point x="185" y="699" type="line"/>
      <point x="185" y="719" type="line"/>
      <point x="21" y="719" type="line"/>
      <point x="21" y="699" type="line"/>
      <point x="90" y="695" type="line"/>
      <point x="90" y="23" type="line"/>
      <point x="21" y="20" type="line"/>
    </contour>
    <contour>
      <point x="211" y="0" type="line"/>
      <point x="374" y="0" type="line"/>
      <point x="374" y="20" type="line"/>
      <point x="306" y="23" type="line"/>
      <point x="306" y="695" type="line"/>
      <point x="374" y="699" type="line"/>
      <point x="374" y="719" type="line"/>
      <point x="211" y="719" type="line"/>
      <point x="211" y="699" type="line"/>
      <point x="279" y="695" type="line"/>
      <point x="279" y="23" type="line"/>
      <point x="211" y="20" type="line"/>
    </contour>
  </outline>
</glyph>
<glyph name="Four-roman" format="2">
  <advance width="781"/>
  <unicode hex="2163"/>
  <outline>
    <contour>
      <point x="480" y="0" type="line"/>
      <point x="505" y="0" type="line"/>
      <point x="776" y="719" type="line"/>
      <point x="748" y="719" type="line"/>
      <point x="531" y="144" type="line" smooth="yes"/>
      <point x="514" y="99"/>
      <point x="503" y="67"/>
      <point x="493" y="37" type="curve"/>
      <point x="483" y="67"/>
      <point x="469" y="106"/>
      <point x="455" y="144" type="curve" smooth="yes"/>
      <point x="237" y="719" type="line"/>
      <point x="209" y="719" type="line"/>
    </contour>
    <contour>
      <point x="21" y="0" type="line"/>
      <point x="185" y="0" type="line"/>
      <point x="185" y="20" type="line"/>
      <point x="116" y="23" type="line"/>
      <point x="116" y="695" type="line"/>
      <point x="185" y="699" type="line"/>
      <point x="185" y="719" type="line"/>
      <point x="21" y="719" type="line"/>
      <point x="21" y="699" type="line"/>
      <point x="90" y="695" type="line"/>
      <point x="90" y="23" type="line"/>
      <point x="21" y="20" type="line"/>
    </contour>
  </outline>
</glyph>
<glyph name="Five-roman" format="2">
  <advance width="577"/>
  <unicode hex="2164"/>
  <outline>
    <contour>
      <point x="276" y="0" type="line"/>
      <point x="301" y="0" type="line"/>
      <point x="572" y="719" type="line"/>
      <point x="543" y="719" type="line"/>
      <point x="327" y="144" type="line" smooth="yes"/>
      <point x="310" y="99"/>
      <point x="299" y="67"/>
      <point x="289" y="37" type="curve"/>
      <point x="279" y="67"/>
      <point x="264" y="106"/>
      <point x="250" y="144" type="curve" smooth="yes"/>
      <point x="33" y="719" type="line"/>
      <point x="5" y="719" type="line"/>
    </contour>
  </outline>
</glyph>
<glyph name="Eight-roman" format="2">
  <advance width="1159"/>
  <unicode hex="2167"/>
  <outline>
    <contour>
      <point x="276" y="0" type="line"/>
      <point x="301" y="0" type="line"/>
      <point x="572" y="719" type="line"/>
      <point x="543" y="719" type="line"/>
      <point x="327" y="144" type="line" smooth="yes"/>
      <point x="310" y="99"/>
      <point x="299" y="67"/>
      <point x="289" y="37" type="curve"/>
      <point x="279" y="67"/>
      <point x="264" y="106"/>
      <point x="250" y="144" type="curve" smooth="yes"/>
      <point x="33" y="719" type="line"/>
      <point x="5" y="719" type="line"/>
    </contour>
    <contour>
      <point x="596" y="0" type="line"/>
      <point x="759" y="0" type="line"/>
      <point x="759" y="20" type="line"/>
      <point x="691" y="23" type="line"/>
      <point x="691" y="695" type="line"/>
      <point x="759" y="699" type="line"/>
      <point x="759" y="719" type="line"/>
      <point x="596" y="719" type="line"/>
      <point x="596" y="699" type="line"/>
      <point x="665" y="695" type="line"/>
      <point x="665" y="23" type="line"/>
      <point x="596" y="20" type="line"/>
    </contour>
    <contour>
      <point x="786" y="0" type="line"/>
      <point x="949" y="0" type="line"/>
      <point x="949" y="20" type="line"/>
      <point x="880" y="23" type="line"/>
      <point x="880" y="695" type="line"/>
      <point x="949" y="699" type="line"/>
      <point x="949" y="719" type="line"/>
      <point x="786" y="719" type="line"/>
      <point x="786" y="699" type="line"/>
      <point x="854" y="695" type="line"/>
      <point x="854" y="23" type="line"/>
      <point x="786" y="20" type="line"/>
    </contour>
    <contour>
      <point x="975" y="0" type="line"/>
      <point x="1138" y="0" type="line"/>
      <point x="1138" y="20" type="line"/>
      <point x="1070" y="23" type="line"/>
      <point x="1070" y="695" type="line"/>
      <point x="1138" y="699" type="line"/>
      <point x="1138" y="719" type="line"/>
      <point x="975" y="719" type="line"/>
      <point x="975" y="699" type="line"/>
      <point x="1043" y="695" type="line"/>
      <point x="1043" y="23" type="line"/>
      <point x="975" y="20" type="line"/>
    </contour>
  </outline>
</glyph>
<glyph name="Nine-roman" format="2">
  <advance width="735"/>
  <unicode hex="2168"/>
  <outline>
    <contour>
      <point x="211" y="0" type="line"/>
      <point x="242" y="0" type="line"/>
      <point x="472" y="353" type="line"/>
      <point x="699" y="0" type="line"/>
      <point x="730" y="0" type="line"/>
      <point x="490" y="373" type="line"/>
      <point x="712" y="719" type="line"/>
      <point x="681" y="719" type="line"/>
      <point x="473" y="393" type="line"/>
      <point x="268" y="719" type="line"/>
      <point x="236" y="719" type="line"/>
      <point x="455" y="373" type="line"/>
    </contour>
    <contour>
      <point x="21" y="0" type="line"/>
      <point x="185" y="0" type="line"/>
      <point x="185" y="20" type="line"/>
      <point x="116" y="23" type="line"/>
      <point x="116" y="695" type="line"/>
      <point x="185" y="699" type="line"/>
      <point x="185" y="719" type="line"/>
      <point x="21" y="719" type="line"/>
      <point x="21" y="699" type="line"/>
      <point x="90" y="695" type="line"/>
      <point x="90" y="23" type="line"/>
      <point x="21" y="20" type="line"/>
    </contour>
  </outline>
</glyph>
<glyph name="Ten-roman" format="2">
  <advance width="529"/>
  <unicode hex="2169"/>
  <outline>
    <contour>
      <point x="5" y="0" type="line"/>
      <point x="36" y="0" type="line"/>
      <point x="266" y="353" type="line"/>
      <point x="493" y="0" type="line"/>
      <point x="524" y="0" type="line"/>
      <point x="284" y="373" type="line"/>
      <point x="506" y="719" type="line"/>
      <point x="475" y="719" type="line"/>
      <point x="267" y="393" type="line"/>
      <point x="62" y="719" type="line"/>
      <point x="30" y="719" type="line"/>
      <point x="249" y="373" type="line"/>
    </contour>
  </outline>
</glyph>
<glyph name="Eleven-roman" format="2">
  <advance width="734"/>
  <unicode hex="216A"/>
  <outline>
    <contour>
      <point x="5" y="0" type="line"/>
      <point x="36" y="0" type="line"/>
      <point x="266" y="353" type="line"/>
      <point x="493" y="0" type="line"/>
      <point x="524" y="0" type="line"/>
      <point x="284" y="373" type="line"/>
      <point x="506" y="719" type="line"/>
      <point x="475" y="719" type="line"/>
      <point x="267" y="393" type="line"/>
      <point x="62" y="719" type="line"/>
      <point x="30" y="719" type="line"/>
      <point x="249" y="373" type="line"/>
    </contour>
    <contour>
      <point x="550" y="0" type="line"/>
      <point x="713" y="0" type="line"/>
      <point x="713" y="20" type="line"/>
      <point x="645" y="23" type="line"/>
      <point x="645" y="695" type="line"/>
      <point x="713" y="699" type="line"/>
      <point x="713" y="719" type="line"/>
      <point x="550" y="719" type="line"/>
      <point x="550" y="699" type="line"/>
      <point x="619" y="695" type="line"/>
      <point x="619" y="23" type="line"/>
      <point x="550" y="20" type="line"/>
    </contour>
  </outline>
</glyph>
<glyph name="Twelve-roman" format="2">
  <advance width="995"/>
  <unicode hex="216B"/>
  <outline>
    <contour>
      <point x="5" y="0" type="line"/>
      <point x="36" y="0" type="line"/>
      <point x="266" y="353" type="line"/>
      <point x="493" y="0" type="line"/>
      <point x="524" y="0" type="line"/>
      <point x="284" y="373" type="line"/>
      <point x="506" y="719" type="line"/>
      <point x="475" y="719" type="line"/>
      <point x="267" y="393" type="line"/>
      <point x="62" y="719" type="line"/>
      <point x="30" y="719" type="line"/>
      <point x="249" y="373" type="line"/>
    </contour>
    <contour>
      <point x="621" y="0" type="line"/>
      <point x="784" y="0" type="line"/>
      <point x="784" y="20" type="line"/>
      <point x="716" y="23" type="line"/>
      <point x="716" y="695" type="line"/>
      <point x="784" y="699" type="line"/>
      <point x="784" y="719" type="line"/>
      <point x="621" y="719" type="line"/>
      <point x="621" y="699" type="line"/>
      <point x="689" y="695" type="line"/>
      <point x="689" y="23" type="line"/>
      <point x="621" y="20" type="line"/>
    </contour>
    <contour>
      <point x="811" y="0" type="line"/>
      <point x="974" y="0" type="line"/>
      <point x="974" y="20" type="line"/>
      <point x="905" y="23" type="line"/>
      <point x="905" y="695" type="line"/>
      <point x="974" y="699" type="line"/>
      <point x="974" y="719" type="line"/>
      <point x="811" y="719" type="line"/>
      <point x="811" y="699" type="line"/>
      <point x="879" y="695" type="line"/>
      <point x="879" y="23" type="line"/>
      <point x="811" y="20" type="line"/>
    </contour>
  </outline>
</glyph>
<glyph name="Fifty-roman" format="2">
  <advance width="468"/>
  <unicode hex="216C"/>
  <outline>
    <contour>
      <point x="77" y="0" type="line"/>
      <point x="463" y="0" type="line"/>
      <point x="463" y="25" type="line"/>
      <point x="104" y="25" type="line"/>
      <point x="104" y="719" type="line"/>
      <point x="77" y="719" type="line"/>
    </contour>
  </outline>
</glyph>
<glyph name="Hundred-roman" format="2">
  <advance width="621"/>
  <unicode hex="216D"/>
  <outline>
    <contour>
      <point x="379" y="-20" type="curve" smooth="yes"/>
      <point x="460" y="-20"/>
      <point x="524" y="-5"/>
      <point x="569" y="12" type="curve"/>
      <point x="569" y="36" type="line"/>
      <point x="520" y="18"/>
      <point x="458" y="6"/>
      <point x="379" y="6" type="curve" smooth="yes"/>
      <point x="176" y="6"/>
      <point x="74" y="148"/>
      <point x="74" y="362" type="curve" smooth="yes"/>
      <point x="74" y="563"/>
      <point x="191" y="712"/>
      <point x="399" y="712" type="curve" smooth="yes"/>
      <point x="456" y="712"/>
      <point x="514" y="705"/>
      <point x="572" y="674" type="curve"/>
      <point x="583" y="700" type="line"/>
      <point x="526" y="725"/>
      <point x="466" y="738"/>
      <point x="399" y="738" type="curve" smooth="yes"/>
      <point x="178" y="738"/>
      <point x="46" y="577"/>
      <point x="46" y="362" type="curve" smooth="yes"/>
      <point x="46" y="134"/>
      <point x="160" y="-20"/>
    </contour>
  </outline>
</glyph>
<glyph name="Fivehundred-roman" format="2">
  <advance width="652"/>
  <unicode hex="216E"/>
  <outline>
    <contour>
      <point x="77" y="0" type="line"/>
      <point x="232" y="0" type="line" smooth="yes"/>
      <point x="484" y="0"/>
      <point x="606" y="126"/>
      <point x="606" y="367" type="curve" smooth="yes"/>
      <point x="606" y="595"/>
      <point x="493" y="719"/>
      <point x="255" y="719" type="curve" smooth="yes"/>
      <point x="77" y="719" type="line"/>
    </contour>
    <contour>
      <point x="104" y="25" type="line"/>
      <point x="104" y="694" type="line"/>
      <point x="246" y="694" type="line" smooth="yes"/>
      <point x="479" y="694"/>
      <point x="579" y="579"/>
      <point x="579" y="366" type="curve" smooth="yes"/>
      <point x="579" y="137"/>
      <point x="466" y="25"/>
      <point x="235" y="25" type="curve" smooth="yes"/>
    </contour>
  </outline>
</glyph>
<glyph name="Thousand-roman" format="2">
  <advance width="789"/>
  <unicode hex="216F"/>
  <outline>
    <contour>
      <point x="77" y="0" type="line"/>
      <point x="104" y="0" type="line"/>
      <point x="104" y="601" type="line" smooth="yes"/>
      <point x="104" y="630"/>
      <point x="103" y="657"/>
      <point x="103" y="684" type="curve"/>
      <point x="104" y="684" type="line"/>
      <point x="384" y="0" type="line"/>
      <point x="404" y="0" type="line"/>
      <point x="685" y="683" type="line"/>
      <point x="687" y="683" type="line"/>
      <point x="686" y="656"/>
      <point x="686" y="626"/>
      <point x="686" y="606" type="curve" smooth="yes"/>
      <point x="686" y="0" type="line"/>
      <point x="712" y="0" type="line"/>
      <point x="712" y="719" type="line"/>
      <point x="671" y="719" type="line"/>
      <point x="396" y="48" type="line"/>
      <point x="394" y="48" type="line"/>
      <point x="120" y="719" type="line"/>
      <point x="77" y="719" type="line"/>
    </contour>
  </outline>
</glyph>
<glyph name="one-roman" format="2">
  <advance width="187"/>
  <unicode hex="2170"/>
  <outline>
    <contour>
      <point x="80" y="0" type="line"/>
      <point x="105" y="0" type="line"/>
      <point x="105" y="532" type="line"/>
      <point x="80" y="532" type="line"/>
    </contour>
    <contour>
      <point x="93" y="657" type="curve" smooth="yes"/>
      <point x="117" y="657"/>
      <point x="120" y="671"/>
      <point x="120" y="688" type="curve" smooth="yes"/>
      <point x="120" y="704"/>
      <point x="117" y="719"/>
      <point x="93" y="719" type="curve" smooth="yes"/>
      <point x="72" y="719"/>
      <point x="67" y="704"/>
      <point x="67" y="688" type="curve" smooth="yes"/>
      <point x="67" y="671"/>
      <point x="72" y="657"/>
    </contour>
  </outline>
</glyph>
<glyph name="two-roman" format="2">
  <advance width="320"/>
  <unicode hex="2171"/>
  <outline>
    <contour>
      <point x="213" y="0" type="line"/>
      <point x="239" y="0" type="line"/>
      <point x="239" y="531" type="line"/>
      <point x="213" y="531" type="line"/>
    </contour>
    <contour>
      <point x="80" y="0" type="line"/>
      <point x="105" y="0" type="line"/>
      <point x="105" y="531" type="line"/>
      <point x="80" y="531" type="line"/>
    </contour>
    <contour>
      <point x="93" y="657" type="curve" smooth="yes"/>
      <point x="117" y="657"/>
      <point x="120" y="671"/>
      <point x="120" y="688" type="curve" smooth="yes"/>
      <point x="120" y="704"/>
      <point x="117" y="719"/>
      <point x="93" y="719" type="curve" smooth="yes"/>
      <point x="72" y="719"/>
      <point x="67" y="704"/>
      <point x="67" y="688" type="curve" smooth="yes"/>
      <point x="67" y="671"/>
      <point x="72" y="657"/>
    </contour>
    <contour>
      <point x="226" y="657" type="curve" smooth="yes"/>
      <point x="250" y="657"/>
      <point x="253" y="671"/>
      <point x="253" y="688" type="curve" smooth="yes"/>
      <point x="253" y="704"/>
      <point x="250" y="719"/>
      <point x="226" y="719" type="curve" smooth="yes"/>
      <point x="206" y="719"/>
      <point x="201" y="704"/>
      <point x="201" y="688" type="curve" smooth="yes"/>
      <point x="201" y="671"/>
      <point x="206" y="657"/>
    </contour>
  </outline>
</glyph>
<glyph name="five-roman" format="2">
  <advance width="443"/>
  <unicode hex="2174"/>
  <outline>
    <contour>
      <point x="210" y="0" type="line"/>
      <point x="232" y="0" type="line"/>
      <point x="438" y="532" type="line"/>
      <point x="411" y="532" type="line"/>
      <point x="260" y="139" type="line" smooth="yes"/>
      <point x="243" y="96"/>
      <point x="234" y="69"/>
      <point x="223" y="36" type="curve"/>
      <point x="220" y="36" type="line"/>
      <point x="209" y="69"/>
      <point x="200" y="96"/>
      <point x="183" y="139" type="curve" smooth="yes"/>
      <point x="32" y="532" type="line"/>
      <point x="5" y="532" type="line"/>
    </contour>
  </outline>
</glyph>
<glyph name="six-roman" format="2">
  <advance width="570"/>
  <unicode hex="2175"/>
  <outline>
    <contour>
      <point x="210" y="0" type="line"/>
      <point x="232" y="0" type="line"/>
      <point x="438" y="532" type="line"/>
      <point x="411" y="532" type="line"/>
      <point x="260" y="139" type="line" smooth="yes"/>
      <point x="243" y="96"/>
      <point x="234" y="69"/>
      <point x="223" y="36" type="curve"/>
      <point x="220" y="36" type="line"/>
      <point x="209" y="69"/>
      <point x="200" y="96"/>
      <point x="183" y="139" type="curve" smooth="yes"/>
      <point x="32" y="532" type="line"/>
      <point x="5" y="532" type="line"/>
    </contour>
    <contour>
      <point x="463" y="0" type="line"/>
      <point x="489" y="0" type="line"/>
      <point x="489" y="532" type="line"/>
      <point x="463" y="532" type="line"/>
    </contour>
    <contour>
      <point x="476" y="657" type="curve" smooth="yes"/>
      <point x="500" y="657"/>
      <point x="503" y="671"/>
      <point x="503" y="688" type="curve" smooth="yes"/>
      <point x="503" y="704"/>
      <point x="500" y="719"/>
      <point x="476" y="719" type="curve" smooth="yes"/>
      <point x="456" y="719"/>
      <point x="451" y="704"/>
      <point x="451" y="688" type="curve" smooth="yes"/>
      <point x="451" y="671"/>
      <point x="456" y="657"/>
    </contour>
  </outline>
</glyph>
<glyph name="eight-roman" format="2">
  <advance width="837"/>
  <unicode hex="2177"/>
  <outline>
    <contour>
      <point x="210" y="0" type="line"/>
      <point x="232" y="0" type="line"/>
      <point x="438" y="532" type="line"/>
      <point x="411" y="532" type="line"/>
      <point x="260" y="139" type="line" smooth="yes"/>
      <point x="243" y="96"/>
      <point x="234" y="69"/>
      <point x="223" y="36" type="curve"/>
      <point x="220" y="36" type="line"/>
      <point x="209" y="69"/>
      <point x="200" y="96"/>
      <point x="183" y="139" type="curve" smooth="yes"/>
      <point x="32" y="532" type="line"/>
      <point x="5" y="532" type="line"/>
    </contour>
    <contour>
      <point x="463" y="0" type="line"/>
      <point x="489" y="0" type="line"/>
      <point x="489" y="532" type="line"/>
      <point x="463" y="532" type="line"/>
    </contour>
    <contour>
      <point x="597" y="0" type="line"/>
      <point x="623" y="0" type="line"/>
      <point x="623" y="532" type="line"/>
      <point x="597" y="532" type="line"/>
    </contour>
    <contour>
      <point x="730" y="0" type="line"/>
      <point x="756" y="0" type="line"/>
      <point x="756" y="532" type="line"/>
      <point x="730" y="532" type="line"/>
    </contour>
    <contour>
      <point x="477" y="657" type="curve" smooth="yes"/>
      <point x="500" y="657"/>
      <point x="503" y="671"/>
      <point x="503" y="688" type="curve" smooth="yes"/>
      <point x="503" y="704"/>
      <point x="500" y="719"/>
      <point x="477" y="719" type="curve" smooth="yes"/>
      <point x="456" y="719"/>
      <point x="451" y="704"/>
      <point x="451" y="688" type="curve" smooth="yes"/>
      <point x="451" y="671"/>
      <point x="456" y="657"/>
    </contour>
    <contour>
      <point x="610" y="657" type="curve" smooth="yes"/>
      <point x="634" y="657"/>
      <point x="637" y="671"/>
      <point x="637" y="688" type="curve" smooth="yes"/>
      <point x="637" y="704"/>
      <point x="634" y="719"/>
      <point x="610" y="719" type="curve" smooth="yes"/>
      <point x="589" y="719"/>
      <point x="584" y="704"/>
      <point x="584" y="688" type="curve" smooth="yes"/>
      <point x="584" y="671"/>
      <point x="589" y="657"/>
    </contour>
    <contour>
      <point x="743" y="657" type="curve" smooth="yes"/>
      <point x="767" y="657"/>
      <point x="770" y="671"/>
      <point x="770" y="688" type="curve" smooth="yes"/>
      <point x="770" y="704"/>
      <point x="767" y="719"/>
      <point x="743" y="719" type="curve" smooth="yes"/>
      <point x="723" y="719"/>
      <point x="718" y="704"/>
      <point x="718" y="688" type="curve" smooth="yes"/>
      <point x="718" y="671"/>
      <point x="723" y="657"/>
    </contour>
  </outline>
</glyph>
<glyph name="ten-roman" format="2">
  <advance width="436"/>
  <unicode hex="2179"/>
  <outline>
    <contour>
      <point x="5" y="0" type="line"/>
      <point x="36" y="0" type="line"/>
      <point x="216" y="255" type="line"/>
      <point x="399" y="0" type="line"/>
      <point x="431" y="0" type="line"/>
      <point x="234" y="274" type="line"/>
      <point x="419" y="532" type="line"/>
      <point x="387" y="532" type="line"/>
      <point x="216" y="292" type="line"/>
      <point x="46" y="532" type="line"/>
      <point x="13" y="532" type="line"/>
      <point x="199" y="274" type="line"/>
    </contour>
  </outline>
</glyph>
<glyph name="eleven-roman" format="2">
  <advance width="564"/>
  <unicode hex="217A"/>
  <outline>
    <contour>
      <point x="5" y="0" type="line"/>
      <point x="36" y="0" type="line"/>
      <point x="216" y="255" type="line"/>
      <point x="399" y="0" type="line"/>
      <point x="431" y="0" type="line"/>
      <point x="234" y="274" type="line"/>
      <point x="419" y="532" type="line"/>
      <point x="387" y="532" type="line"/>
      <point x="216" y="292" type="line"/>
      <point x="46" y="532" type="line"/>
      <point x="13" y="532" type="line"/>
      <point x="199" y="274" type="line"/>
    </contour>
    <contour>
      <point x="457" y="0" type="line"/>
      <point x="482" y="0" type="line"/>
      <point x="482" y="532" type="line"/>
      <point x="457" y="532" type="line"/>
    </contour>
    <contour>
      <point x="470" y="657" type="curve" smooth="yes"/>
      <point x="494" y="657"/>
      <point x="497" y="671"/>
      <point x="497" y="688" type="curve" smooth="yes"/>
      <point x="497" y="704"/>
      <point x="494" y="719"/>
      <point x="470" y="719" type="curve" smooth="yes"/>
      <point x="449" y="719"/>
      <point x="444" y="704"/>
      <point x="444" y="688" type="curve" smooth="yes"/>
      <point x="444" y="671"/>
      <point x="449" y="657"/>
    </contour>
  </outline>
</glyph>
<glyph name="twelve-roman" format="2">
  <advance width="697"/>
  <unicode hex="217B"/>
  <outline>
    <contour>
      <point x="5" y="0" type="line"/>
      <point x="36" y="0" type="line"/>
      <point x="216" y="255" type="line"/>
      <point x="399" y="0" type="line"/>
      <point x="431" y="0" type="line"/>
      <point x="234" y="274" type="line"/>
      <point x="419" y="532" type="line"/>
      <point x="387" y="532" type="line"/>
      <point x="216" y="292" type="line"/>
      <point x="46" y="532" type="line"/>
      <point x="13" y="532" type="line"/>
      <point x="199" y="274" type="line"/>
    </contour>
    <contour>
      <point x="457" y="0" type="line"/>
      <point x="482" y="0" type="line"/>
      <point x="482" y="532" type="line"/>
      <point x="457" y="532" type="line"/>
    </contour>
    <contour>
      <point x="590" y="0" type="line"/>
      <point x="616" y="0" type="line"/>
      <point x="616" y="532" type="line"/>
      <point x="590" y="532" type="line"/>
    </contour>
    <contour>
      <point x="470" y="657" type="curve" smooth="yes"/>
      <point x="494" y="657"/>
      <point x="497" y="671"/>
      <point x="497" y="688" type="curve" smooth="yes"/>
      <point x="497" y="704"/>
      <point x="494" y="719"/>
      <point x="470" y="719" type="curve" smooth="yes"/>
      <point x="449" y="719"/>
      <point x="444" y="704"/>
      <point x="444" y="688" type="curve" smooth="yes"/>
      <point x="444" y="671"/>
      <point x="449" y="657"/>
    </contour>
    <contour>
      <point x="603" y="657" type="curve" smooth="yes"/>
      <point x="627" y="657"/>
      <point x="630" y="671"/>
      <point x="630" y="688" type="curve" smooth="yes"/>
      <point x="630" y="704"/>
      <point x="627" y="719"/>
      <point x="603" y="719" type="curve" smooth="yes"/>
      <point x="583" y="719"/>
      <point x="578" y="704"/>
      <point x="578" y="688" type="curve" smooth="yes"/>
      <point x="578" y="671"/>
      <point x="583" y="657"/>
    </contour>
  </outline>
</glyph>
<glyph name="fifty-roman" format="2">
  <advance width="161"/>
  <unicode hex="217C"/>
  <outline>
    <contour>
      <point x="67" y="0" type="line"/>
      <point x="94" y="0" type="line"/>
      <point x="94" y="766" type="line"/>
      <point x="67" y="766" type="line"/>
    </contour>
  </outline>
</glyph>
<glyph name="hundred-roman" format="2">
  <advance width="449"/>
  <unicode hex="217D"/>
  <outline>
    <contour>
      <point x="285" y="-10" type="curve" smooth="yes"/>
      <point x="340" y="-10"/>
      <point x="389" y="2"/>
      <point x="422" y="16" type="curve"/>
      <point x="422" y="41" type="line"/>
      <point x="382" y="25"/>
      <point x="333" y="15"/>
      <point x="285" y="15" type="curve" smooth="yes"/>
      <point x="132" y="15"/>
      <point x="67" y="126"/>
      <point x="67" y="263" type="curve" smooth="yes"/>
      <point x="67" y="412"/>
      <point x="157" y="517"/>
      <point x="302" y="517" type="curve" smooth="yes"/>
      <point x="340" y="517"/>
      <point x="380" y="511"/>
      <point x="421" y="492" type="curve"/>
      <point x="426" y="518" type="line"/>
      <point x="389" y="534"/>
      <point x="350" y="542"/>
      <point x="302" y="542" type="curve" smooth="yes"/>
      <point x="139" y="542"/>
      <point x="40" y="425"/>
      <point x="40" y="263" type="curve" smooth="yes"/>
      <point x="40" y="106"/>
      <point x="115" y="-10"/>
    </contour>
  </outline>
</glyph>
<glyph name="fivehundred-roman" format="2">
  <advance width="545"/>
  <unicode hex="217E"/>
  <outline>
    <contour>
      <point x="266" y="-10" type="curve" smooth="yes"/>
      <point x="372" y="-10"/>
      <point x="428" y="46"/>
      <point x="452" y="114" type="curve"/>
      <point x="454" y="114" type="line"/>
      <point x="456" y="0" type="line"/>
      <point x="478" y="0" type="line"/>
      <point x="478" y="766" type="line"/>
      <point x="452" y="766" type="line"/>
      <point x="452" y="547" type="line" smooth="yes"/>
      <point x="452" y="504"/>
      <point x="452" y="462"/>
      <point x="454" y="417" type="curve"/>
      <point x="452" y="417" type="line"/>
      <point x="430" y="487"/>
      <point x="371" y="542"/>
      <point x="274" y="542" type="curve" smooth="yes"/>
      <point x="123" y="542"/>
      <point x="40" y="440"/>
      <point x="40" y="256" type="curve" smooth="yes"/>
      <point x="40" y="83"/>
      <point x="113" y="-10"/>
    </contour>
    <contour>
      <point x="266" y="15" type="curve" smooth="yes"/>
      <point x="131" y="15"/>
      <point x="67" y="95"/>
      <point x="67" y="256" type="curve" smooth="yes"/>
      <point x="67" y="430"/>
      <point x="141" y="517"/>
      <point x="274" y="517" type="curve" smooth="yes"/>
      <point x="394" y="517"/>
      <point x="452" y="429"/>
      <point x="452" y="268" type="curve" smooth="yes"/>
      <point x="452" y="265" type="line" smooth="yes"/>
      <point x="452" y="107"/>
      <point x="399" y="15"/>
    </contour>
  </outline>
</glyph>
<glyph name="onethousand-roman" format="2">
  <advance width="819"/>
  <unicode hex="217F"/>
  <outline>
    <contour>
      <point x="67" y="0" type="line"/>
      <point x="94" y="0" type="line"/>
      <point x="94" y="327" type="line" smooth="yes"/>
      <point x="94" y="462"/>
      <point x="172" y="517"/>
      <point x="266" y="517" type="curve" smooth="yes"/>
      <point x="339" y="517"/>
      <point x="397" y="470"/>
      <point x="397" y="363" type="curve" smooth="yes"/>
      <point x="397" y="0" type="line"/>
      <point x="423" y="0" type="line"/>
      <point x="423" y="327" type="line" smooth="yes"/>
      <point x="423" y="462"/>
      <point x="495" y="517"/>
      <point x="595" y="517" type="curve" smooth="yes"/>
      <point x="669" y="517"/>
      <point x="726" y="470"/>
      <point x="726" y="363" type="curve" smooth="yes"/>
      <point x="726" y="0" type="line"/>
      <point x="752" y="0" type="line"/>
      <point x="752" y="364" type="line" smooth="yes"/>
      <point x="752" y="485"/>
      <point x="686" y="542"/>
      <point x="595" y="542" type="curve" smooth="yes"/>
      <point x="500" y="542"/>
      <point x="440" y="498"/>
      <point x="415" y="432" type="curve"/>
      <point x="413" y="432" type="line"/>
      <point x="395" y="503"/>
      <point x="339" y="542"/>
      <point x="266" y="542" type="curve" smooth="yes"/>
      <point x="163" y="542"/>
      <point x="116" y="484"/>
      <point x="95" y="435" type="curve"/>
      <point x="93" y="435" type="line"/>
      <point x="88" y="532" type="line"/>
      <point x="67" y="532" type="line"/>
    </contour>
  </outline>
</glyph>
<glyph name="Onethousandcd-roman" format="2">
  <advance width="1123"/>
  <unicode hex="2180"/>
  <outline>
    <contour>
      <point x="420" y="0" type="curve" smooth="yes"/>
      <point x="704" y="0" type="line" smooth="yes"/>
      <point x="955" y="0"/>
      <point x="1077" y="126"/>
      <point x="1077" y="367" type="curve" smooth="yes"/>
      <point x="1077" y="595"/>
      <point x="964" y="719"/>
      <point x="727" y="719" type="curve" smooth="yes"/>
      <point x="397" y="719" type="line" smooth="yes"/>
      <point x="159" y="719"/>
      <point x="46" y="595"/>
      <point x="46" y="367" type="curve" smooth="yes"/>
      <point x="46" y="126"/>
      <point x="168" y="0"/>
    </contour>
    <contour>
      <point x="417" y="25" type="line" smooth="yes"/>
      <point x="187" y="25"/>
      <point x="74" y="137"/>
      <point x="74" y="366" type="curve" smooth="yes"/>
      <point x="74" y="579"/>
      <point x="173" y="694"/>
      <point x="407" y="694" type="curve" smooth="yes"/>
      <point x="549" y="694" type="line"/>
      <point x="549" y="25" type="line"/>
    </contour>
    <contour>
      <point x="575" y="25" type="line"/>
      <point x="575" y="694" type="line"/>
      <point x="717" y="694" type="line" smooth="yes"/>
      <point x="950" y="694"/>
      <point x="1050" y="579"/>
      <point x="1050" y="366" type="curve" smooth="yes"/>
      <point x="1050" y="137"/>
      <point x="937" y="25"/>
      <point x="707" y="25" type="curve" smooth="yes"/>
    </contour>
  </outline>
</glyph>
<glyph name="Fivethousand-roman" format="2">
  <advance width="652"/>
  <unicode hex="2181"/>
  <outline>
    <contour>
      <point x="77" y="0" type="line"/>
      <point x="232" y="0" type="line" smooth="yes"/>
      <point x="484" y="0"/>
      <point x="606" y="126"/>
      <point x="606" y="367" type="curve" smooth="yes"/>
      <point x="606" y="595"/>
      <point x="493" y="719"/>
      <point x="255" y="719" type="curve" smooth="yes"/>
      <point x="77" y="719" type="line"/>
    </contour>
    <contour>
      <point x="104" y="173" type="line"/>
      <point x="104" y="546" type="line"/>
      <point x="187" y="546" type="line" smooth="yes"/>
      <point x="317" y="546"/>
      <point x="373" y="482"/>
      <point x="373" y="363" type="curve" smooth="yes"/>
      <point x="373" y="235"/>
      <point x="310" y="173"/>
      <point x="181" y="173" type="curve" smooth="yes"/>
    </contour>
    <contour>
      <point x="104" y="25" type="line"/>
      <point x="104" y="147" type="line"/>
      <point x="180" y="147" type="line" smooth="yes"/>
      <point x="328" y="147"/>
      <point x="400" y="222"/>
      <point x="400" y="364" type="curve" smooth="yes"/>
      <point x="400" y="499"/>
      <point x="334" y="572"/>
      <point x="193" y="572" type="curve" smooth="yes"/>
      <point x="104" y="572" type="line"/>
      <point x="104" y="694" type="line"/>
      <point x="246" y="694" type="line" smooth="yes"/>
      <point x="479" y="694"/>
      <point x="579" y="579"/>
      <point x="579" y="366" type="curve" smooth="yes"/>
      <point x="579" y="137"/>
      <point x="466" y="25"/>
      <point x="235" y="25" type="curve" smooth="yes"/>
    </contour>
  </outline>
</glyph>
<glyph name="Tenthousand-roman" format="2">
  <advance width="1123"/>
  <unicode hex="2182"/>
  <outline>
    <contour>
      <point x="419" y="0" type="curve" smooth="yes"/>
      <point x="703" y="0" type="line" smooth="yes"/>
      <point x="955" y="0"/>
      <point x="1077" y="126"/>
      <point x="1077" y="367" type="curve" smooth="yes"/>
      <point x="1077" y="595"/>
      <point x="964" y="719"/>
      <point x="726" y="719" type="curve" smooth="yes"/>
      <point x="396" y="719" type="line" smooth="yes"/>
      <point x="159" y="719"/>
      <point x="46" y="595"/>
      <point x="46" y="367" type="curve" smooth="yes"/>
      <point x="46" y="126"/>
      <point x="168" y="0"/>
    </contour>
    <contour>
      <point x="417" y="25" type="line" smooth="yes"/>
      <point x="186" y="25"/>
      <point x="73" y="137"/>
      <point x="73" y="366" type="curve" smooth="yes"/>
      <point x="73" y="579"/>
      <point x="173" y="694"/>
      <point x="406" y="694" type="curve" smooth="yes"/>
      <point x="548" y="694" type="line"/>
      <point x="548" y="572" type="line"/>
      <point x="458" y="572" type="line" smooth="yes"/>
      <point x="318" y="572"/>
      <point x="252" y="499"/>
      <point x="252" y="364" type="curve" smooth="yes"/>
      <point x="252" y="222"/>
      <point x="324" y="147"/>
      <point x="472" y="147" type="curve" smooth="yes"/>
      <point x="548" y="147" type="line"/>
      <point x="548" y="25" type="line"/>
    </contour>
    <contour>
      <point x="471" y="173" type="line" smooth="yes"/>
      <point x="342" y="173"/>
      <point x="279" y="235"/>
      <point x="279" y="363" type="curve" smooth="yes"/>
      <point x="279" y="482"/>
      <point x="335" y="546"/>
      <point x="465" y="546" type="curve" smooth="yes"/>
      <point x="548" y="546" type="line"/>
      <point x="548" y="173" type="line"/>
    </contour>
    <contour>
      <point x="574" y="173" type="line"/>
      <point x="574" y="546" type="line"/>
      <point x="657" y="546" type="line" smooth="yes"/>
      <point x="788" y="546"/>
      <point x="843" y="482"/>
      <point x="843" y="363" type="curve" smooth="yes"/>
      <point x="843" y="235"/>
      <point x="780" y="173"/>
      <point x="651" y="173" type="curve" smooth="yes"/>
    </contour>
    <contour>
      <point x="574" y="25" type="line"/>
      <point x="574" y="147" type="line"/>
      <point x="651" y="147" type="line" smooth="yes"/>
      <point x="799" y="147"/>
      <point x="871" y="222"/>
      <point x="871" y="364" type="curve" smooth="yes"/>
      <point x="871" y="499"/>
      <point x="805" y="572"/>
      <point x="664" y="572" type="curve" smooth="yes"/>
      <point x="574" y="572" type="line"/>
      <point x="574" y="694" type="line"/>
      <point x="716" y="694" type="line" smooth="yes"/>
      <point x="950" y="694"/>
      <point x="1049" y="579"/>
      <point x="1049" y="366" type="curve" smooth="yes"/>
      <point x="1049" y="137"/>
      <point x="937" y="25"/>
      <point x="706" y="25" type="curve" smooth="yes"/>
    </contour>
  </outline>
</glyph>
<glyph name="Onehundredreversed-roman" format="2">
  <advance width="642"/>
  <unicode hex="2183"/>
  <outline>
    <contour>
      <point x="252" y="-20" type="curve" smooth="yes"/>
      <point x="494" y="-20"/>
      <point x="605" y="134"/>
      <point x="605" y="362" type="curve" smooth="yes"/>
      <point x="605" y="582"/>
      <point x="504" y="738"/>
      <point x="282" y="738" type="curve" smooth="yes"/>
      <point x="204" y="738"/>
      <point x="131" y="719"/>
      <point x="77" y="694" type="curve"/>
      <point x="86" y="667" type="line"/>
      <point x="146" y="699"/>
      <point x="219" y="712"/>
      <point x="281" y="712" type="curve" smooth="yes"/>
      <point x="483" y="712"/>
      <point x="577" y="568"/>
      <point x="577" y="362" type="curve" smooth="yes"/>
      <point x="577" y="146"/>
      <point x="476" y="6"/>
      <point x="254" y="6" type="curve" smooth="yes"/>
      <point x="186" y="6"/>
      <point x="131" y="18"/>
      <point x="82" y="36" type="curve"/>
      <point x="82" y="10" type="line"/>
      <point x="127" y="-7"/>
      <point x="182" y="-20"/>
    </contour>
  </outline>
</glyph>
<glyph name="sixlateform-roman" format="2">
  <advance width="642"/>
  <unicode hex="2185"/>
  <outline>
    <contour>
      <point x="416" y="-258" type="line"/>
      <point x="442" y="-258" type="line"/>
      <point x="442" y="9" type="line"/>
      <point x="428" y="7"/>
      <point x="423" y="6"/>
      <point x="407" y="6" type="curve" smooth="yes"/>
      <point x="186" y="6"/>
      <point x="63" y="142"/>
      <point x="63" y="362" type="curve" smooth="yes"/>
      <point x="63" y="563"/>
      <point x="182" y="712"/>
      <point x="389" y="712" type="curve" smooth="yes"/>
      <point x="446" y="712"/>
      <point x="503" y="705"/>
      <point x="563" y="674" type="curve"/>
      <point x="572" y="699" type="line"/>
      <point x="516" y="725"/>
      <point x="456" y="738"/>
      <point x="389" y="738" type="curve" smooth="yes"/>
      <point x="168" y="738"/>
      <point x="36" y="577"/>
      <point x="36" y="362" type="curve" smooth="yes"/>
      <point x="36" y="134"/>
      <point x="167" y="-19"/>
      <point x="416" y="-19" type="curve"/>
    </contour>
  </outline>
</glyph>
<glyph name="fiftyearlyform-roman" format="2">
  <advance width="547"/>
  <unicode hex="2186"/>
  <outline>
    <contour>
      <point x="268" y="-69" type="line"/>
      <point x="279" y="-69" type="line"/>
      <point x="482" y="115" type="line"/>
      <point x="482" y="148" type="line"/>
      <point x="277" y="-37" type="line"/>
      <point x="287" y="-50" type="line"/>
      <point x="287" y="719" type="line"/>
      <point x="260" y="719" type="line"/>
      <point x="260" y="-50" type="line"/>
      <point x="270" y="-37" type="line"/>
      <point x="65" y="148" type="line"/>
      <point x="65" y="115" type="line"/>
    </contour>
  </outline>
</glyph>
<glyph name="fiftythousand-roman" format="2">
  <advance width="652"/>
  <unicode hex="2187"/>
  <outline>
    <contour>
      <point x="77" y="0" type="line"/>
      <point x="232" y="0" type="line" smooth="yes"/>
      <point x="484" y="0"/>
      <point x="606" y="126"/>
      <point x="606" y="367" type="curve" smooth="yes"/>
      <point x="606" y="595"/>
      <point x="493" y="719"/>
      <point x="255" y="719" type="curve" smooth="yes"/>
      <point x="77" y="719" type="line"/>
    </contour>
    <contour>
      <point x="104" y="232" type="line"/>
      <point x="104" y="487" type="line"/>
      <point x="163" y="487" type="line" smooth="yes"/>
      <point x="251" y="487"/>
      <point x="289" y="443"/>
      <point x="289" y="362" type="curve" smooth="yes"/>
      <point x="289" y="275"/>
      <point x="246" y="232"/>
      <point x="159" y="232" type="curve" smooth="yes"/>
    </contour>
    <contour>
      <point x="104" y="129" type="line"/>
      <point x="104" y="207" type="line"/>
      <point x="158" y="207" type="line" smooth="yes"/>
      <point x="265" y="207"/>
      <point x="316" y="261"/>
      <point x="316" y="363" type="curve" smooth="yes"/>
      <point x="316" y="459"/>
      <point x="269" y="512"/>
      <point x="168" y="512" type="curve" smooth="yes"/>
      <point x="104" y="512" type="line"/>
      <point x="104" y="590" type="line"/>
      <point x="205" y="590" type="line" smooth="yes"/>
      <point x="365" y="590"/>
      <point x="434" y="511"/>
      <point x="434" y="364" type="curve" smooth="yes"/>
      <point x="434" y="206"/>
      <point x="356" y="129"/>
      <point x="197" y="129" type="curve" smooth="yes"/>
    </contour>
    <contour>
      <point x="104" y="25" type="line"/>
      <point x="104" y="104" type="line"/>
      <point x="195" y="104" type="line" smooth="yes"/>
      <point x="375" y="104"/>
      <point x="461" y="193"/>
      <point x="461" y="365" type="curve" smooth="yes"/>
      <point x="461" y="527"/>
      <point x="381" y="616"/>
      <point x="212" y="616" type="curve" smooth="yes"/>
      <point x="104" y="616" type="line"/>
      <point x="104" y="694" type="line"/>
      <point x="246" y="694" type="line" smooth="yes"/>
      <point x="479" y="694"/>
      <point x="579" y="579"/>
      <point x="579" y="366" type="curve" smooth="yes"/>
      <point x="579" y="137"/>
      <point x="466" y="25"/>
      <point x="235" y="25" type="curve" smooth="yes"/>
    </contour>
  </outline>
</glyph>
<glyph name="Onehundredthousand-roman" format="2">
  <advance width="1123"/>
  <unicode hex="2188"/>
  <outline>
    <contour>
      <point x="419" y="0" type="curve" smooth="yes"/>
      <point x="703" y="0" type="line" smooth="yes"/>
      <point x="955" y="0"/>
      <point x="1077" y="126"/>
      <point x="1077" y="367" type="curve" smooth="yes"/>
      <point x="1077" y="595"/>
      <point x="964" y="719"/>
      <point x="726" y="719" type="curve" smooth="yes"/>
      <point x="396" y="719" type="line" smooth="yes"/>
      <point x="159" y="719"/>
      <point x="46" y="595"/>
      <point x="46" y="367" type="curve" smooth="yes"/>
      <point x="46" y="126"/>
      <point x="168" y="0"/>
    </contour>
    <contour>
      <point x="417" y="25" type="line" smooth="yes"/>
      <point x="186" y="25"/>
      <point x="73" y="137"/>
      <point x="73" y="366" type="curve" smooth="yes"/>
      <point x="73" y="579"/>
      <point x="173" y="694"/>
      <point x="406" y="694" type="curve" smooth="yes"/>
      <point x="548" y="694" type="line"/>
      <point x="548" y="616" type="line"/>
      <point x="440" y="616" type="line" smooth="yes"/>
      <point x="271" y="616"/>
      <point x="190" y="527"/>
      <point x="190" y="365" type="curve" smooth="yes"/>
      <point x="190" y="193"/>
      <point x="277" y="104"/>
      <point x="457" y="104" type="curve" smooth="yes"/>
      <point x="548" y="104" type="line"/>
      <point x="548" y="25" type="line"/>
    </contour>
    <contour>
      <point x="455" y="129" type="line" smooth="yes"/>
      <point x="295" y="129"/>
      <point x="218" y="206"/>
      <point x="218" y="364" type="curve" smooth="yes"/>
      <point x="218" y="511"/>
      <point x="287" y="590"/>
      <point x="447" y="590" type="curve" smooth="yes"/>
      <point x="548" y="590" type="line"/>
      <point x="548" y="512" type="line"/>
      <point x="484" y="512" type="line" smooth="yes"/>
      <point x="383" y="512"/>
      <point x="335" y="459"/>
      <point x="335" y="363" type="curve" smooth="yes"/>
      <point x="335" y="261"/>
      <point x="387" y="207"/>
      <point x="494" y="207" type="curve" smooth="yes"/>
      <point x="548" y="207" type="line"/>
      <point x="548" y="129" type="line"/>
    </contour>
    <contour>
      <point x="493" y="232" type="line" smooth="yes"/>
      <point x="406" y="232"/>
      <point x="363" y="275"/>
      <point x="363" y="362" type="curve" smooth="yes"/>
      <point x="363" y="443"/>
      <point x="401" y="487"/>
      <point x="489" y="487" type="curve" smooth="yes"/>
      <point x="548" y="487" type="line"/>
      <point x="548" y="232" type="line"/>
    </contour>
    <contour>
      <point x="574" y="232" type="line"/>
      <point x="574" y="487" type="line"/>
      <point x="633" y="487" type="line" smooth="yes"/>
      <point x="722" y="487"/>
      <point x="760" y="443"/>
      <point x="760" y="362" type="curve" smooth="yes"/>
      <point x="760" y="275"/>
      <point x="717" y="232"/>
      <point x="629" y="232" type="curve" smooth="yes"/>
    </contour>
    <contour>
      <point x="574" y="129" type="line"/>
      <point x="574" y="207" type="line"/>
      <point x="629" y="207" type="line" smooth="yes"/>
      <point x="735" y="207"/>
      <point x="787" y="261"/>
      <point x="787" y="363" type="curve" smooth="yes"/>
      <point x="787" y="459"/>
      <point x="740" y="512"/>
      <point x="639" y="512" type="curve" smooth="yes"/>
      <point x="574" y="512" type="line"/>
      <point x="574" y="590" type="line"/>
      <point x="675" y="590" type="line" smooth="yes"/>
      <point x="836" y="590"/>
      <point x="905" y="511"/>
      <point x="905" y="364" type="curve" smooth="yes"/>
      <point x="905" y="206"/>
      <point x="827" y="129"/>
      <point x="668" y="129" type="curve" smooth="yes"/>
    </contour>
    <contour>
      <point x="574" y="25" type="line"/>
      <point x="574" y="104" type="line"/>
      <point x="666" y="104" type="line" smooth="yes"/>
      <point x="845" y="104"/>
      <point x="932" y="193"/>
      <point x="932" y="365" type="curve" smooth="yes"/>
      <point x="932" y="527"/>
      <point x="852" y="616"/>
      <point x="683" y="616" type="curve" smooth="yes"/>
      <point x="574" y="616" type="line"/>
      <point x="574" y="694" type="line"/>
      <point x="716" y="694" type="line" smooth="yes"/>
      <point x="950" y="694"/>
      <point x="1049" y="579"/>
      <point x="1049" y="366" type="curve" smooth="yes"/>
      <point x="1049" y="137"/>
      <point x="937" y="25"/>
      <point x="706" y="25" type="curve" smooth="yes"/>
    </contour>
  </outline>
</glyph>
<glyph name="twoTurned" format="2">
  <advance width="582"/>
  <unicode hex="218A"/>
  <outline>
    <contour>
      <point x="302" y="-10" type="curve" smooth="yes"/>
      <point x="361" y="-10"/>
      <point x="430" y="9"/>
      <point x="491" y="59" type="curve"/>
      <point x="476" y="79" type="line"/>
      <point x="423" y="36"/>
      <point x="365" y="15"/>
      <point x="303" y="15" type="curve" smooth="yes"/>
      <point x="202" y="15"/>
      <point x="140" y="73"/>
      <point x="140" y="178" type="curve" smooth="yes"/>
      <point x="140" y="273"/>
      <point x="190" y="351"/>
      <point x="288" y="454" type="curve" smooth="yes"/>
      <point x="512" y="691" type="line"/>
      <point x="512" y="714" type="line"/>
      <point x="80" y="714" type="line"/>
      <point x="80" y="689" type="line"/>
      <point x="477" y="689" type="line"/>
      <point x="268" y="468" type="line" smooth="yes"/>
      <point x="170" y="365"/>
      <point x="113" y="279"/>
      <point x="113" y="177" type="curve" smooth="yes"/>
      <point x="113" y="61"/>
      <point x="189" y="-10"/>
    </contour>
  </outline>
</glyph>
<glyph name="threeTurned" format="2">
  <advance width="639"/>
  <unicode hex="218B"/>
  <outline>
    <contour>
      <point x="318" y="-10" type="curve" smooth="yes"/>
      <point x="406" y="-10"/>
      <point x="477" y="19"/>
      <point x="536" y="64" type="curve"/>
      <point x="522" y="85" type="line"/>
      <point x="457" y="38"/>
      <point x="393" y="15"/>
      <point x="318" y="15" type="curve" smooth="yes"/>
      <point x="216" y="15"/>
      <point x="148" y="63"/>
      <point x="148" y="163" type="curve" smooth="yes"/>
      <point x="148" y="279"/>
      <point x="246" y="330"/>
      <point x="352" y="330" type="curve" smooth="yes"/>
      <point x="435" y="330" type="line"/>
      <point x="435" y="355" type="line"/>
      <point x="352" y="355" type="line" smooth="yes"/>
      <point x="219" y="355"/>
      <point x="126" y="400"/>
      <point x="126" y="520" type="curve" smooth="yes"/>
      <point x="126" y="629"/>
      <point x="200" y="699"/>
      <point x="344" y="699" type="curve" smooth="yes"/>
      <point x="418" y="699"/>
      <point x="494" y="679"/>
      <point x="544" y="654" type="curve"/>
      <point x="544" y="682" type="line"/>
      <point x="493" y="706"/>
      <point x="423" y="724"/>
      <point x="344" y="724" type="curve" smooth="yes"/>
      <point x="184" y="724"/>
      <point x="99" y="639"/>
      <point x="99" y="520" type="curve" smooth="yes"/>
      <point x="99" y="414"/>
      <point x="162" y="356"/>
      <point x="273" y="341" type="curve"/>
      <point x="273" y="339" type="line"/>
      <point x="186" y="324"/>
      <point x="121" y="259"/>
      <point x="121" y="162" type="curve" smooth="yes"/>
      <point x="121" y="53"/>
      <point x="201" y="-10"/>
    </contour>
  </outline>
</glyph>
<glyph name="leftArrow" format="2">
  <advance width="1000"/>
  <unicode hex="2190"/>
  <note>
arrowleft
</note>
  <outline>
    <contour>
      <point x="289" y="231" type="curve"/>
      <point x="309" y="231" type="line"/>
      <point x="289" y="270"/>
      <point x="267" y="303"/>
      <point x="239" y="334" type="curve"/>
      <point x="239" y="350" type="line"/>
      <point x="267" y="381"/>
      <point x="289" y="414"/>
      <point x="309" y="453" type="curve"/>
      <point x="289" y="453" type="line"/>
      <point x="248" y="406"/>
      <point x="205" y="371"/>
      <point x="159" y="346" type="curve"/>
      <point x="159" y="338" type="line"/>
      <point x="205" y="313"/>
      <point x="248" y="278"/>
    </contour>
    <contour>
      <point x="237" y="329" type="line"/>
      <point x="841" y="329" type="line"/>
      <point x="841" y="355" type="line"/>
      <point x="237" y="355" type="line"/>
    </contour>
  </outline>
</glyph>
<glyph name="leftRightArrow" format="2">
  <advance width="1000"/>
  <unicode hex="2194"/>
  <note>
arrowboth
</note>
  <outline>
    <contour>
      <point x="289" y="231" type="curve"/>
      <point x="309" y="231" type="line"/>
      <point x="290" y="268"/>
      <point x="269" y="300"/>
      <point x="243" y="329" type="curve"/>
      <point x="757" y="329" type="line"/>
      <point x="731" y="300"/>
      <point x="710" y="268"/>
      <point x="691" y="231" type="curve"/>
      <point x="711" y="231" type="line"/>
      <point x="752" y="278"/>
      <point x="795" y="313"/>
      <point x="841" y="338" type="curve"/>
      <point x="841" y="346" type="line"/>
      <point x="795" y="371"/>
      <point x="752" y="406"/>
      <point x="711" y="453" type="curve"/>
      <point x="691" y="453" type="line"/>
      <point x="710" y="416"/>
      <point x="731" y="384"/>
      <point x="757" y="355" type="curve"/>
      <point x="243" y="355" type="line"/>
      <point x="269" y="384"/>
      <point x="290" y="416"/>
      <point x="309" y="453" type="curve"/>
      <point x="289" y="453" type="line"/>
      <point x="248" y="406"/>
      <point x="205" y="371"/>
      <point x="159" y="346" type="curve"/>
      <point x="159" y="338" type="line"/>
      <point x="205" y="313"/>
      <point x="248" y="278"/>
    </contour>
  </outline>
</glyph>
<glyph name="upDownArrow" format="2">
  <advance width="500"/>
  <unicode hex="2195"/>
  <note>
arrowupdn
</note>
  <outline>
    <contour>
      <point x="246" y="0" type="curve"/>
      <point x="254" y="0" type="line"/>
      <point x="278" y="47"/>
      <point x="313" y="90"/>
      <point x="361" y="130" type="curve"/>
      <point x="361" y="148" type="line"/>
      <point x="324" y="129"/>
      <point x="292" y="108"/>
      <point x="263" y="84" type="curve"/>
      <point x="263" y="599" type="line"/>
      <point x="292" y="575"/>
      <point x="324" y="554"/>
      <point x="361" y="535" type="curve"/>
      <point x="361" y="552" type="line"/>
      <point x="313" y="592"/>
      <point x="278" y="635"/>
      <point x="254" y="682" type="curve"/>
      <point x="246" y="682" type="line"/>
      <point x="222" y="635"/>
      <point x="187" y="592"/>
      <point x="139" y="552" type="curve"/>
      <point x="139" y="535" type="line"/>
      <point x="176" y="554"/>
      <point x="208" y="575"/>
      <point x="237" y="599" type="curve"/>
      <point x="237" y="84" type="line"/>
      <point x="208" y="108"/>
      <point x="176" y="129"/>
      <point x="139" y="148" type="curve"/>
      <point x="139" y="130" type="line"/>
      <point x="187" y="90"/>
      <point x="222" y="47"/>
    </contour>
  </outline>
</glyph>
<glyph name="northWestArrow" format="2">
  <advance width="750"/>
  <unicode hex="2196"/>
  <note>
uni2196
</note>
  <outline>
    <contour>
      <point x="604" y="91" type="line"/>
      <point x="622" y="109" type="line"/>
      <point x="199" y="533" type="line"/>
      <point x="236" y="536"/>
      <point x="274" y="544"/>
      <point x="313" y="557" type="curve"/>
      <point x="301" y="569" type="line"/>
      <point x="239" y="563"/>
      <point x="184" y="569"/>
      <point x="134" y="585" type="curve"/>
      <point x="128" y="579" type="line"/>
      <point x="144" y="529"/>
      <point x="150" y="474"/>
      <point x="144" y="412" type="curve"/>
      <point x="156" y="400" type="line"/>
      <point x="169" y="439"/>
      <point x="177" y="477"/>
      <point x="180" y="514" type="curve"/>
    </contour>
  </outline>
</glyph>
<glyph name="northEastArrow" format="2">
  <advance width="750"/>
  <unicode hex="2197"/>
  <note>
uni2197
</note>
  <outline>
    <contour>
      <point x="146" y="91" type="line"/>
      <point x="570" y="514" type="line"/>
      <point x="573" y="477"/>
      <point x="581" y="439"/>
      <point x="594" y="400" type="curve"/>
      <point x="606" y="412" type="line"/>
      <point x="600" y="474"/>
      <point x="606" y="529"/>
      <point x="622" y="579" type="curve"/>
      <point x="616" y="585" type="line"/>
      <point x="566" y="569"/>
      <point x="511" y="563"/>
      <point x="449" y="569" type="curve"/>
      <point x="437" y="557" type="line"/>
      <point x="476" y="544"/>
      <point x="514" y="536"/>
      <point x="551" y="533" type="curve"/>
      <point x="128" y="109" type="line"/>
    </contour>
  </outline>
</glyph>
<glyph name="southEastArrow" format="2">
  <advance width="750"/>
  <unicode hex="2198"/>
  <note>
uni2198
</note>
  <outline>
    <contour>
      <point x="616" y="91" type="curve"/>
      <point x="622" y="97" type="line"/>
      <point x="606" y="147"/>
      <point x="600" y="202"/>
      <point x="606" y="264" type="curve"/>
      <point x="594" y="276" type="line"/>
      <point x="581" y="237"/>
      <point x="573" y="199"/>
      <point x="570" y="162" type="curve"/>
      <point x="146" y="585" type="line"/>
      <point x="128" y="567" type="line"/>
      <point x="551" y="143" type="line"/>
      <point x="514" y="140"/>
      <point x="476" y="132"/>
      <point x="437" y="119" type="curve"/>
      <point x="449" y="107" type="line"/>
      <point x="511" y="113"/>
      <point x="566" y="107"/>
    </contour>
  </outline>
</glyph>
<glyph name="southWestArrow" format="2">
  <advance width="750"/>
  <unicode hex="2199"/>
  <note>
uni2199
</note>
  <outline>
    <contour>
      <point x="134" y="91" type="line"/>
      <point x="184" y="107"/>
      <point x="239" y="113"/>
      <point x="301" y="107" type="curve"/>
      <point x="313" y="119" type="line"/>
      <point x="274" y="132"/>
      <point x="236" y="140"/>
      <point x="199" y="143" type="curve"/>
      <point x="622" y="567" type="line"/>
      <point x="604" y="585" type="line"/>
      <point x="180" y="162" type="line"/>
      <point x="177" y="199"/>
      <point x="169" y="237"/>
      <point x="156" y="276" type="curve"/>
      <point x="144" y="264" type="line"/>
      <point x="150" y="202"/>
      <point x="144" y="147"/>
      <point x="128" y="97" type="curve"/>
    </contour>
  </outline>
</glyph>
<glyph name="diameterSign" format="2">
  <advance width="571"/>
  <unicode hex="2300"/>
  <note>
uni2300
</note>
  <outline>
    <contour>
      <point x="86" y="137" type="line"/>
      <point x="131" y="182" type="line"/>
      <point x="172" y="145"/>
      <point x="226" y="122"/>
      <point x="285" y="122" type="curve" smooth="yes"/>
      <point x="413" y="122"/>
      <point x="516" y="225"/>
      <point x="516" y="354" type="curve" smooth="yes"/>
      <point x="516" y="413"/>
      <point x="494" y="468"/>
      <point x="457" y="509" type="curve"/>
      <point x="503" y="555" type="line"/>
      <point x="485" y="573" type="line"/>
      <point x="439" y="527" type="line"/>
      <point x="398" y="563"/>
      <point x="344" y="585"/>
      <point x="285" y="585" type="curve" smooth="yes"/>
      <point x="156" y="585"/>
      <point x="53" y="482"/>
      <point x="53" y="354" type="curve" smooth="yes"/>
      <point x="53" y="295"/>
      <point x="76" y="241"/>
      <point x="113" y="200" type="curve"/>
      <point x="69" y="155" type="line"/>
    </contour>
    <contour>
      <point x="132" y="218" type="line"/>
      <point x="100" y="254"/>
      <point x="81" y="301"/>
      <point x="81" y="354" type="curve" smooth="yes"/>
      <point x="81" y="467"/>
      <point x="171" y="558"/>
      <point x="285" y="558" type="curve" smooth="yes"/>
      <point x="336" y="558"/>
      <point x="384" y="539"/>
      <point x="419" y="507" type="curve"/>
    </contour>
    <contour>
      <point x="285" y="149" type="curve" smooth="yes"/>
      <point x="233" y="149"/>
      <point x="185" y="169"/>
      <point x="150" y="200" type="curve"/>
      <point x="437" y="489" type="line"/>
      <point x="469" y="453"/>
      <point x="489" y="406"/>
      <point x="489" y="354" type="curve" smooth="yes"/>
      <point x="489" y="240"/>
      <point x="398" y="149"/>
    </contour>
  </outline>
</glyph>
<glyph name="electricArrow" format="2">
  <advance width="579"/>
  <unicode hex="2301"/>
  <note>
uni2301
</note>
  <outline>
    <contour>
      <point x="301" y="230" type="line"/>
      <point x="301" y="420" type="line"/>
      <point x="523" y="265" type="line"/>
      <point x="523" y="294" type="line"/>
      <point x="277" y="467" type="line"/>
      <point x="277" y="276" type="line"/>
      <point x="55" y="432" type="line"/>
      <point x="55" y="402" type="line"/>
    </contour>
  </outline>
</glyph>
<glyph name="house" format="2">
  <advance width="716"/>
  <unicode hex="2302"/>
  <note>
house
</note>
  <outline>
    <contour>
      <point x="55" y="0" type="line"/>
      <point x="661" y="0" type="line"/>
      <point x="661" y="419" type="line"/>
      <point x="358" y="703" type="line"/>
      <point x="55" y="419" type="line"/>
    </contour>
    <contour>
      <point x="82" y="25" type="line"/>
      <point x="82" y="411" type="line"/>
      <point x="358" y="668" type="line"/>
      <point x="634" y="411" type="line"/>
      <point x="634" y="25" type="line"/>
    </contour>
  </outline>
</glyph>
<glyph name="control" format="2">
  <advance width="512"/>
  <unicode hex="2303"/>
  <note>
uni2303
</note>
  <outline>
    <contour>
      <point x="73" y="409" type="line"/>
      <point x="103" y="409" type="line"/>
      <point x="256" y="711" type="line"/>
      <point x="409" y="409" type="line"/>
      <point x="438" y="409" type="line"/>
      <point x="258" y="760" type="line"/>
      <point x="255" y="760" type="line"/>
    </contour>
  </outline>
</glyph>
<glyph name="downArrowHead" format="2">
  <advance width="512"/>
  <unicode hex="2304"/>
  <note>
uni2304
</note>
  <outline>
    <contour>
      <point x="255" y="-68" type="line"/>
      <point x="258" y="-68" type="line"/>
      <point x="438" y="282" type="line"/>
      <point x="409" y="282" type="line"/>
      <point x="256" y="-20" type="line"/>
      <point x="103" y="282" type="line"/>
      <point x="73" y="282" type="line"/>
    </contour>
  </outline>
</glyph>
<glyph name="projective" format="2">
  <advance width="560"/>
  <unicode hex="2305"/>
  <note>
uni2305
</note>
  <outline>
    <contour>
      <point x="98" y="0" type="line"/>
      <point x="127" y="0" type="line"/>
      <point x="281" y="302" type="line"/>
      <point x="434" y="0" type="line"/>
      <point x="463" y="0" type="line"/>
      <point x="282" y="351" type="line"/>
      <point x="279" y="351" type="line"/>
    </contour>
    <contour>
      <point x="61" y="479" type="line"/>
      <point x="499" y="479" type="line"/>
      <point x="499" y="504" type="line"/>
      <point x="61" y="504" type="line"/>
    </contour>
  </outline>
</glyph>
<glyph name="perspective" format="2">
  <advance width="560"/>
  <unicode hex="2306"/>
  <note>
uni2306
</note>
  <outline>
    <contour>
      <point x="98" y="0" type="line"/>
      <point x="127" y="0" type="line"/>
      <point x="281" y="302" type="line"/>
      <point x="434" y="0" type="line"/>
      <point x="463" y="0" type="line"/>
      <point x="282" y="351" type="line"/>
      <point x="279" y="351" type="line"/>
    </contour>
    <contour>
      <point x="61" y="479" type="line"/>
      <point x="499" y="479" type="line"/>
      <point x="499" y="504" type="line"/>
      <point x="61" y="504" type="line"/>
    </contour>
    <contour>
      <point x="61" y="648" type="line"/>
      <point x="499" y="648" type="line"/>
      <point x="499" y="674" type="line"/>
      <point x="61" y="674" type="line"/>
    </contour>
  </outline>
</glyph>
<glyph name="wavyLine" format="2">
  <advance width="333"/>
  <unicode hex="2307"/>
  <note>
uni2307
</note>
  <outline>
    <contour>
      <point x="240" y="-68" type="curve"/>
      <point x="252" y="-48" type="line"/>
      <point x="218" y="-32"/>
      <point x="169" y="-2"/>
      <point x="146" y="14" type="curve" smooth="yes"/>
      <point x="113" y="37"/>
      <point x="103" y="55"/>
      <point x="103" y="75" type="curve" smooth="yes"/>
      <point x="103" y="95"/>
      <point x="113" y="107"/>
      <point x="145" y="134" type="curve" smooth="yes"/>
      <point x="205" y="186" type="line" smooth="yes"/>
      <point x="241" y="217"/>
      <point x="253" y="234"/>
      <point x="253" y="258" type="curve" smooth="yes"/>
      <point x="253" y="282"/>
      <point x="241" y="299"/>
      <point x="205" y="330" type="curve" smooth="yes"/>
      <point x="145" y="382" type="line" smooth="yes"/>
      <point x="113" y="409"/>
      <point x="103" y="421"/>
      <point x="103" y="441" type="curve" smooth="yes"/>
      <point x="103" y="461"/>
      <point x="113" y="473"/>
      <point x="145" y="500" type="curve" smooth="yes"/>
      <point x="205" y="552" type="line" smooth="yes"/>
      <point x="241" y="583"/>
      <point x="253" y="600"/>
      <point x="253" y="626" type="curve" smooth="yes"/>
      <point x="253" y="653"/>
      <point x="244" y="673"/>
      <point x="202" y="703" type="curve" smooth="yes"/>
      <point x="173" y="724"/>
      <point x="125" y="752"/>
      <point x="92" y="769" type="curve"/>
      <point x="80" y="749" type="line"/>
      <point x="114" y="733"/>
      <point x="163" y="703"/>
      <point x="186" y="687" type="curve" smooth="yes"/>
      <point x="219" y="663"/>
      <point x="229" y="646"/>
      <point x="229" y="626" type="curve" smooth="yes"/>
      <point x="229" y="604"/>
      <point x="219" y="592"/>
      <point x="187" y="565" type="curve" smooth="yes"/>
      <point x="127" y="513" type="line" smooth="yes"/>
      <point x="91" y="482"/>
      <point x="79" y="465"/>
      <point x="79" y="441" type="curve" smooth="yes"/>
      <point x="79" y="417"/>
      <point x="91" y="400"/>
      <point x="127" y="369" type="curve" smooth="yes"/>
      <point x="187" y="317" type="line" smooth="yes"/>
      <point x="219" y="290"/>
      <point x="229" y="278"/>
      <point x="229" y="258" type="curve" smooth="yes"/>
      <point x="229" y="238"/>
      <point x="219" y="226"/>
      <point x="187" y="199" type="curve" smooth="yes"/>
      <point x="127" y="147" type="line" smooth="yes"/>
      <point x="91" y="116"/>
      <point x="79" y="99"/>
      <point x="79" y="75" type="curve" smooth="yes"/>
      <point x="79" y="48"/>
      <point x="88" y="28"/>
      <point x="130" y="-2" type="curve" smooth="yes"/>
      <point x="159" y="-23"/>
      <point x="207" y="-51"/>
    </contour>
  </outline>
</glyph>
<glyph name="leftCeiling" format="2">
  <advance width="404"/>
  <unicode hex="2308"/>
  <note>
uni2308
</note>
  <outline>
    <contour>
      <point x="65" y="-70" type="line"/>
      <point x="91" y="-70" type="line"/>
      <point x="91" y="748" type="line"/>
      <point x="339" y="748" type="line"/>
      <point x="339" y="774" type="line"/>
      <point x="65" y="774" type="line"/>
    </contour>
  </outline>
</glyph>
<glyph name="rightCeiling" format="2">
  <advance width="404"/>
  <unicode hex="2309"/>
  <note>
uni2309
</note>
  <outline>
    <contour>
      <point x="313" y="-60" type="line"/>
      <point x="339" y="-60" type="line"/>
      <point x="339" y="774" type="line"/>
      <point x="65" y="774" type="line"/>
      <point x="65" y="748" type="line"/>
      <point x="313" y="748" type="line"/>
    </contour>
  </outline>
</glyph>
<glyph name="leftFloor" format="2">
  <advance width="404"/>
  <unicode hex="230A"/>
  <note>
uni230A
</note>
  <outline>
    <contour>
      <point x="65" y="-60" type="line"/>
      <point x="339" y="-60" type="line"/>
      <point x="339" y="-35" type="line"/>
      <point x="91" y="-35" type="line"/>
      <point x="91" y="774" type="line"/>
      <point x="65" y="774" type="line"/>
    </contour>
  </outline>
</glyph>
<glyph name="bottomLeftCrop" format="2">
  <advance width="522"/>
  <unicode hex="230D"/>
  <note>
uni230D
</note>
  <outline>
    <contour>
      <point x="105" y="0" type="line"/>
      <point x="320" y="0" type="line"/>
      <point x="320" y="26" type="line"/>
      <point x="105" y="26" type="line"/>
    </contour>
    <contour>
      <point x="391" y="-316" type="line"/>
      <point x="417" y="-316" type="line"/>
      <point x="417" y="-101" type="line"/>
      <point x="391" y="-101" type="line"/>
    </contour>
  </outline>
</glyph>
<glyph name="topRightCrop" format="2">
  <advance width="522"/>
  <unicode hex="230E"/>
  <note>
uni230E
</note>
  <outline>
    <contour>
      <point x="105" y="815" type="line"/>
      <point x="131" y="815" type="line"/>
      <point x="131" y="1030" type="line"/>
      <point x="105" y="1030" type="line"/>
    </contour>
    <contour>
      <point x="202" y="688" type="line"/>
      <point x="417" y="688" type="line"/>
      <point x="417" y="714" type="line"/>
      <point x="202" y="714" type="line"/>
    </contour>
  </outline>
</glyph>
<glyph name="squareLozenge" format="2">
  <advance width="516"/>
  <unicode hex="2311"/>
  <note>
uni2311
</note>
  <outline>
    <contour>
      <point x="51" y="133" type="curve"/>
      <point x="127" y="175"/>
      <point x="196" y="195"/>
      <point x="258" y="195" type="curve" smooth="yes"/>
      <point x="320" y="195"/>
      <point x="388" y="175"/>
      <point x="464" y="133" type="curve"/>
      <point x="442" y="182"/>
      <point x="417" y="285"/>
      <point x="417" y="355" type="curve" smooth="yes"/>
      <point x="417" y="423"/>
      <point x="441" y="524"/>
      <point x="464" y="577" type="curve"/>
      <point x="397" y="538"/>
      <point x="322" y="515"/>
      <point x="258" y="515" type="curve" smooth="yes"/>
      <point x="194" y="515"/>
      <point x="120" y="537"/>
      <point x="51" y="577" type="curve"/>
      <point x="77" y="520"/>
      <point x="99" y="423"/>
      <point x="99" y="355" type="curve" smooth="yes"/>
      <point x="99" y="285"/>
      <point x="75" y="184"/>
    </contour>
    <contour>
      <point x="97" y="187" type="curve"/>
      <point x="113" y="225"/>
      <point x="125" y="291"/>
      <point x="125" y="355" type="curve" smooth="yes"/>
      <point x="125" y="421"/>
      <point x="113" y="483"/>
      <point x="97" y="522" type="curve"/>
      <point x="130" y="504"/>
      <point x="192" y="488"/>
      <point x="258" y="488" type="curve" smooth="yes"/>
      <point x="324" y="488"/>
      <point x="386" y="504"/>
      <point x="419" y="522" type="curve"/>
      <point x="406" y="492"/>
      <point x="391" y="424"/>
      <point x="391" y="355" type="curve" smooth="yes"/>
      <point x="391" y="290"/>
      <point x="405" y="219"/>
      <point x="419" y="187" type="curve"/>
      <point x="386" y="206"/>
      <point x="324" y="222"/>
      <point x="258" y="222" type="curve" smooth="yes"/>
      <point x="192" y="222"/>
      <point x="130" y="206"/>
    </contour>
  </outline>
</glyph>
<glyph name="arc" format="2">
  <advance width="844"/>
  <unicode hex="2312"/>
  <note>
uni2312
</note>
  <outline>
    <contour>
      <point x="51" y="112" type="curve"/>
      <point x="78" y="112" type="line"/>
      <point x="78" y="280"/>
      <point x="218" y="457"/>
      <point x="422" y="457" type="curve" smooth="yes"/>
      <point x="626" y="457"/>
      <point x="766" y="280"/>
      <point x="766" y="112" type="curve"/>
      <point x="793" y="112" type="line"/>
      <point x="793" y="316"/>
      <point x="628" y="483"/>
      <point x="422" y="483" type="curve" smooth="yes"/>
      <point x="216" y="483"/>
      <point x="51" y="316"/>
    </contour>
  </outline>
</glyph>
<glyph name="segment" format="2">
  <advance width="844"/>
  <unicode hex="2313"/>
  <note>
uni2313
</note>
  <outline>
    <contour>
      <point x="51" y="112" type="curve"/>
      <point x="793" y="112" type="line"/>
      <point x="793" y="316"/>
      <point x="628" y="483"/>
      <point x="422" y="483" type="curve" smooth="yes"/>
      <point x="216" y="483"/>
      <point x="51" y="316"/>
    </contour>
    <contour>
      <point x="79" y="137" type="line"/>
      <point x="92" y="297"/>
      <point x="228" y="457"/>
      <point x="422" y="457" type="curve" smooth="yes"/>
      <point x="616" y="457"/>
      <point x="751" y="297"/>
      <point x="765" y="137" type="curve"/>
    </contour>
  </outline>
</glyph>
<glyph name="sector" format="2">
  <advance width="564"/>
  <unicode hex="2314"/>
  <note>
uni2314
</note>
  <outline>
    <contour>
      <point x="282" y="112" type="line"/>
      <point x="537" y="382" type="line"/>
      <point x="471" y="444"/>
      <point x="381" y="483"/>
      <point x="282" y="483" type="curve" smooth="yes"/>
      <point x="183" y="483"/>
      <point x="93" y="444"/>
      <point x="27" y="382" type="curve"/>
    </contour>
    <contour>
      <point x="282" y="147" type="line"/>
      <point x="64" y="378" type="line"/>
      <point x="122" y="426"/>
      <point x="196" y="457"/>
      <point x="282" y="457" type="curve" smooth="yes"/>
      <point x="368" y="457"/>
      <point x="442" y="426"/>
      <point x="500" y="378" type="curve"/>
    </contour>
  </outline>
</glyph>
<glyph name="telephoneRecorder" format="2">
  <advance width="634"/>
  <unicode hex="2315"/>
  <note>
uni2315
</note>
  <outline>
    <contour>
      <point x="81" y="56" type="line"/>
      <point x="206" y="180" type="line"/>
      <point x="245" y="147"/>
      <point x="296" y="128"/>
      <point x="351" y="128" type="curve" smooth="yes"/>
      <point x="477" y="128"/>
      <point x="577" y="229"/>
      <point x="577" y="354" type="curve" smooth="yes"/>
      <point x="577" y="479"/>
      <point x="477" y="580"/>
      <point x="351" y="580" type="curve" smooth="yes"/>
      <point x="226" y="580"/>
      <point x="125" y="479"/>
      <point x="125" y="354" type="curve" smooth="yes"/>
      <point x="125" y="293"/>
      <point x="148" y="239"/>
      <point x="187" y="198" type="curve"/>
      <point x="63" y="75" type="line"/>
    </contour>
    <contour>
      <point x="351" y="155" type="curve" smooth="yes"/>
      <point x="240" y="155"/>
      <point x="152" y="244"/>
      <point x="152" y="354" type="curve" smooth="yes"/>
      <point x="152" y="465"/>
      <point x="241" y="553"/>
      <point x="351" y="553" type="curve" smooth="yes"/>
      <point x="461" y="553"/>
      <point x="550" y="465"/>
      <point x="550" y="354" type="curve" smooth="yes"/>
      <point x="550" y="242"/>
      <point x="459" y="155"/>
    </contour>
  </outline>
</glyph>
<glyph name="viewdataSquare" format="2">
  <advance width="823"/>
  <unicode hex="2317"/>
  <note>
uni2317
</note>
  <outline>
    <contour>
      <point x="55" y="123" type="line"/>
      <point x="769" y="123" type="line"/>
      <point x="769" y="149" type="line"/>
      <point x="55" y="149" type="line"/>
    </contour>
    <contour>
      <point x="55" y="563" type="line"/>
      <point x="769" y="563" type="line"/>
      <point x="769" y="589" type="line"/>
      <point x="55" y="589" type="line"/>
    </contour>
    <contour>
      <point x="178" y="0" type="line"/>
      <point x="204" y="0" type="line"/>
      <point x="204" y="712" type="line"/>
      <point x="178" y="712" type="line"/>
    </contour>
    <contour>
      <point x="619" y="0" type="line"/>
      <point x="645" y="0" type="line"/>
      <point x="645" y="712" type="line"/>
      <point x="619" y="712" type="line"/>
    </contour>
  </outline>
</glyph>
<glyph name="topLeftCorner" format="2">
  <advance width="442"/>
  <unicode hex="231C"/>
  <note>
uni231C
</note>
  <outline>
    <contour>
      <point x="64" y="373" type="line"/>
      <point x="91" y="373" type="line"/>
      <point x="91" y="688" type="line"/>
      <point x="377" y="688" type="line"/>
      <point x="377" y="714" type="line"/>
      <point x="64" y="714" type="line"/>
    </contour>
  </outline>
</glyph>
<glyph name="topRightcorner" format="2">
  <advance width="442"/>
  <unicode hex="231D"/>
  <note>
uni231D
</note>
  <outline>
    <contour>
      <point x="351" y="373" type="line"/>
      <point x="377" y="373" type="line"/>
      <point x="377" y="714" type="line"/>
      <point x="65" y="714" type="line"/>
      <point x="65" y="688" type="line"/>
      <point x="351" y="688" type="line"/>
    </contour>
  </outline>
</glyph>
<glyph name="bottomLeftCorner" format="2">
  <advance width="442"/>
  <unicode hex="231E"/>
  <note>
uni231E
</note>
  <outline>
    <contour>
      <point x="64" y="0" type="line"/>
      <point x="377" y="0" type="line"/>
      <point x="377" y="25" type="line"/>
      <point x="91" y="25" type="line"/>
      <point x="91" y="341" type="line"/>
      <point x="64" y="341" type="line"/>
    </contour>
  </outline>
</glyph>
<glyph name="bottomRightCorner" format="2">
  <advance width="442"/>
  <unicode hex="231F"/>
  <note>
uni231F
</note>
  <outline>
    <contour>
      <point x="65" y="0" type="line"/>
      <point x="377" y="0" type="line"/>
      <point x="377" y="341" type="line"/>
      <point x="351" y="341" type="line"/>
      <point x="351" y="25" type="line"/>
      <point x="65" y="25" type="line"/>
    </contour>
  </outline>
</glyph>
<glyph name="frown" format="2">
  <advance width="951"/>
  <unicode hex="2322"/>
  <note>
uni2322
</note>
  <outline>
    <contour>
      <point x="78" y="208" type="curve"/>
      <point x="111" y="208" type="line"/>
      <point x="208" y="300"/>
      <point x="342" y="353"/>
      <point x="475" y="353" type="curve" smooth="yes"/>
      <point x="608" y="353"/>
      <point x="739" y="300"/>
      <point x="838" y="208" type="curve"/>
      <point x="873" y="208" type="line"/>
      <point x="770" y="315"/>
      <point x="628" y="378"/>
      <point x="475" y="378" type="curve" smooth="yes"/>
      <point x="324" y="378"/>
      <point x="180" y="314"/>
    </contour>
  </outline>
</glyph>
<glyph name="smile" format="2">
  <advance width="951"/>
  <unicode hex="2323"/>
  <note>
uni2323
</note>
  <outline>
    <contour>
      <point x="475" y="133" type="curve"/>
      <point x="627" y="133"/>
      <point x="770" y="196"/>
      <point x="873" y="303" type="curve"/>
      <point x="839" y="303" type="line"/>
      <point x="744" y="214"/>
      <point x="613" y="158"/>
      <point x="475" y="158" type="curve" smooth="yes"/>
      <point x="339" y="158"/>
      <point x="205" y="216"/>
      <point x="111" y="303" type="curve"/>
      <point x="78" y="303" type="line"/>
      <point x="181" y="196"/>
      <point x="324" y="133"/>
    </contour>
  </outline>
</glyph>
<glyph name="angleLeft" format="2">
  <advance width="292"/>
  <unicode hex="2329"/>
  <note>
angleleft
</note>
  <outline>
    <contour>
      <point x="183" y="-200" type="line"/>
      <point x="210" y="-200" type="line"/>
      <point x="67" y="277" type="line"/>
      <point x="210" y="754" type="line"/>
      <point x="183" y="754" type="line"/>
      <point x="41" y="277" type="line"/>
    </contour>
  </outline>
</glyph>
<glyph name="angleRight" format="2">
  <advance width="292"/>
  <unicode hex="232A"/>
  <note>
angleright
</note>
  <outline>
    <contour>
      <point x="82" y="-200" type="line"/>
      <point x="109" y="-200" type="line"/>
      <point x="251" y="277" type="line"/>
      <point x="109" y="754" type="line"/>
      <point x="82" y="754" type="line"/>
      <point x="225" y="277" type="line"/>
    </contour>
  </outline>
</glyph>
<glyph name="benzenering" format="2">
  <advance width="788"/>
  <unicode hex="232C"/>
  <note>
uni232C
</note>
  <outline>
    <contour>
      <point x="394" y="18" type="line"/>
      <point x="720" y="179" type="line"/>
      <point x="720" y="599" type="line"/>
      <point x="394" y="760" type="line"/>
      <point x="67" y="599" type="line"/>
      <point x="67" y="179" type="line"/>
    </contour>
    <contour>
      <point x="182" y="241" type="line"/>
      <point x="208" y="241" type="line"/>
      <point x="208" y="537" type="line"/>
      <point x="182" y="537" type="line"/>
    </contour>
    <contour>
      <point x="403" y="149" type="line"/>
      <point x="611" y="252" type="line"/>
      <point x="600" y="274" type="line"/>
      <point x="392" y="171" type="line"/>
    </contour>
    <contour>
      <point x="394" y="49" type="line"/>
      <point x="94" y="194" type="line"/>
      <point x="94" y="583" type="line"/>
      <point x="394" y="729" type="line"/>
      <point x="694" y="583" type="line"/>
      <point x="694" y="194" type="line"/>
    </contour>
    <contour>
      <point x="600" y="505" type="line"/>
      <point x="611" y="526" type="line"/>
      <point x="403" y="629" type="line"/>
      <point x="392" y="607" type="line"/>
    </contour>
  </outline>
</glyph>
<glyph name="cylindricity" format="2">
  <advance width="925"/>
  <unicode hex="232D"/>
  <note>
uni232D
</note>
  <outline>
    <contour>
      <point x="84" y="49" type="line"/>
      <point x="266" y="352" type="line"/>
      <point x="267" y="244"/>
      <point x="354" y="156"/>
      <point x="463" y="156" type="curve" smooth="yes"/>
      <point x="498" y="156"/>
      <point x="531" y="165"/>
      <point x="559" y="181" type="curve"/>
      <point x="491" y="64" type="line"/>
      <point x="517" y="49" type="line"/>
      <point x="868" y="642" type="line"/>
      <point x="842" y="657" type="line"/>
      <point x="660" y="354" type="line"/>
      <point x="659" y="462"/>
      <point x="571" y="550"/>
      <point x="463" y="550" type="curve" smooth="yes"/>
      <point x="428" y="550"/>
      <point x="395" y="541"/>
      <point x="366" y="525" type="curve"/>
      <point x="435" y="642" type="line"/>
      <point x="409" y="657" type="line"/>
      <point x="58" y="64" type="line"/>
    </contour>
    <contour>
      <point x="463" y="184" type="curve" smooth="yes"/>
      <point x="369" y="184"/>
      <point x="293" y="259"/>
      <point x="293" y="353" type="curve" smooth="yes"/>
      <point x="293" y="447"/>
      <point x="369" y="522"/>
      <point x="463" y="522" type="curve" smooth="yes"/>
      <point x="557" y="522"/>
      <point x="632" y="447"/>
      <point x="632" y="353" type="curve" smooth="yes"/>
      <point x="632" y="259"/>
      <point x="557" y="184"/>
    </contour>
  </outline>
</glyph>
<glyph name="allAroundProfile" format="2">
  <advance width="710"/>
  <unicode hex="232E"/>
  <note>
uni232E
</note>
  <outline>
    <contour>
      <point x="185" y="60" type="line"/>
      <point x="132" y="112" type="line"/>
      <point x="205" y="186" type="line"/>
      <point x="240" y="157"/>
      <point x="286" y="141"/>
      <point x="335" y="141" type="curve" smooth="yes"/>
      <point x="447" y="141"/>
      <point x="538" y="227"/>
      <point x="544" y="337" type="curve"/>
      <point x="654" y="337" type="line"/>
      <point x="654" y="362" type="line"/>
      <point x="544" y="362" type="line"/>
      <point x="537" y="472"/>
      <point x="446" y="558"/>
      <point x="335" y="558" type="curve" smooth="yes"/>
      <point x="219" y="558"/>
      <point x="125" y="465"/>
      <point x="125" y="349" type="curve" smooth="yes"/>
      <point x="125" y="292"/>
      <point x="148" y="240"/>
      <point x="186" y="203" type="curve"/>
      <point x="114" y="129" type="line"/>
      <point x="63" y="179" type="line"/>
      <point x="69" y="65" type="line"/>
    </contour>
    <contour>
      <point x="335" y="167" type="curve" smooth="yes"/>
      <point x="293" y="167"/>
      <point x="255" y="182"/>
      <point x="224" y="205" type="curve"/>
      <point x="353" y="337" type="line"/>
      <point x="517" y="337" type="line"/>
      <point x="511" y="243"/>
      <point x="431" y="167"/>
    </contour>
    <contour>
      <point x="205" y="222" type="line"/>
      <point x="173" y="255"/>
      <point x="153" y="299"/>
      <point x="153" y="349" type="curve" smooth="yes"/>
      <point x="153" y="449"/>
      <point x="235" y="531"/>
      <point x="335" y="531" type="curve" smooth="yes"/>
      <point x="431" y="531"/>
      <point x="510" y="457"/>
      <point x="517" y="362" type="curve"/>
      <point x="343" y="362" type="line"/>
    </contour>
  </outline>
</glyph>
<glyph name="symmetry" format="2">
  <advance width="572"/>
  <unicode hex="232F"/>
  <note>
uni232F
</note>
  <outline>
    <contour>
      <point x="62" y="340" type="line"/>
      <point x="509" y="340" type="line"/>
      <point x="509" y="365" type="line"/>
      <point x="62" y="365" type="line"/>
    </contour>
    <contour>
      <point x="147" y="200" type="line"/>
      <point x="424" y="200" type="line"/>
      <point x="424" y="225" type="line"/>
      <point x="147" y="225" type="line"/>
    </contour>
    <contour>
      <point x="147" y="480" type="line"/>
      <point x="424" y="480" type="line"/>
      <point x="424" y="505" type="line"/>
      <point x="147" y="505" type="line"/>
    </contour>
  </outline>
</glyph>
<glyph name="totalRunout" format="2">
  <advance width="809"/>
  <unicode hex="2330"/>
  <note>
uni2330
</note>
  <outline>
    <contour>
      <point x="66" y="0" type="line"/>
      <point x="493" y="0" type="line"/>
      <point x="683" y="629" type="line"/>
      <point x="743" y="608" type="line"/>
      <point x="692" y="693" type="line"/>
      <point x="600" y="658" type="line"/>
      <point x="659" y="637" type="line"/>
      <point x="474" y="25" type="line"/>
      <point x="100" y="25" type="line"/>
      <point x="283" y="629" type="line"/>
      <point x="342" y="608" type="line"/>
      <point x="292" y="693" type="line"/>
      <point x="199" y="658" type="line"/>
      <point x="259" y="637" type="line"/>
    </contour>
  </outline>
</glyph>
<glyph name="dimensionOrigin" format="2">
  <advance width="810"/>
  <unicode hex="2331"/>
  <note>
uni2331
</note>
  <outline>
    <contour>
      <point x="270" y="141" type="curve" smooth="yes"/>
      <point x="386" y="141"/>
      <point x="479" y="233"/>
      <point x="479" y="349" type="curve" smooth="yes"/>
      <point x="479" y="465"/>
      <point x="386" y="558"/>
      <point x="270" y="558" type="curve" smooth="yes"/>
      <point x="154" y="558"/>
      <point x="61" y="465"/>
      <point x="61" y="349" type="curve" smooth="yes"/>
      <point x="61" y="233"/>
      <point x="154" y="141"/>
    </contour>
    <contour>
      <point x="270" y="167" type="curve" smooth="yes"/>
      <point x="170" y="167"/>
      <point x="88" y="249"/>
      <point x="88" y="349" type="curve" smooth="yes"/>
      <point x="88" y="449"/>
      <point x="170" y="531"/>
      <point x="270" y="531" type="curve" smooth="yes"/>
      <point x="370" y="531"/>
      <point x="452" y="449"/>
      <point x="452" y="349" type="curve" smooth="yes"/>
      <point x="452" y="249"/>
      <point x="370" y="167"/>
    </contour>
    <contour>
      <point x="257" y="5" type="line"/>
      <point x="283" y="5" type="line"/>
      <point x="283" y="709" type="line"/>
      <point x="257" y="709" type="line"/>
    </contour>
    <contour>
      <point x="257" y="336" type="line"/>
      <point x="689" y="336" type="line"/>
      <point x="689" y="362" type="line"/>
      <point x="257" y="362" type="line"/>
    </contour>
    <contour>
      <point x="664" y="256" type="line"/>
      <point x="749" y="350" type="line"/>
      <point x="664" y="444" type="line"/>
    </contour>
  </outline>
</glyph>
<glyph name="conicalTaper" format="2">
  <advance width="872"/>
  <unicode hex="2332"/>
  <note>
uni2332
</note>
  <outline>
    <contour>
      <point x="56" y="-40" type="line"/>
      <point x="816" y="287" type="line"/>
      <point x="816" y="310" type="line"/>
      <point x="56" y="636" type="line"/>
    </contour>
    <contour>
      <point x="82" y="0" type="line"/>
      <point x="82" y="286" type="line"/>
      <point x="749" y="286" type="line"/>
    </contour>
    <contour>
      <point x="82" y="311" type="line"/>
      <point x="82" y="596" type="line"/>
      <point x="749" y="311" type="line"/>
    </contour>
  </outline>
</glyph>
<glyph name="slope" format="2">
  <advance width="872"/>
  <unicode hex="2333"/>
  <note>
uni2333
</note>
  <outline>
    <contour>
      <point x="56" y="286" type="line"/>
      <point x="816" y="286" type="line"/>
      <point x="816" y="298" type="line"/>
      <point x="56" y="636" type="line"/>
    </contour>
    <contour>
      <point x="82" y="311" type="line"/>
      <point x="82" y="596" type="line"/>
      <point x="725" y="311" type="line"/>
    </contour>
  </outline>
</glyph>
<glyph name="counterbore" format="2">
  <advance width="715"/>
  <unicode hex="2334"/>
  <note>
uni2334
</note>
  <outline>
    <contour>
      <point x="56" y="5" type="line"/>
      <point x="659" y="5" type="line"/>
      <point x="659" y="354" type="line"/>
      <point x="633" y="354" type="line"/>
      <point x="633" y="30" type="line"/>
      <point x="82" y="30" type="line"/>
      <point x="82" y="354" type="line"/>
      <point x="56" y="354" type="line"/>
    </contour>
  </outline>
</glyph>
<glyph name="countersink" format="2">
  <advance width="976"/>
  <unicode hex="2335"/>
  <note>
uni2335
</note>
  <outline>
    <contour>
      <point x="488" y="-18" type="line"/>
      <point x="920" y="354" type="line"/>
      <point x="879" y="354" type="line"/>
      <point x="488" y="18" type="line"/>
      <point x="96" y="354" type="line"/>
      <point x="56" y="354" type="line"/>
    </contour>
  </outline>
</glyph>
<glyph name="rightangledownzigzagArrow" format="2">
  <advance width="943"/>
  <unicode hex="237C"/>
  <note>
uni237C
</note>
  <outline>
    <contour>
      <point x="212" y="-137" type="line"/>
      <point x="149" y="-74" type="line"/>
      <point x="255" y="10" type="line"/>
      <point x="882" y="10" type="line"/>
      <point x="882" y="35" type="line"/>
      <point x="286" y="35" type="line"/>
      <point x="401" y="128"/>
      <point x="426" y="171"/>
      <point x="426" y="219" type="curve" smooth="yes"/>
      <point x="426" y="268"/>
      <point x="400" y="298"/>
      <point x="264" y="348" type="curve"/>
      <point x="264" y="648" type="line"/>
      <point x="357" y="711" type="line"/>
      <point x="345" y="731" type="line"/>
      <point x="264" y="677" type="line"/>
      <point x="264" y="709" type="line"/>
      <point x="237" y="709" type="line"/>
      <point x="237" y="660" type="line"/>
      <point x="143" y="597"/>
      <point x="79" y="548"/>
      <point x="79" y="479" type="curve" smooth="yes"/>
      <point x="79" y="423"/>
      <point x="121" y="375"/>
      <point x="237" y="329" type="curve"/>
      <point x="237" y="28" type="line"/>
      <point x="133" y="-54" type="line"/>
      <point x="83" y="21" type="line"/>
      <point x="61" y="-127" type="line"/>
    </contour>
    <contour>
      <point x="264" y="49" type="curve"/>
      <point x="264" y="320" type="line"/>
      <point x="363" y="281"/>
      <point x="399" y="262"/>
      <point x="399" y="216" type="curve" smooth="yes"/>
      <point x="399" y="165"/>
      <point x="355" y="123"/>
    </contour>
    <contour>
      <point x="237" y="357" type="line"/>
      <point x="166" y="387"/>
      <point x="106" y="417"/>
      <point x="106" y="480" type="curve" smooth="yes"/>
      <point x="106" y="531"/>
      <point x="145" y="570"/>
      <point x="237" y="631" type="curve"/>
    </contour>
  </outline>
</glyph>
<glyph name="insertionsymbol" format="2">
  <advance width="812"/>
  <unicode hex="2380"/>
  <note>
uni2380
</note>
  <outline>
    <contour>
      <point x="406" y="-11" type="line"/>
      <point x="737" y="367" type="line"/>
      <point x="703" y="367" type="line"/>
      <point x="406" y="29" type="line"/>
      <point x="108" y="367" type="line"/>
      <point x="75" y="367" type="line"/>
    </contour>
    <contour>
      <point x="381" y="383" type="curve" smooth="yes"/>
      <point x="319" y="383"/>
      <point x="303" y="414"/>
      <point x="303" y="450" type="curve" smooth="yes"/>
      <point x="303" y="493"/>
      <point x="328" y="522"/>
      <point x="440" y="526" type="curve" smooth="yes"/>
      <point x="488" y="528" type="line"/>
      <point x="488" y="493" type="line" smooth="yes"/>
      <point x="488" y="399"/>
      <point x="426" y="383"/>
    </contour>
    <contour>
      <point x="376" y="358" type="curve" smooth="yes"/>
      <point x="441" y="358"/>
      <point x="478" y="393"/>
      <point x="492" y="423" type="curve"/>
      <point x="484" y="435" type="line"/>
      <point x="494" y="364" type="line"/>
      <point x="514" y="364" type="line"/>
      <point x="514" y="578" type="line" smooth="yes"/>
      <point x="514" y="659"/>
      <point x="476" y="687"/>
      <point x="408" y="687" type="curve" smooth="yes"/>
      <point x="363" y="687"/>
      <point x="321" y="675"/>
      <point x="290" y="661" type="curve"/>
      <point x="300" y="636" type="line"/>
      <point x="337" y="654"/>
      <point x="377" y="661"/>
      <point x="408" y="661" type="curve" smooth="yes"/>
      <point x="479" y="661"/>
      <point x="488" y="621"/>
      <point x="488" y="584" type="curve" smooth="yes"/>
      <point x="488" y="553" type="line"/>
      <point x="432" y="551" type="line" smooth="yes"/>
      <point x="320" y="546"/>
      <point x="276" y="512"/>
      <point x="276" y="449" type="curve" smooth="yes"/>
      <point x="276" y="394"/>
      <point x="310" y="358"/>
    </contour>
  </outline>
</glyph>
<glyph name="continuousunderlinesymbol" format="2">
  <advance width="812"/>
  <unicode hex="2381"/>
  <note>
uni2381
</note>
  <outline>
    <contour>
      <point x="188" y="358" type="curve" smooth="yes"/>
      <point x="254" y="358"/>
      <point x="291" y="393"/>
      <point x="304" y="423" type="curve"/>
      <point x="296" y="435" type="line"/>
      <point x="306" y="364" type="line"/>
      <point x="327" y="364" type="line"/>
      <point x="327" y="578" type="line" smooth="yes"/>
      <point x="327" y="659"/>
      <point x="289" y="687"/>
      <point x="220" y="687" type="curve" smooth="yes"/>
      <point x="176" y="687"/>
      <point x="133" y="675"/>
      <point x="103" y="661" type="curve"/>
      <point x="113" y="636" type="line"/>
      <point x="149" y="654"/>
      <point x="189" y="661"/>
      <point x="220" y="661" type="curve" smooth="yes"/>
      <point x="292" y="661"/>
      <point x="300" y="621"/>
      <point x="300" y="584" type="curve" smooth="yes"/>
      <point x="300" y="553" type="line"/>
      <point x="245" y="551" type="line" smooth="yes"/>
      <point x="133" y="546"/>
      <point x="88" y="512"/>
      <point x="88" y="449" type="curve" smooth="yes"/>
      <point x="88" y="394"/>
      <point x="122" y="358"/>
    </contour>
    <contour>
      <point x="70" y="242" type="line"/>
      <point x="741" y="242" type="line"/>
      <point x="741" y="268" type="line"/>
      <point x="70" y="268" type="line"/>
    </contour>
    <contour>
      <point x="193" y="383" type="curve" smooth="yes"/>
      <point x="131" y="383"/>
      <point x="116" y="414"/>
      <point x="116" y="450" type="curve" smooth="yes"/>
      <point x="116" y="493"/>
      <point x="140" y="522"/>
      <point x="252" y="526" type="curve" smooth="yes"/>
      <point x="300" y="528" type="line"/>
      <point x="300" y="493" type="line" smooth="yes"/>
      <point x="300" y="399"/>
      <point x="238" y="383"/>
    </contour>
    <contour>
      <point x="438" y="354" type="curve" smooth="yes"/>
      <point x="455" y="354"/>
      <point x="468" y="366"/>
      <point x="468" y="383" type="curve" smooth="yes"/>
      <point x="468" y="399"/>
      <point x="455" y="412"/>
      <point x="438" y="412" type="curve" smooth="yes"/>
      <point x="422" y="412"/>
      <point x="409" y="399"/>
      <point x="409" y="383" type="curve" smooth="yes"/>
      <point x="409" y="366"/>
      <point x="422" y="354"/>
    </contour>
    <contour>
      <point x="575" y="354" type="curve" smooth="yes"/>
      <point x="592" y="354"/>
      <point x="604" y="366"/>
      <point x="604" y="383" type="curve" smooth="yes"/>
      <point x="604" y="399"/>
      <point x="592" y="412"/>
      <point x="575" y="412" type="curve" smooth="yes"/>
      <point x="559" y="412"/>
      <point x="546" y="399"/>
      <point x="546" y="383" type="curve" smooth="yes"/>
      <point x="546" y="366"/>
      <point x="559" y="354"/>
    </contour>
    <contour>
      <point x="712" y="354" type="curve" smooth="yes"/>
      <point x="729" y="354"/>
      <point x="741" y="366"/>
      <point x="741" y="383" type="curve" smooth="yes"/>
      <point x="741" y="399"/>
      <point x="729" y="412"/>
      <point x="712" y="412" type="curve" smooth="yes"/>
      <point x="695" y="412"/>
      <point x="683" y="399"/>
      <point x="683" y="383" type="curve" smooth="yes"/>
      <point x="683" y="366"/>
      <point x="695" y="354"/>
    </contour>
  </outline>
</glyph>
<glyph name="discontinuousunderlinesymbol" format="2">
  <advance width="812"/>
  <unicode hex="2382"/>
  <note>
uni2382
</note>
  <outline>
    <contour>
      <point x="572" y="358" type="curve" smooth="yes"/>
      <point x="638" y="358"/>
      <point x="674" y="393"/>
      <point x="688" y="423" type="curve"/>
      <point x="680" y="436" type="line"/>
      <point x="690" y="364" type="line"/>
      <point x="710" y="364" type="line"/>
      <point x="710" y="578" type="line" smooth="yes"/>
      <point x="710" y="659"/>
      <point x="672" y="687"/>
      <point x="604" y="687" type="curve" smooth="yes"/>
      <point x="560" y="687"/>
      <point x="517" y="675"/>
      <point x="486" y="661" type="curve"/>
      <point x="497" y="636" type="line"/>
      <point x="533" y="654"/>
      <point x="573" y="661"/>
      <point x="604" y="661" type="curve" smooth="yes"/>
      <point x="676" y="661"/>
      <point x="684" y="621"/>
      <point x="684" y="584" type="curve" smooth="yes"/>
      <point x="684" y="553" type="line"/>
      <point x="628" y="551" type="line" smooth="yes"/>
      <point x="517" y="547"/>
      <point x="472" y="512"/>
      <point x="472" y="449" type="curve" smooth="yes"/>
      <point x="472" y="394"/>
      <point x="506" y="358"/>
    </contour>
    <contour>
      <point x="102" y="242" type="line"/>
      <point x="349" y="242" type="line"/>
      <point x="349" y="268" type="line"/>
      <point x="102" y="268" type="line"/>
    </contour>
    <contour>
      <point x="216" y="383" type="curve" smooth="yes"/>
      <point x="154" y="383"/>
      <point x="138" y="414"/>
      <point x="138" y="450" type="curve" smooth="yes"/>
      <point x="138" y="493"/>
      <point x="163" y="521"/>
      <point x="275" y="526" type="curve" smooth="yes"/>
      <point x="323" y="528" type="line"/>
      <point x="323" y="493" type="line" smooth="yes"/>
      <point x="323" y="399"/>
      <point x="261" y="383"/>
    </contour>
    <contour>
      <point x="211" y="358" type="curve" smooth="yes"/>
      <point x="276" y="358"/>
      <point x="313" y="393"/>
      <point x="327" y="423" type="curve"/>
      <point x="319" y="436" type="line"/>
      <point x="329" y="364" type="line"/>
      <point x="349" y="364" type="line"/>
      <point x="349" y="578" type="line" smooth="yes"/>
      <point x="349" y="659"/>
      <point x="311" y="687"/>
      <point x="243" y="687" type="curve" smooth="yes"/>
      <point x="198" y="687"/>
      <point x="156" y="675"/>
      <point x="125" y="661" type="curve"/>
      <point x="135" y="636" type="line"/>
      <point x="172" y="654"/>
      <point x="212" y="661"/>
      <point x="243" y="661" type="curve" smooth="yes"/>
      <point x="314" y="661"/>
      <point x="323" y="621"/>
      <point x="323" y="584" type="curve" smooth="yes"/>
      <point x="323" y="553" type="line"/>
      <point x="267" y="551" type="line" smooth="yes"/>
      <point x="155" y="547"/>
      <point x="111" y="512"/>
      <point x="111" y="449" type="curve" smooth="yes"/>
      <point x="111" y="394"/>
      <point x="145" y="358"/>
    </contour>
    <contour>
      <point x="463" y="242" type="line"/>
      <point x="710" y="242" type="line"/>
      <point x="710" y="268" type="line"/>
      <point x="463" y="268" type="line"/>
    </contour>
    <contour>
      <point x="577" y="383" type="curve" smooth="yes"/>
      <point x="515" y="383"/>
      <point x="500" y="414"/>
      <point x="500" y="450" type="curve" smooth="yes"/>
      <point x="500" y="493"/>
      <point x="524" y="521"/>
      <point x="636" y="526" type="curve" smooth="yes"/>
      <point x="684" y="528" type="line"/>
      <point x="684" y="493" type="line" smooth="yes"/>
      <point x="684" y="399"/>
      <point x="622" y="383"/>
    </contour>
  </outline>
</glyph>
<glyph name="emphasissymbol" format="2">
  <advance width="812"/>
  <unicode hex="2383"/>
  <note>
uni2383
</note>
  <outline>
    <contour>
      <point x="377" y="192" type="curve" smooth="yes"/>
      <point x="443" y="192"/>
      <point x="479" y="227"/>
      <point x="493" y="257" type="curve"/>
      <point x="485" y="269" type="line"/>
      <point x="495" y="198" type="line"/>
      <point x="516" y="198" type="line"/>
      <point x="516" y="412" type="line" smooth="yes"/>
      <point x="516" y="493"/>
      <point x="478" y="521"/>
      <point x="409" y="521" type="curve" smooth="yes"/>
      <point x="365" y="521"/>
      <point x="322" y="509"/>
      <point x="292" y="495" type="curve"/>
      <point x="302" y="470" type="line"/>
      <point x="338" y="488"/>
      <point x="378" y="495"/>
      <point x="409" y="495" type="curve" smooth="yes"/>
      <point x="481" y="495"/>
      <point x="489" y="455"/>
      <point x="489" y="418" type="curve" smooth="yes"/>
      <point x="489" y="387" type="line"/>
      <point x="434" y="385" type="line" smooth="yes"/>
      <point x="322" y="380"/>
      <point x="277" y="346"/>
      <point x="277" y="283" type="curve" smooth="yes"/>
      <point x="277" y="228"/>
      <point x="311" y="192"/>
    </contour>
    <contour>
      <point x="81" y="178" type="line"/>
      <point x="214" y="232" type="line"/>
      <point x="214" y="258" type="line"/>
      <point x="70" y="202" type="line"/>
    </contour>
    <contour>
      <point x="47" y="341" type="line"/>
      <point x="214" y="341" type="line"/>
      <point x="214" y="366" type="line"/>
      <point x="47" y="366" type="line"/>
    </contour>
    <contour>
      <point x="214" y="450" type="line"/>
      <point x="214" y="476" type="line"/>
      <point x="81" y="535" type="line"/>
      <point x="70" y="511" type="line"/>
    </contour>
    <contour>
      <point x="382" y="217" type="curve" smooth="yes"/>
      <point x="320" y="217"/>
      <point x="305" y="248"/>
      <point x="305" y="284" type="curve" smooth="yes"/>
      <point x="305" y="327"/>
      <point x="329" y="356"/>
      <point x="441" y="360" type="curve" smooth="yes"/>
      <point x="489" y="362" type="line"/>
      <point x="489" y="327" type="line" smooth="yes"/>
      <point x="489" y="233"/>
      <point x="427" y="217"/>
    </contour>
    <contour>
      <point x="729" y="178" type="line"/>
      <point x="739" y="202" type="line"/>
      <point x="595" y="258" type="line"/>
      <point x="595" y="232" type="line"/>
    </contour>
    <contour>
      <point x="595" y="341" type="line"/>
      <point x="762" y="341" type="line"/>
      <point x="762" y="366" type="line"/>
      <point x="595" y="366" type="line"/>
    </contour>
    <contour>
      <point x="595" y="450" type="line"/>
      <point x="739" y="511" type="line"/>
      <point x="729" y="535" type="line"/>
      <point x="595" y="476" type="line"/>
    </contour>
  </outline>
</glyph>
<glyph name="compositionsymbol" format="2">
  <advance width="1173"/>
  <unicode hex="2384"/>
  <note>
uni2384
</note>
  <outline>
    <contour>
      <point x="61" y="10" type="line"/>
      <point x="765" y="10" type="line" smooth="yes"/>
      <point x="956" y="10"/>
      <point x="1112" y="166"/>
      <point x="1112" y="357" type="curve" smooth="yes"/>
      <point x="1112" y="548"/>
      <point x="956" y="704"/>
      <point x="765" y="704" type="curve" smooth="yes"/>
      <point x="61" y="704" type="line"/>
    </contour>
    <contour>
      <point x="87" y="35" type="line"/>
      <point x="87" y="679" type="line"/>
      <point x="635" y="679" type="line"/>
      <point x="508" y="627"/>
      <point x="418" y="502"/>
      <point x="418" y="357" type="curve" smooth="yes"/>
      <point x="418" y="211"/>
      <point x="508" y="87"/>
      <point x="635" y="35" type="curve"/>
    </contour>
    <contour>
      <point x="751" y="37" type="line"/>
      <point x="581" y="44"/>
      <point x="445" y="186"/>
      <point x="445" y="357" type="curve" smooth="yes"/>
      <point x="445" y="529"/>
      <point x="581" y="670"/>
      <point x="751" y="677" type="curve"/>
    </contour>
    <contour>
      <point x="777" y="37" type="curve"/>
      <point x="777" y="678" type="line"/>
      <point x="948" y="671"/>
      <point x="1085" y="530"/>
      <point x="1085" y="357" type="curve" smooth="yes"/>
      <point x="1085" y="185"/>
      <point x="948" y="43"/>
    </contour>
  </outline>
</glyph>
<glyph name="whitesquarecentreverticalline" format="2">
  <advance width="805"/>
  <unicode hex="2385"/>
  <note>
uni2385
</note>
  <outline>
    <contour>
      <point x="511" y="10" type="line"/>
      <point x="744" y="10" type="line"/>
      <point x="744" y="704" type="line"/>
      <point x="511" y="704" type="line"/>
      <point x="511" y="679" type="line"/>
      <point x="718" y="679" type="line"/>
      <point x="718" y="35" type="line"/>
      <point x="511" y="35" type="line"/>
    </contour>
    <contour>
      <point x="61" y="10" type="line"/>
      <point x="294" y="10" type="line"/>
      <point x="294" y="35" type="line"/>
      <point x="87" y="35" type="line"/>
      <point x="87" y="679" type="line"/>
      <point x="294" y="679" type="line"/>
      <point x="294" y="704" type="line"/>
      <point x="61" y="704" type="line"/>
    </contour>
    <contour>
      <point x="389" y="-165" type="line"/>
      <point x="416" y="-165" type="line"/>
      <point x="416" y="835" type="line"/>
      <point x="389" y="835" type="line"/>
    </contour>
  </outline>
</glyph>
<glyph name="entersymbol" format="2">
  <advance width="817"/>
  <unicode hex="2386"/>
  <note>
uni2386
</note>
  <outline>
    <contour>
      <point x="401" y="1" type="line"/>
      <point x="756" y="356" type="line"/>
      <point x="401" y="711" type="line"/>
      <point x="177" y="486" type="line"/>
      <point x="215" y="486" type="line"/>
      <point x="401" y="673" type="line"/>
      <point x="718" y="356" type="line"/>
      <point x="401" y="39" type="line"/>
      <point x="215" y="226" type="line"/>
      <point x="177" y="226" type="line"/>
    </contour>
    <contour>
      <point x="411" y="261" type="line"/>
      <point x="411" y="318" type="line"/>
      <point x="87" y="318" type="line"/>
      <point x="87" y="394" type="line"/>
      <point x="411" y="394" type="line"/>
      <point x="411" y="451" type="line"/>
      <point x="502" y="356" type="line"/>
    </contour>
    <contour>
      <point x="385" y="195" type="line"/>
      <point x="540" y="356" type="line"/>
      <point x="385" y="518" type="line"/>
      <point x="385" y="419" type="line"/>
      <point x="61" y="419" type="line"/>
      <point x="61" y="293" type="line"/>
      <point x="385" y="293" type="line"/>
    </contour>
  </outline>
</glyph>
<glyph name="alternativekeysymbol" format="2">
  <advance width="1053"/>
  <unicode hex="2387"/>
  <note>
uni2387
</note>
  <outline>
    <contour>
      <point x="61" y="137" type="line"/>
      <point x="390" y="137" type="line"/>
      <point x="508" y="396" type="line"/>
      <point x="691" y="396" type="line"/>
      <point x="691" y="265" type="line"/>
      <point x="965" y="409" type="line"/>
      <point x="691" y="554" type="line"/>
      <point x="691" y="422" type="line"/>
      <point x="490" y="422" type="line"/>
      <point x="372" y="162" type="line"/>
      <point x="61" y="162" type="line"/>
    </contour>
    <contour>
      <point x="508" y="137" type="line"/>
      <point x="955" y="137" type="line"/>
      <point x="955" y="162" type="line"/>
      <point x="508" y="162" type="line"/>
    </contour>
    <contour>
      <point x="717" y="310" type="line"/>
      <point x="717" y="508" type="line"/>
      <point x="912" y="409" type="line"/>
    </contour>
  </outline>
</glyph>
<glyph name="helmsymbol" format="2">
  <advance width="961"/>
  <unicode hex="2388"/>
  <note>
uni2388
</note>
  <outline>
    <contour>
      <point x="76" y="93" type="line"/>
      <point x="895" y="566" type="line"/>
      <point x="882" y="589" type="line"/>
      <point x="63" y="116" type="line"/>
    </contour>
    <contour>
      <point x="882" y="93" type="line"/>
      <point x="895" y="116" type="line"/>
      <point x="76" y="589" type="line"/>
      <point x="63" y="566" type="line"/>
    </contour>
    <contour>
      <point x="479" y="6" type="curve" smooth="yes"/>
      <point x="664" y="6"/>
      <point x="814" y="156"/>
      <point x="814" y="341" type="curve" smooth="yes"/>
      <point x="814" y="526"/>
      <point x="664" y="676"/>
      <point x="479" y="676" type="curve" smooth="yes"/>
      <point x="294" y="676"/>
      <point x="144" y="526"/>
      <point x="144" y="341" type="curve" smooth="yes"/>
      <point x="144" y="156"/>
      <point x="292" y="6"/>
    </contour>
    <contour>
      <point x="479" y="32" type="curve" smooth="yes"/>
      <point x="309" y="32"/>
      <point x="171" y="170"/>
      <point x="171" y="341" type="curve" smooth="yes"/>
      <point x="171" y="512"/>
      <point x="309" y="650"/>
      <point x="479" y="650" type="curve" smooth="yes"/>
      <point x="649" y="650"/>
      <point x="787" y="512"/>
      <point x="787" y="341" type="curve" smooth="yes"/>
      <point x="787" y="170"/>
      <point x="649" y="32"/>
    </contour>
    <contour>
      <point x="466" y="-132" type="line"/>
      <point x="492" y="-132" type="line"/>
      <point x="492" y="814" type="line"/>
      <point x="466" y="814" type="line"/>
    </contour>
  </outline>
</glyph>
<glyph name="horizontalbarnotchCircled" format="2">
  <advance width="772"/>
  <unicode hex="2389"/>
  <note>
uni2389
</note>
  <outline>
    <contour>
      <point x="386" y="14" type="curve" smooth="yes"/>
      <point x="565" y="14"/>
      <point x="711" y="160"/>
      <point x="711" y="339" type="curve" smooth="yes"/>
      <point x="711" y="518"/>
      <point x="565" y="665"/>
      <point x="386" y="665" type="curve" smooth="yes"/>
      <point x="208" y="665"/>
      <point x="61" y="518"/>
      <point x="61" y="339" type="curve" smooth="yes"/>
      <point x="61" y="160"/>
      <point x="208" y="14"/>
    </contour>
    <contour>
      <point x="384" y="41" type="line"/>
      <point x="222" y="42"/>
      <point x="88" y="175"/>
      <point x="88" y="341" type="curve"/>
      <point x="243" y="341" type="line"/>
    </contour>
    <contour>
      <point x="389" y="41" type="curve"/>
      <point x="530" y="341" type="line"/>
      <point x="684" y="341" type="line"/>
      <point x="684" y="176"/>
      <point x="552" y="42"/>
    </contour>
    <contour>
      <point x="386" y="92" type="line"/>
      <point x="261" y="366" type="line"/>
      <point x="89" y="366" type="line"/>
      <point x="103" y="518"/>
      <point x="232" y="637"/>
      <point x="386" y="637" type="curve" smooth="yes"/>
      <point x="541" y="637"/>
      <point x="669" y="518"/>
      <point x="683" y="366" type="curve"/>
      <point x="512" y="366" type="line"/>
    </contour>
  </outline>
</glyph>
<glyph name="downCircledTriangle" format="2">
  <advance width="772"/>
  <unicode hex="238A"/>
  <note>
uni238A
</note>
  <outline>
    <contour>
      <point x="386" y="14" type="curve" smooth="yes"/>
      <point x="565" y="14"/>
      <point x="711" y="160"/>
      <point x="711" y="339" type="curve" smooth="yes"/>
      <point x="711" y="518"/>
      <point x="565" y="665"/>
      <point x="386" y="665" type="curve" smooth="yes"/>
      <point x="208" y="665"/>
      <point x="61" y="518"/>
      <point x="61" y="339" type="curve" smooth="yes"/>
      <point x="61" y="160"/>
      <point x="208" y="14"/>
    </contour>
    <contour>
      <point x="380" y="41" type="line"/>
      <point x="219" y="44"/>
      <point x="88" y="177"/>
      <point x="88" y="339" type="curve" smooth="yes"/>
      <point x="88" y="384"/>
      <point x="98" y="426"/>
      <point x="116" y="464" type="curve"/>
    </contour>
    <contour>
      <point x="386" y="78" type="line"/>
      <point x="140" y="473" type="line"/>
      <point x="633" y="473" type="line"/>
    </contour>
    <contour>
      <point x="392" y="41" type="curve"/>
      <point x="657" y="464" type="line"/>
      <point x="674" y="426"/>
      <point x="684" y="384"/>
      <point x="684" y="339" type="curve" smooth="yes"/>
      <point x="684" y="177"/>
      <point x="554" y="44"/>
    </contour>
    <contour>
      <point x="134" y="499" type="line"/>
      <point x="188" y="582"/>
      <point x="281" y="637"/>
      <point x="386" y="637" type="curve" smooth="yes"/>
      <point x="492" y="637"/>
      <point x="585" y="582"/>
      <point x="638" y="499" type="curve"/>
    </contour>
  </outline>
</glyph>
<glyph name="brokenCircleNorthWestArrow" format="2">
  <advance width="774"/>
  <unicode hex="238B"/>
  <note>
uni238B
</note>
  <outline>
    <contour>
      <point x="388" y="14" type="curve" smooth="yes"/>
      <point x="567" y="14"/>
      <point x="715" y="159"/>
      <point x="715" y="341" type="curve" smooth="yes"/>
      <point x="715" y="522"/>
      <point x="569" y="668"/>
      <point x="388" y="668" type="curve"/>
      <point x="388" y="641" type="line"/>
      <point x="556" y="641"/>
      <point x="688" y="507"/>
      <point x="688" y="341" type="curve" smooth="yes"/>
      <point x="688" y="174"/>
      <point x="555" y="41"/>
      <point x="388" y="41" type="curve" smooth="yes"/>
      <point x="223" y="41"/>
      <point x="88" y="174"/>
      <point x="88" y="341" type="curve"/>
      <point x="61" y="341" type="line"/>
      <point x="61" y="162"/>
      <point x="207" y="14"/>
    </contour>
    <contour>
      <point x="447" y="258" type="line"/>
      <point x="465" y="276" type="line"/>
      <point x="200" y="542" type="line"/>
      <point x="274" y="617" type="line"/>
      <point x="65" y="666" type="line"/>
      <point x="110" y="453" type="line"/>
      <point x="182" y="525" type="line"/>
    </contour>
    <contour>
      <point x="126" y="506" type="line"/>
      <point x="99" y="632" type="line"/>
      <point x="221" y="601" type="line"/>
    </contour>
  </outline>
</glyph>
<glyph name="undosymbol" format="2">
  <advance width="888"/>
  <unicode hex="238C"/>
  <note>
uni238C
</note>
  <outline>
    <contour>
      <point x="709" y="64" type="curve" smooth="yes"/>
      <point x="774" y="64"/>
      <point x="827" y="117"/>
      <point x="827" y="182" type="curve" smooth="yes"/>
      <point x="827" y="242"/>
      <point x="783" y="292"/>
      <point x="725" y="299" type="curve"/>
      <point x="725" y="334" type="line" smooth="yes"/>
      <point x="725" y="488"/>
      <point x="604" y="591"/>
      <point x="461" y="591" type="curve" smooth="yes"/>
      <point x="384" y="591"/>
      <point x="324" y="556"/>
      <point x="282" y="522" type="curve"/>
      <point x="213" y="564" type="line"/>
      <point x="200" y="352" type="line"/>
      <point x="383" y="460" type="line"/>
      <point x="307" y="507" type="line"/>
      <point x="344" y="538"/>
      <point x="390" y="563"/>
      <point x="461" y="563" type="curve" smooth="yes"/>
      <point x="616" y="563"/>
      <point x="698" y="445"/>
      <point x="698" y="334" type="curve" smooth="yes"/>
      <point x="698" y="300" type="line"/>
      <point x="638" y="294"/>
      <point x="590" y="245"/>
      <point x="590" y="182" type="curve" smooth="yes"/>
      <point x="590" y="116"/>
      <point x="644" y="64"/>
    </contour>
    <contour>
      <point x="179" y="64" type="curve" smooth="yes"/>
      <point x="245" y="64"/>
      <point x="297" y="117"/>
      <point x="297" y="182" type="curve" smooth="yes"/>
      <point x="297" y="248"/>
      <point x="245" y="300"/>
      <point x="179" y="300" type="curve" smooth="yes"/>
      <point x="114" y="300"/>
      <point x="61" y="249"/>
      <point x="61" y="182" type="curve" smooth="yes"/>
      <point x="61" y="116"/>
      <point x="114" y="64"/>
    </contour>
    <contour>
      <point x="179" y="91" type="curve" smooth="yes"/>
      <point x="128" y="91"/>
      <point x="88" y="131"/>
      <point x="88" y="182" type="curve" smooth="yes"/>
      <point x="88" y="232"/>
      <point x="128" y="273"/>
      <point x="179" y="273" type="curve" smooth="yes"/>
      <point x="229" y="273"/>
      <point x="270" y="232"/>
      <point x="270" y="182" type="curve" smooth="yes"/>
      <point x="270" y="131"/>
      <point x="229" y="91"/>
    </contour>
    <contour>
      <point x="229" y="400" type="line"/>
      <point x="237" y="519" type="line"/>
      <point x="333" y="460" type="line"/>
    </contour>
    <contour>
      <point x="709" y="91" type="curve" smooth="yes"/>
      <point x="658" y="91"/>
      <point x="618" y="131"/>
      <point x="618" y="182" type="curve" smooth="yes"/>
      <point x="618" y="232"/>
      <point x="658" y="273"/>
      <point x="709" y="273" type="curve" smooth="yes"/>
      <point x="759" y="273"/>
      <point x="800" y="232"/>
      <point x="800" y="182" type="curve" smooth="yes"/>
      <point x="800" y="131"/>
      <point x="759" y="91"/>
    </contour>
  </outline>
</glyph>
<glyph name="monostablesymbol" format="2">
  <advance width="814"/>
  <unicode hex="238D"/>
  <note>
uni238D
</note>
  <outline>
    <contour>
      <point x="61" y="0" type="line"/>
      <point x="250" y="0" type="line"/>
      <point x="250" y="688" type="line"/>
      <point x="564" y="688" type="line"/>
      <point x="564" y="0" type="line"/>
      <point x="753" y="0" type="line"/>
      <point x="753" y="25" type="line"/>
      <point x="591" y="25" type="line"/>
      <point x="591" y="714" type="line"/>
      <point x="224" y="714" type="line"/>
      <point x="224" y="25" type="line"/>
      <point x="61" y="25" type="line"/>
    </contour>
  </outline>
</glyph>
<glyph name="hysteresissymbol" format="2">
  <advance width="686"/>
  <unicode hex="238E"/>
  <note>
uni238E
</note>
  <outline>
    <contour>
      <point x="80" y="0" type="line"/>
      <point x="387" y="0" type="line" smooth="yes"/>
      <point x="507" y="0"/>
      <point x="537" y="79"/>
      <point x="537" y="155" type="curve" smooth="yes"/>
      <point x="537" y="550" type="line" smooth="yes"/>
      <point x="537" y="630"/>
      <point x="545" y="683"/>
      <point x="606" y="706" type="curve"/>
      <point x="606" y="714" type="line"/>
      <point x="299" y="714" type="line" smooth="yes"/>
      <point x="179" y="714"/>
      <point x="149" y="635"/>
      <point x="149" y="559" type="curve" smooth="yes"/>
      <point x="149" y="164" type="line" smooth="yes"/>
      <point x="149" y="84"/>
      <point x="141" y="31"/>
      <point x="80" y="8" type="curve"/>
    </contour>
    <contour>
      <point x="133" y="25" type="line"/>
      <point x="133" y="26" type="line"/>
      <point x="166" y="50"/>
      <point x="176" y="83"/>
      <point x="176" y="150" type="curve" smooth="yes"/>
      <point x="176" y="550" type="line" smooth="yes"/>
      <point x="176" y="638"/>
      <point x="208" y="688"/>
      <point x="292" y="688" type="curve" smooth="yes"/>
      <point x="553" y="688" type="line"/>
      <point x="553" y="687" type="line"/>
      <point x="522" y="666"/>
      <point x="510" y="631"/>
      <point x="510" y="563" type="curve" smooth="yes"/>
      <point x="510" y="164" type="line" smooth="yes"/>
      <point x="510" y="76"/>
      <point x="478" y="25"/>
      <point x="394" y="25" type="curve" smooth="yes"/>
    </contour>
  </outline>
</glyph>
<glyph name="openCircuitOutputLType" format="2">
  <advance width="862"/>
  <unicode hex="2390"/>
  <note>
uni2390
</note>
  <outline>
    <contour>
      <point x="68" y="10" type="line"/>
      <point x="794" y="10" type="line"/>
      <point x="794" y="35" type="line"/>
      <point x="456" y="35" type="line"/>
      <point x="794" y="375" type="line"/>
      <point x="431" y="739" type="line"/>
      <point x="68" y="375" type="line"/>
      <point x="406" y="35" type="line"/>
      <point x="68" y="35" type="line"/>
    </contour>
    <contour>
      <point x="431" y="47" type="line"/>
      <point x="105" y="375" type="line"/>
      <point x="431" y="702" type="line"/>
      <point x="757" y="375" type="line"/>
    </contour>
  </outline>
</glyph>
<glyph name="passivePullDownOutputsymbol" format="2">
  <advance width="862"/>
  <unicode hex="2391"/>
  <note>
uni2391
</note>
  <outline>
    <contour>
      <point x="431" y="10" type="line"/>
      <point x="794" y="375" type="line"/>
      <point x="456" y="714" type="line"/>
      <point x="794" y="714" type="line"/>
      <point x="794" y="739" type="line"/>
      <point x="68" y="739" type="line"/>
      <point x="68" y="714" type="line"/>
      <point x="406" y="714" type="line"/>
      <point x="68" y="375" type="line"/>
    </contour>
    <contour>
      <point x="431" y="47" type="line"/>
      <point x="118" y="362" type="line"/>
      <point x="745" y="362" type="line"/>
    </contour>
    <contour>
      <point x="118" y="387" type="line"/>
      <point x="431" y="702" type="line"/>
      <point x="745" y="387" type="line"/>
    </contour>
  </outline>
</glyph>
<glyph name="passivePullUpOutputsymbol" format="2">
  <advance width="862"/>
  <unicode hex="2392"/>
  <note>
uni2392
</note>
  <outline>
    <contour>
      <point x="68" y="10" type="line"/>
      <point x="794" y="10" type="line"/>
      <point x="794" y="35" type="line"/>
      <point x="456" y="35" type="line"/>
      <point x="794" y="375" type="line"/>
      <point x="431" y="739" type="line"/>
      <point x="68" y="375" type="line"/>
      <point x="406" y="35" type="line"/>
      <point x="68" y="35" type="line"/>
    </contour>
    <contour>
      <point x="431" y="47" type="line"/>
      <point x="117" y="362" type="line"/>
      <point x="745" y="362" type="line"/>
    </contour>
    <contour>
      <point x="118" y="388" type="line"/>
      <point x="431" y="702" type="line"/>
      <point x="744" y="388" type="line"/>
    </contour>
  </outline>
</glyph>
<glyph name="directcurrentsymbolformtwo" format="2">
  <advance width="802"/>
  <unicode hex="2393"/>
  <note>
uni2393
</note>
  <outline>
    <contour>
      <point x="61" y="439" type="line"/>
      <point x="741" y="439" type="line"/>
      <point x="741" y="464" type="line"/>
      <point x="61" y="464" type="line"/>
    </contour>
    <contour>
      <point x="61" y="297" type="line"/>
      <point x="234" y="297" type="line"/>
      <point x="234" y="322" type="line"/>
      <point x="61" y="322" type="line"/>
    </contour>
    <contour>
      <point x="314" y="297" type="line"/>
      <point x="488" y="297" type="line"/>
      <point x="488" y="322" type="line"/>
      <point x="314" y="322" type="line"/>
    </contour>
    <contour>
      <point x="567" y="297" type="line"/>
      <point x="741" y="297" type="line"/>
      <point x="741" y="322" type="line"/>
      <point x="567" y="322" type="line"/>
    </contour>
  </outline>
</glyph>
<glyph name="softwareFunctionsymbol" format="2">
  <advance width="828"/>
  <unicode hex="2394"/>
  <note>
uni2394
</note>
  <outline>
    <contour>
      <point x="242" y="54" type="line"/>
      <point x="586" y="54" type="line"/>
      <point x="761" y="357" type="line"/>
      <point x="586" y="660" type="line"/>
      <point x="242" y="660" type="line"/>
      <point x="67" y="357" type="line"/>
    </contour>
    <contour>
      <point x="258" y="79" type="line"/>
      <point x="98" y="357" type="line"/>
      <point x="258" y="635" type="line"/>
      <point x="570" y="635" type="line"/>
      <point x="730" y="357" type="line"/>
      <point x="570" y="79" type="line"/>
    </contour>
  </outline>
</glyph>
<glyph name="previouspage" format="2">
  <advance width="931"/>
  <unicode hex="2397"/>
  <note>
uni2397
</note>
  <outline>
    <contour>
      <point x="373" y="11" type="line"/>
      <point x="870" y="11" type="line"/>
      <point x="870" y="579" type="line"/>
      <point x="558" y="579" type="line"/>
      <point x="558" y="689" type="line"/>
      <point x="438" y="689" type="line"/>
      <point x="438" y="664" type="line"/>
      <point x="532" y="664" type="line"/>
      <point x="532" y="579" type="line"/>
      <point x="373" y="579" type="line"/>
      <point x="373" y="447" type="line"/>
      <point x="314" y="447" type="line"/>
      <point x="314" y="540" type="line"/>
      <point x="173" y="396" type="line"/>
      <point x="314" y="252" type="line"/>
      <point x="314" y="345" type="line"/>
      <point x="373" y="345" type="line"/>
      <point x="373" y="147" type="line"/>
      <point x="249" y="147" type="line"/>
      <point x="249" y="122" type="line"/>
      <point x="373" y="122" type="line"/>
    </contour>
    <contour>
      <point x="61" y="122" type="line"/>
      <point x="181" y="122" type="line"/>
      <point x="181" y="147" type="line"/>
      <point x="87" y="147" type="line"/>
      <point x="87" y="193" type="line"/>
      <point x="61" y="193" type="line"/>
    </contour>
    <contour>
      <point x="61" y="261" type="line"/>
      <point x="87" y="261" type="line"/>
      <point x="87" y="382" type="line"/>
      <point x="61" y="382" type="line"/>
    </contour>
    <contour>
      <point x="61" y="451" type="line"/>
      <point x="87" y="451" type="line"/>
      <point x="87" y="572" type="line"/>
      <point x="61" y="572" type="line"/>
    </contour>
    <contour>
      <point x="61" y="640" type="line"/>
      <point x="87" y="640" type="line"/>
      <point x="87" y="664" type="line"/>
      <point x="181" y="664" type="line"/>
      <point x="181" y="689" type="line"/>
      <point x="61" y="689" type="line"/>
    </contour>
    <contour>
      <point x="288" y="315" type="line"/>
      <point x="210" y="396" type="line"/>
      <point x="288" y="477" type="line"/>
      <point x="288" y="422" type="line"/>
      <point x="570" y="422" type="line"/>
      <point x="570" y="370" type="line"/>
      <point x="288" y="370" type="line"/>
    </contour>
    <contour>
      <point x="399" y="37" type="line"/>
      <point x="399" y="345" type="line"/>
      <point x="596" y="345" type="line"/>
      <point x="596" y="447" type="line"/>
      <point x="399" y="447" type="line"/>
      <point x="399" y="553" type="line"/>
      <point x="844" y="553" type="line"/>
      <point x="844" y="37" type="line"/>
    </contour>
    <contour>
      <point x="249" y="664" type="line"/>
      <point x="370" y="664" type="line"/>
      <point x="370" y="689" type="line"/>
      <point x="249" y="689" type="line"/>
    </contour>
  </outline>
</glyph>
